<svg width="48" height="48" fill="none" xmlns="http://www.w3.org/2000/svg"><g clip-path="url(#clip0_594_339)"><path fill-rule="evenodd" clip-rule="evenodd" d="M48 0H0v48h48V0zM6 14a8 8 0 0112.906-6.32L7.68 18.906A7.965 7.965 0 016 14zm3.094 6.32A8 8 0 0020.32 9.094L9.094 20.32zM14 4C8.477 4 4 8.477 4 14s4.477 10 10 10 10-4.477 10-10S19.523 4 14 4zm16.062 14.533c3.657-2.725 7.1-9.556 8.396-12.332A2.065 2.065 0 0140.32 5h3.117a2 2 0 011.94 2.485l-.286 1.145c-.923 3.695-.687 7.585-.329 11.39-.816-.66-1.869-1.098-3.163-1.09l.012 2c1.264-.008 2.154.668 2.719 1.613.437.73.63 1.546.638 2.182C44.549 29.455 40 29 40 29h-.882c-.735 0-1.46-.171-2.118-.5a4.736 4.736 0 00-2.118-.5h-.87c.078-.383.305-.772.736-1.02.48-.275 1.387-.473 2.977-.018a1 1 0 10.55-1.923c-1.91-.546-3.42-.426-4.523.207a3.508 3.508 0 00-1.745 2.633A.996.996 0 0032 28h-.57c-4.102 0-6.836-5.41-1.368-9.467zm.52 12.654a1 1 0 01.231 1.395c-.586.82-1.336 1.565-2.216 2.22a1 1 0 01-1.194-1.604 8.197 8.197 0 001.784-1.78 1 1 0 011.395-.231zM25 37l.555.832a1 1 0 00-1.104-1.668l-.002.001-.03.019a3.34 3.34 0 01-.155.086 5.58 5.58 0 01-.668.29C23 36.777 22.116 37 21 37a1 1 0 100 2c1.384 0 2.5-.277 3.28-.56a7.76 7.76 0 00.91-.397 5.205 5.205 0 00.326-.186l.024-.015.009-.006.004-.003h.002L25 37zm11.013 2.5A1 1 0 0137 40.513a5.445 5.445 0 00.196 1.53 4.174 4.174 0 00.175.5l.007.016a1 1 0 01-1.791.889L36.48 43l-.894.448v-.002h-.001l-.002-.003-.003-.007-.008-.018a4.277 4.277 0 01-.099-.228 6.148 6.148 0 01-.204-.608 7.441 7.441 0 01-.27-2.095 1 1 0 011.013-.987zm1.436-5.185l-.003.01-.013.04a10.864 10.864 0 00-.207.79C37.11 35.678 37 36.35 37 37a1 1 0 11-2 0c0-.85.14-1.68.274-2.28a12.835 12.835 0 01.269-1.01l.005-.017.002-.006v-.002h.001l.94.312-.94-.313a1 1 0 011.898.631zm-4-1.209a1 1 0 01.445 1.343c-.16.317-.27.6-.396.92-.066.17-.137.352-.221.554-.227.544-.518 1.139-1.014 1.724a1 1 0 01-1.525-1.294c.306-.361.502-.743.693-1.2.05-.12.104-.259.163-.407.143-.365.312-.795.512-1.195a1 1 0 011.343-.445zM29.8 40.6a1 1 0 00-1.6-1.2l-.002.003-.01.014a8.817 8.817 0 01-.224.283c-.155.192-.378.46-.645.756-.546.607-1.23 1.282-1.874 1.712a1 1 0 001.11 1.664c.855-.57 1.672-1.395 2.25-2.038a20.9 20.9 0 00.973-1.165l.015-.02.006-.008.001-.001-.8-.6.8.6z" fill="#fff"/></g><defs><clipPath id="clip0_594_339"><path fill="#fff" d="M0 0h48v48H0z"/></clipPath></defs></svg>