<svg width="40" height="40" fill="none" xmlns="http://www.w3.org/2000/svg"><path fill-rule="evenodd" clip-rule="evenodd" d="M6.667 33.333v-27.5H5v28.334c0 .46.373.833.833.833h28.334v-1.667h-27.5z" fill="#004AAD"/><path fill-rule="evenodd" clip-rule="evenodd" d="M9.167 20.833c0-.46.373-.833.833-.833h5c.46 0 .834.373.834.833v13.334c0 .46-.373.833-.834.833h-5a.833.833 0 01-.833-.833V20.833zm1.667.834v11.666h3.333V21.667h-3.333zM17.5 17.5c0-.46.373-.833.833-.833h5c.46 0 .834.373.834.833v16.667c0 .46-.373.833-.834.833h-5a.833.833 0 01-.833-.833V17.5zm1.667.833v15H22.5v-15h-3.333zm6.666-7.5c0-.46.373-.833.833-.833h5c.46 0 .834.373.834.833v23.334c0 .46-.373.833-.834.833h-5a.833.833 0 01-.833-.833V10.833zm1.667.834v21.666h3.333V11.667H27.5z" fill="#004AAD"/></svg>