<svg width="40" height="40" fill="none" xmlns="http://www.w3.org/2000/svg"><path d="M20.017 3.352a5.33 5.33 0 013.521 1.328l.257.242 1.163 1.163a2 2 0 001.184.568l.225.014h1.666a5.333 5.333 0 015.325 5.03l.009.303v1.667a2 2 0 00.43 1.238l.15.167 1.161 1.163a5.333 5.333 0 01.245 7.303l-.241.257-1.164 1.163a2 2 0 00-.568 1.184l-.013.225v1.666a5.333 5.333 0 01-5.03 5.325l-.304.009h-1.666a2 2 0 00-1.239.43l-.166.15-1.164 1.161a5.333 5.333 0 01-7.303.245l-.257-.241-1.163-1.164a2 2 0 00-1.183-.568l-.225-.013H12a5.334 5.334 0 01-5.325-5.03l-.008-.304v-1.666a2 2 0 00-.43-1.239l-.15-.166-1.162-1.164a5.333 5.333 0 01-.245-7.303l.242-.257 1.163-1.163a2 2 0 00.568-1.183l.014-.225V12l.008-.303a5.333 5.333 0 015.022-5.022L12 6.667h1.667a2 2 0 001.238-.43l.167-.15 1.163-1.162a5.334 5.334 0 013.782-1.573zm6.161 12.136a1.667 1.667 0 00-2.356 0l-5.489 5.487-2.155-2.153-.156-.139a1.667 1.667 0 00-2.2 2.495l3.333 3.334.157.138a1.667 1.667 0 002.2-.138l6.666-6.667.139-.157a1.667 1.667 0 00-.139-2.2z" fill="#004AAD"/></svg>