<svg width="82" height="82" fill="none" xmlns="http://www.w3.org/2000/svg"><path d="M76 1H6a5 5 0 00-5 5v70a5 5 0 005 5h70a5 5 0 005-5V6a5 5 0 00-5-5z" stroke="#004AAD" stroke-width="1.5" stroke-miterlimit="10"/><path d="M36.737 60.949c-8.253-3.545-14.49-18.416-14.49-27.185C22.247 24.542 29.757 17 38.94 17h2.786c9.183 0 16.693 7.543 16.693 16.764 0 9.008-6.608 24.493-15.206 27.451" stroke="#004AAD" stroke-width="1.5" stroke-miterlimit="10" stroke-linecap="round"/><path d="M22.433 36.616l-.186 3.864c-.69 0-1.247.56-1.247 1.253a4.58 4.58 0 002.017 3.811l2.415 1.653m32.802-10.581l.185 3.864c.69 0 1.248.56 1.248 1.253a4.58 4.58 0 01-2.017 3.811l-2.415 1.653m-28.397-9.835l4.194-4.558a5.047 5.047 0 001.3-2.665l.743-4.264c.16-.88 1.274-1.12 1.778-.427l1.752 2.4a5.021 5.021 0 004.06 2.051h7.112c3.185 0 5.786 2.612 5.786 5.81v1.653M33.845 59.216s-2.017-2.985-.027-6.61c2.415-4.424 4.193-7.675 6.529-7.675" stroke="#004AAD" stroke-width="1.5" stroke-miterlimit="10" stroke-linecap="round"/><path d="M46.848 59.19s1.99-2.959 0-6.583c-2.415-4.425-4.272-7.676-6.528-7.676" stroke="#004AAD" stroke-width="1.5" stroke-miterlimit="10" stroke-linecap="round"/><path d="M42.15 56.418c0 1.386-.795 2.052-1.804 2.052-1.008 0-1.804-.666-1.804-2.052 0-1.386 1.14-2.958 1.804-2.958.664 0 1.805 1.572 1.805 2.958z" fill="#004AAD"/><path d="M40.346 65a.953.953 0 01-.955-.96v-5.836a.954.954 0 111.911 0v5.836a.97.97 0 01-.956.96z" fill="#004AAD"/><path d="M36.657 39.388c0 1.12-.716 2.053-2.6 2.053-1.832 0-2.601-.907-2.601-2.053m17.754 0c0 1.12-.716 2.053-2.6 2.053-1.831 0-2.6-.907-2.6-2.053" stroke="#004AAD" stroke-width="1.5" stroke-miterlimit="10" stroke-linecap="round"/></svg>