<svg width="48" height="48" fill="none" xmlns="http://www.w3.org/2000/svg"><g id="cleaning" fill="#004AAD"><path id="Vector" fill-rule="evenodd" clip-rule="evenodd" d="M20.85 25.656L10.117 5.47a1 1 0 111.766-.94l10.733 20.187 1.523-.81a4 4 0 015.41 1.654l.647 1.219 6.87 10.054-14.25 7.576-4.494-11.317-.648-1.218a4 4 0 011.654-5.41l1.522-.81zm-.583 2.575l4.81-2.558a2 2 0 012.705.827l.648 1.218-8.342 4.436-.648-1.218a2 2 0 01.827-2.705zm.83 6.432l2.753 6.933 1.835-.976-2.165-4.215 1.779-.914 2.152 4.19 6.702-3.564-4.207-6.159-8.849 4.705z"/><path id="Vector_2" d="M16.36 35.231a1 1 0 011.28 1.537l-.001.001-.002.002-.003.002-.01.008-.03.025-.103.079c-.087.065-.21.154-.367.26-.315.21-.77.484-1.344.758A11.149 11.149 0 0111 39a1 1 0 110-2 9.15 9.15 0 003.92-.903 8.836 8.836 0 001.094-.617 5.93 5.93 0 00.337-.24l.01-.01v.001z"/><path id="Vector_3" d="M19.555 41.832a1 1 0 00-1.11-1.664l-.002.002-.02.012-.086.055a14.28 14.28 0 01-1.618.85c-1.07.474-2.42.913-3.719.913a1 1 0 100 2c1.702 0 3.35-.561 4.531-1.086a16.244 16.244 0 001.863-.979 8.43 8.43 0 00.114-.072l.032-.021.01-.006.005-.004z"/></g></svg>