<svg width="40" height="40" fill="none" xmlns="http://www.w3.org/2000/svg"><path fill-rule="evenodd" clip-rule="evenodd" d="M7.647 7.083C6.185 7.083 5 8.283 5 9.762v16.071c0 1.48 1.185 2.679 2.647 2.679h8.824v1.786h-3.53v1.785H27.06v-1.785h-3.53v-1.786h8.824c1.462 0 2.647-1.2 2.647-2.679V9.762c0-1.48-1.185-2.679-2.647-2.679H7.647zm10.588 23.215h3.53v-1.786h-3.53v1.786zM6.765 9.762c0-.493.395-.893.882-.893h24.706c.487 0 .882.4.882.893v16.071a.888.888 0 01-.882.893H7.647a.888.888 0 01-.882-.893V9.762zm6.176.893h-1.765v1.786H9.412v1.785h1.764v1.786h1.765v-1.786h1.765V12.44H12.94v-1.785zm-2.647 7.143c-.487 0-.882.4-.882.893v3.571c0 .493.395.893.882.893h3.53c.487 0 .882-.4.882-.893V18.69a.888.888 0 00-.883-.892h-3.529zm.882 3.571v-1.786h1.765v1.786h-1.765zm6.177-9.821c0-.493.395-.893.882-.893h3.53c.487 0 .882.4.882.893v3.571a.888.888 0 01-.882.893h-3.53a.888.888 0 01-.882-.893v-3.571zm1.765.893v1.785h1.765V12.44h-1.765zm-.883 5.357c-.487 0-.882.4-.882.893v3.571c0 .493.395.893.882.893h3.53c.487 0 .882-.4.882-.893V18.69a.888.888 0 00-.882-.892h-3.53zm.883 3.571v-1.786h1.765v1.786h-1.765zm6.176-9.821c0-.493.395-.893.883-.893h3.529c.487 0 .882.4.882.893v3.571a.888.888 0 01-.882.893h-3.53a.888.888 0 01-.882-.893v-3.571zm1.765.893v1.785h1.765V12.44h-1.765z" fill="#004AAD"/></svg>