<svg width="82" height="82" fill="none" xmlns="http://www.w3.org/2000/svg"><path d="M76 1H6a5 5 0 00-5 5v70a5 5 0 005 5h70a5 5 0 005-5V6a5 5 0 00-5-5z" stroke="#004AAD" stroke-width="1.5" stroke-miterlimit="10"/><path d="M41.5 43.5l1.5-5 1.5 5-1.5 2-1.5-2z" fill="#004AAD"/><path fill-rule="evenodd" clip-rule="evenodd" d="M57.508 35.853A3.502 3.502 0 0060 32.5v-6a3.5 3.5 0 10-7 0v6a3.501 3.501 0 002.507 3.357c.009 1.125.023 2.2.037 3.226v.001c.049 3.651.09 6.694-.177 9.224-.377 3.58-1.34 5.766-3.483 7.028-2.88 1.697-7.237 2.285-10.906 1.823-1.826-.23-3.388-.71-4.461-1.366-.434-.265-.765-.542-1.006-.828 1.824-.103 3.605-.433 5.053-1.022 1.778-.723 3.389-1.999 3.435-4.014A7.002 7.002 0 0044 36.071v-5.949h-.003C44 30.082 44 30.041 44 30c0-2.761-4.477-5-10-5s-10 2.239-10 5l.003.122H24V49.84c0 1.985 1.665 3.253 3.43 3.985 1.64.68 3.715 1.06 5.8 1.152.388 1.064 1.23 1.903 2.244 2.523 1.399.855 3.264 1.393 5.255 1.644 3.966.499 8.804-.1 12.17-2.085 2.966-1.747 4.057-4.738 4.457-8.542.28-2.654.236-5.882.187-9.603-.014-.986-.027-2.007-.035-3.061zM56.5 25a1.5 1.5 0 011.5 1.5v6a1.5 1.5 0 01-3 0v-6a1.5 1.5 0 011.5-1.5zM42 30c0 .215-.226.948-1.823 1.747C38.699 32.485 36.518 33 34 33s-4.7-.515-6.177-1.253C26.226 30.948 26 30.215 26 30c0-.215.226-.948 1.823-1.747C29.301 27.515 31.482 27 34 27s4.7.515 6.177 1.253C41.774 29.052 42 29.785 42 30zm0 3c-1.825 1.215-4.729 2-8 2-.306 0-.61-.007-.91-.02v17.988c.306.017.613.027.921.03 2.168.026 4.275-.287 5.8-.907 1.513-.617 2.142-1.384 2.187-2.162A7.001 7.001 0 0142 36.07V33zm6 10a5 5 0 11-10 0 5 5 0 0110 0z" fill="#004AAD"/></svg>