<svg width="48" height="48" fill="none" xmlns="http://www.w3.org/2000/svg"><g clip-path="url(#clip0_594_336)" fill-rule="evenodd" clip-rule="evenodd" fill="#fff"><path d="M40 24c0 8.837-7.163 16-16 16-.089 0-.178 0-.266-.002a2 2 0 10-3.667-.485 16.035 16.035 0 01-10.994-9.74 2 2 0 10-.795-2.79A16.087 16.087 0 018 24a15.96 15.96 0 015.32-11.914 2 2 0 103.285-2.278A15.93 15.93 0 0124 8c3.107 0 6.007.885 8.461 2.418a1.5 1.5 0 102.359 1.795A15.958 15.958 0 0140 24zm-25.779-7.628a1 1 0 011.309-.22l4 2.5a1 1 0 010 1.696l-4 2.5a1 1 0 01-1.219-1.573c.982-.934 1.174-1.422 1.171-1.729-.002-.33-.225-.85-1.198-1.848a1 1 0 01-.063-1.326zm18.249-.22a1 1 0 011.246 1.546c-.973.998-1.196 1.518-1.198 1.848-.003.307.189.795 1.171 1.73a1 1 0 01-1.219 1.572l-4-2.5a1 1 0 010-1.696l4-2.5zM33.258 31c-1.72-3.562-5.22-6-9.258-6-4.038 0-7.538 2.438-9.258 6-.469.97.316 2 1.394 2h15.728c1.078 0 1.863-1.03 1.394-2zM24.5 14a1.5 1.5 0 100-3 1.5 1.5 0 000 3zm12 15a1.5 1.5 0 100-3 1.5 1.5 0 000 3z"/><path d="M48 0H0v48h48V0zm-6 24c0 9.941-8.059 18-18 18S6 33.941 6 24 14.059 6 24 6s18 8.059 18 18z"/></g><defs><clipPath id="clip0_594_336"><path fill="#fff" d="M0 0h48v48H0z"/></clipPath></defs></svg>