<svg width="40" height="40" fill="none" xmlns="http://www.w3.org/2000/svg"><g id="health_data_security"><path id="Vector" fill-rule="evenodd" clip-rule="evenodd" d="M16.667 3.333a2.5 2.5 0 00-2.5 2.5h-2.5a2.5 2.5 0 00-2.5 2.5v23.334a2.5 2.5 0 002.5 2.5h10V32.5h-10a.833.833 0 01-.833-.833V8.333c0-.46.373-.833.833-.833h2.5a2.5 2.5 0 002.5 2.5h6.667a2.5 2.5 0 002.5-2.5h2.5c.46 0 .833.373.833.833v12.5h1.667v-12.5a2.5 2.5 0 00-2.5-2.5h-2.5a2.5 2.5 0 00-2.5-2.5h-6.667zm-.833 2.5c0-.46.373-.833.833-.833h6.667c.46 0 .833.373.833.833V7.5c0 .46-.373.833-.833.833h-6.667a.833.833 0 01-.833-.833V5.833zm3.333 10v-2.5h1.667v2.5h2.5V17.5h-2.5V20h-1.667v-2.5h-2.5v-1.667h2.5zm3.333 7.5c0-.46.373-.833.834-.833h10c.46 0 .833.373.833.833v5.658c0 1.95-.975 3.772-2.598 4.853l-2.773 1.85a.833.833 0 01-.925 0l-2.773-1.85a5.834 5.834 0 01-2.598-4.853v-5.658zm1.667.834v4.824c0 1.393.696 2.694 1.855 3.467l2.312 1.54 2.31-1.54A4.167 4.167 0 0032.5 28.99v-4.824h-8.333zm3.923 6.422l3.333-3.333-1.179-1.178-2.744 2.744-1.077-1.078-1.179 1.179 1.667 1.666a.834.834 0 001.179 0z" fill="#004AAD"/></g></svg>