<svg width="35" height="35" fill="none" xmlns="http://www.w3.org/2000/svg"><path fill-rule="evenodd" clip-rule="evenodd" d="M17.5 26.25c.588 0 1.135.174 1.593.473l1.324-23.806.728.04.729-.04 1.324 23.806a2.917 2.917 0 11-1.323 2.466l-.163-2.93h-1.133l-.163 2.93A2.917 2.917 0 1117.5 26.25zm3.645-10.168l.486 8.718h-.97l.484-8.718zm0-2.203a.729.729 0 10.002-1.457.729.729 0 00-.002 1.457zM17.5 27.71a1.458 1.458 0 100 2.916 1.458 1.458 0 000-2.917zm5.833 1.458a1.458 1.458 0 112.917 0 1.458 1.458 0 01-2.917 0zM11.667 3.087l-1.104.663.375.625-.376-.625-.002.001-.002.001-.005.004-.014.008a1.674 1.674 0 00-.15.106 3.994 3.994 0 00-.354.305c-.283.272-.647.69-1.017 1.294-.741 1.212-1.489 3.152-1.68 6.149-.058.913.47 1.683 1.224 2.034-.334.33-.54.789-.54 1.296V30.26a1.823 1.823 0 103.645 0V14.948c0-.652-.342-1.223-.856-1.546.52-.4.856-1.028.856-1.735v-8.58zm-2.873 8.624c.172-2.708.825-4.394 1.415-5.392v5.348a.73.73 0 01-.73.729c-.414 0-.708-.331-.685-.685zm1.415 3.3v-.063a.365.365 0 00-.73 0v.792l.73-.73zm0 2.062v.854l-.73.73v-.855l.73-.73zm0 3.77v-.854l-.73.73v.854l.73-.73zm0 2.063v7.354a.365.365 0 01-.73 0v-6.625l.73-.729z" fill="#004AAD"/></svg>