<svg width="40" height="40" fill="none" xmlns="http://www.w3.org/2000/svg"><path d="M20.752 1.017h.862c-2.82 2.52-4.632 5.91-5.123 9.583-.49 3.672.374 7.393 2.44 10.516 2.067 3.124 5.206 5.452 8.873 6.58A17.079 17.079 0 0039 27.292c-1.373 3.176-3.616 5.934-6.49 7.98a20.224 20.224 0 01-9.833 3.638 20.448 20.448 0 01-10.38-1.74c-3.231-1.472-5.987-3.76-7.973-6.622a18.513 18.513 0 01-3.3-9.621 18.404 18.404 0 012.31-9.886C5.02 8.008 7.53 5.472 10.598 3.704A20.354 20.354 0 0120.752 1v.017z" stroke="#fff" stroke-width="2" stroke-linecap="round" stroke-linejoin="round"/></svg>