<svg width="19" height="44" fill="none" xmlns="http://www.w3.org/2000/svg"><path id="Vector" fill-rule="evenodd" clip-rule="evenodd" d="M18.414 1.289c.485.237.712.84.516 1.373l-3.838 10.4c1.19.562 1.908 1.29 1.908 2.087 0 .026 0 .052-.002.077H17v24.616c0 1.78-3.582 3.221-8 3.221s-8-1.442-8-3.22V15.225h.002A1.314 1.314 0 011 15.15c0-.85.82-1.625 2.16-2.2L.044 2.043C-.095 1.558.103 1.034.518.79a.953.953 0 011.237.236l.012.014.071.078c.069.072.178.18.325.304.296.249.736.554 1.304.776 1.088.424 2.762.59 4.987-.83 2.072-1.57 4.638-1.517 6.528-1.167a15.092 15.092 0 013.35 1.049l.057.026.017.008.005.002.003.002zM8.94 18.37c-2.253-.007-4.283-.388-5.727-.997H3V39.53c.172.148.504.361 1.045.58 1.17.47 2.922.806 4.955.806s3.784-.335 4.955-.807c.541-.218.873-.43 1.045-.58V17.374h-.214c-1.444.61-3.474.99-5.727.997H8.94zm5.702-16.052c-1.725-.32-3.64-.268-5.062.822a.982.982 0 01-.066.047C6.755 4.965 4.44 4.862 2.783 4.215l-.03-.012 3.097 10.84h6.36L16.698 2.88a13.181 13.181 0 00-2.055-.563zM2.898 39.429a.025.025 0 00-.003-.004v.001l.003.003z" fill="#004AAD"/></svg>