<svg width="48" height="48" fill="none" xmlns="http://www.w3.org/2000/svg"><g id="nose" clip-path="url(#clip0_102_942)"><path id="Vector" d="M48 0H0v48h48V0z" fill="#fff"/><path id="Vector_2" d="M30.405 5.085a1 1 0 01.512 1.319L30.002 6l.915.404-.006.012-.015.034a29.36 29.36 0 01-.277.609 95.508 95.508 0 01-3.844 7.379c-2.484 4.284-5.926 9.364-9.595 12.009l-.002.001c-3.857 2.768-4.602 5.802-3.979 7.99.642 2.252 2.8 3.935 5.446 3.935h.472c.306-1.067 1.104-2.098 2.462-2.73 1.539-.718 3.72-.896 6.649-.216a1 1 0 11-.452 1.948c-2.671-.62-4.357-.384-5.352.08-.543.253-.9.582-1.125.918h.575A4.627 4.627 0 0126.502 43h-2a2.627 2.627 0 00-2.628-2.627h-3.229c-3.504 0-6.473-2.242-7.37-5.387-.914-3.21.391-7.044 4.736-10.162 3.291-2.373 6.553-7.11 9.033-11.39a93.432 93.432 0 003.76-7.216 50.734 50.734 0 00.266-.583l.013-.03.004-.008a1 1 0 011.318-.512z" fill="#004AAD"/><path id="Vector_3" d="M32.529 39.849c1.41-.88 2.708-2.768 3.227-4.858.53-2.139.286-4.663-1.66-6.685l-1.44 1.387c1.354 1.408 1.568 3.169 1.159 4.816-.421 1.695-1.462 3.093-2.344 3.642l1.058 1.698z" fill="#004AAD"/></g><defs><clipPath id="clip0_102_942"><path fill="#fff" d="M0 0h48v48H0z"/></clipPath></defs></svg>