<svg width="48" height="48" fill="none" xmlns="http://www.w3.org/2000/svg"><g id="oral_contraception_pillsx28"><path id="Vector" fill-rule="evenodd" clip-rule="evenodd" d="M8.444 21.172l18.384 18.384a2 2 0 002.829 0l9.9-9.9a2 2 0 000-2.828L21.171 8.444a2 2 0 00-2.829 0l-9.9 9.9a2 2 0 000 2.828zm16.97 19.799a4 4 0 005.657 0l9.9-9.9a4 4 0 000-5.657L22.586 7.03a4 4 0 00-5.657 0l-9.9 9.9a4 4 0 000 5.657L25.414 40.97z" fill="#004AAD"/><path id="Vector_2" d="M28.596 36.374a.5.5 0 10-.707.707.5.5 0 00.707-.707z" stroke="#004AAD"/><path id="Vector_3" d="M25.768 33.546a.5.5 0 10-.707.707.5.5 0 00.707-.707z" stroke="#004AAD"/><path id="Vector_4" d="M22.94 30.717a.5.5 0 10-.708.707.5.5 0 00.707-.707z" stroke="#004AAD"/><path id="Vector_5" d="M20.11 27.889a.5.5 0 10-.706.707.5.5 0 00.707-.707z" stroke="#004AAD"/><path id="Vector_6" d="M17.283 25.06a.5.5 0 10-.707.708.5.5 0 00.707-.707z" stroke="#004AAD"/><path id="Vector_7" d="M14.454 22.232a.5.5 0 10-.707.707.5.5 0 00.707-.707z" stroke="#004AAD"/><path id="Vector_8" d="M11.626 19.404a.5.5 0 10-.707.707.5.5 0 00.707-.707z" stroke="#004AAD"/><path id="Vector_9" d="M31.425 33.545a.5.5 0 10-.707.708.5.5 0 00.707-.708z" stroke="#004AAD"/><path id="Vector_10" d="M28.596 30.717a.5.5 0 10-.707.707.5.5 0 00.707-.707z" stroke="#004AAD"/><path id="Vector_11" d="M25.768 27.889a.5.5 0 10-.707.707.5.5 0 00.707-.707z" stroke="#004AAD"/><path id="Vector_12" d="M22.94 25.06a.5.5 0 10-.707.707.5.5 0 00.707-.707z" stroke="#004AAD"/><path id="Vector_13" d="M20.111 22.232a.5.5 0 10-.707.707.5.5 0 00.707-.707z" stroke="#004AAD"/><path id="Vector_14" d="M17.283 19.403a.5.5 0 10-.707.708.5.5 0 00.707-.708z" stroke="#004AAD"/><path id="Vector_15" d="M14.454 16.575a.5.5 0 10-.707.707.5.5 0 00.707-.707z" stroke="#004AAD"/><path id="Vector_16" d="M34.254 30.717a.5.5 0 10-.708.707.5.5 0 00.708-.707z" stroke="#004AAD"/><path id="Vector_17" d="M31.425 27.888a.5.5 0 10-.707.708.5.5 0 00.707-.708z" stroke="#004AAD"/><path id="Vector_18" d="M28.597 25.06a.5.5 0 10-.707.707.5.5 0 00.707-.707z" stroke="#004AAD"/><path id="Vector_19" d="M25.768 22.232a.5.5 0 10-.707.707.5.5 0 00.707-.707z" stroke="#004AAD"/><path id="Vector_20" d="M22.94 19.403a.5.5 0 10-.707.707.5.5 0 00.707-.707z" stroke="#004AAD"/><path id="Vector_21" d="M20.111 16.575a.5.5 0 10-.707.707.5.5 0 00.707-.707z" stroke="#004AAD"/><path id="Vector_22" d="M17.283 13.746a.5.5 0 10-.707.708.5.5 0 00.707-.708z" stroke="#004AAD"/><path id="Vector_23" d="M37.082 27.888a.5.5 0 10-.707.708.5.5 0 00.707-.708z" fill="#004AAD" stroke="#004AAD"/><path id="Vector_24" d="M34.254 25.06a.5.5 0 10-.707.707.5.5 0 00.707-.707z" fill="#004AAD" stroke="#004AAD"/><path id="Vector_25" d="M31.425 22.232a.5.5 0 10-.707.706.5.5 0 00.707-.706z" fill="#004AAD" stroke="#004AAD"/><path id="Vector_26" d="M28.597 19.403a.5.5 0 10-.707.707.5.5 0 00.707-.707z" fill="#004AAD" stroke="#004AAD"/><path id="Vector_27" d="M25.769 16.575a.5.5 0 10-.707.707.5.5 0 00.707-.707z" fill="#004AAD" stroke="#004AAD"/><path id="Vector_28" d="M22.94 13.746a.5.5 0 10-.707.707.5.5 0 00.707-.707z" fill="#004AAD" stroke="#004AAD"/><path id="Vector_29" d="M20.112 10.918a.5.5 0 10-.707.707.5.5 0 00.707-.707z" fill="#004AAD" stroke="#004AAD"/></g></svg>