<svg width="48" height="48" fill="none" xmlns="http://www.w3.org/2000/svg"><g id="oral_contraception_pillsx21" fill="#004AAD"><path id="Vector" fill-rule="evenodd" clip-rule="evenodd" d="M29.656 8.442L8.443 29.656a2 2 0 000 2.828l7.07 7.071a2 2 0 002.83 0l21.213-21.213a2 2 0 000-2.828l-7.072-7.072a2 2 0 00-2.828 0zm-22.627 19.8a4 4 0 000 5.656l7.07 7.071a4 4 0 005.657 0L40.97 19.756a4 4 0 000-5.657l-7.071-7.07a4 4 0 00-5.657 0L7.029 28.24z"/><path id="Vector_2" d="M16.928 24.706a1.25 1.25 0 11-1.768 1.768 1.25 1.25 0 011.768-1.768z"/><path id="Vector_3" d="M19.403 22.231A1.25 1.25 0 1117.636 24a1.25 1.25 0 011.767-1.768z"/><path id="Vector_4" d="M21.878 19.756a1.25 1.25 0 11-1.769 1.768 1.25 1.25 0 011.768-1.768z"/><path id="Vector_5" d="M24.353 17.281a1.25 1.25 0 11-1.768 1.768 1.25 1.25 0 011.768-1.768z"/><path id="Vector_6" d="M26.827 14.806a1.25 1.25 0 11-1.767 1.768 1.25 1.25 0 011.767-1.768z"/><path id="Vector_7" d="M29.302 12.332a1.25 1.25 0 11-1.767 1.767 1.25 1.25 0 011.767-1.768z"/><path id="Vector_8" d="M32.484 15.514a1.25 1.25 0 11-1.768 1.767 1.25 1.25 0 011.768-1.767z"/><path id="Vector_9" d="M14.453 27.18a1.25 1.25 0 11-1.768 1.769 1.25 1.25 0 011.768-1.768z"/><path id="Vector_10" d="M11.625 30.01l-.53 2.297-1.768-1.767 2.298-.53z"/><path id="Vector_11" d="M23.292 31.07a1.25 1.25 0 11-1.768 1.768 1.25 1.25 0 011.768-1.768z"/><path id="Vector_12" d="M25.767 28.595a1.25 1.25 0 11-1.768 1.768 1.25 1.25 0 011.768-1.768z"/><path id="Vector_13" d="M28.242 26.12a1.25 1.25 0 11-1.768 1.768 1.25 1.25 0 011.768-1.768z"/><path id="Vector_14" d="M30.716 23.645a1.25 1.25 0 11-1.767 1.768 1.25 1.25 0 011.767-1.768z"/><path id="Vector_15" d="M33.191 21.17a1.25 1.25 0 11-1.767 1.768 1.25 1.25 0 011.767-1.768z"/><path id="Vector_16" d="M35.666 18.695a1.25 1.25 0 11-1.768 1.768 1.25 1.25 0 011.768-1.768z"/><path id="Vector_17" d="M31.777 9.857a1.25 1.25 0 11-1.768 1.767 1.25 1.25 0 011.768-1.767z"/><path id="Vector_18" d="M38.141 16.22a1.25 1.25 0 11-1.767 1.768 1.25 1.25 0 011.767-1.767z"/><path id="Vector_19" d="M34.96 13.039a1.25 1.25 0 11-1.769 1.768 1.25 1.25 0 011.768-1.768z"/><path id="Vector_20" d="M20.817 33.545a1.25 1.25 0 11-1.767 1.768 1.25 1.25 0 011.767-1.768z"/><path id="Vector_21" d="M18.342 36.02a1.25 1.25 0 11-1.768 1.767 1.25 1.25 0 011.768-1.767z"/><path id="Vector_22" d="M15.16 32.838a1.25 1.25 0 11-1.768 1.767 1.25 1.25 0 011.768-1.767z"/><path id="Vector_23" d="M17.635 30.363a1.25 1.25 0 11-1.768 1.767 1.25 1.25 0 011.768-1.767z"/></g></svg>