<svg width="48" height="48" fill="none" xmlns="http://www.w3.org/2000/svg"><path fill-rule="evenodd" clip-rule="evenodd" d="M26.828 8.444a9 9 0 0112.728 12.728L21.172 39.557A9 9 0 018.444 26.829L26.828 8.444zm11.314 1.414a7 7 0 00-9.9 0L9.859 28.243a7 7 0 109.9 9.9l18.384-18.385a7 7 0 000-9.9z" fill="#004AAD"/><path fill-rule="evenodd" clip-rule="evenodd" d="M24 16.929a2 2 0 012.828 0l4.243 4.243a2 2 0 010 2.828l-7.07 7.071a2 2 0 01-2.83 0l-4.242-4.243a2 2 0 010-2.828L24 16.929zm5.657 5.657l-4.243-4.243-7.07 7.071 4.242 4.243 7.07-7.071z" fill="#004AAD"/><path d="M33.121 16.121a1 1 0 11-1.414-1.413 1 1 0 011.414 1.413zm1-4a1 1 0 11-1.414-1.413 1 1 0 011.414 1.413zm-4 1a1 1 0 11-1.414-1.413 1 1 0 011.414 1.413zm6 6a1 1 0 11-1.414-1.413 1 1 0 011.414 1.413zm1-4a1 1 0 11-1.414-1.413 1 1 0 011.414 1.413zM14.707 31.707a1 1 0 111.414 1.415 1 1 0 01-1.414-1.415zm-1 4a1 1 0 111.414 1.415 1 1 0 01-1.414-1.415zm4-1a1 1 0 111.414 1.415 1 1 0 01-1.414-1.415zm-6-6a1 1 0 111.414 1.415 1 1 0 01-1.414-1.415zm-1 4a1 1 0 111.414 1.415 1 1 0 01-1.414-1.415z" fill="#004AAD"/></svg>