<svg width="48" height="48" fill="none" xmlns="http://www.w3.org/2000/svg"><g id="ppe-mask" fill="#004AAD"><path id="Vector" d="M30.243 20.03L24 18.47l-6.242 1.56a1 1 0 10.485 1.94L24 20.53l5.758 1.44a1 1 0 00.485-1.94z"/><path id="Vector_2" fill-rule="evenodd" clip-rule="evenodd" d="M9 16.868c0-4.226 11.16-4.226 11.16-4.226l.9-1.616A2 2 0 0122.809 10h2.559a2 2 0 011.747 1.026l.9 1.616S39 12.642 39 16.867v.167l1.73.42a4 4 0 013.042 4.235l-.554 6.35a4 4 0 01-2.688 3.435l-7.09 2.431C29.343 38 24.483 38 24.483 38h-.968s-4.866 0-8.963-4.1L7.36 31.102a4 4 0 01-2.532-3.348l-.573-6.021a4 4 0 013.114-4.284L9 17.087v-.219zm.058 2.255l-1.254.278a2 2 0 00-1.557 2.142l.573 6.021a2 2 0 001.266 1.674l4.096 1.593c-1.627-2.73-2.85-6.501-3.124-11.708zm26.648 11.892l4.176-1.431a2 2 0 001.344-1.719l.554-6.35a2 2 0 00-1.521-2.117l-1.315-.319c-.276 5.348-1.55 9.184-3.238 11.936zM22.803 12.011c-.125.221-.24.435-.35.638-.633 1.176-1.076 1.998-2.275 1.998-5.942 0-8.988 1.573-8.988 2.145 0 16.445 8.973 19.027 12.592 19.198a2.39 2.39 0 00.308.01h.09c.075 0 .147-.003.218-.01 3.619-.17 12.592-2.753 12.592-19.198 0-.572-3.046-2.145-8.988-2.145-1.2 0-1.642-.822-2.275-1.998-.11-.203-.225-.417-.35-.638h-2.574z"/></g></svg>