<svg width="48" height="48" fill="none" xmlns="http://www.w3.org/2000/svg"><path fill-rule="evenodd" clip-rule="evenodd" d="M23.706 11.044a.999.999 0 01.588 0l13 4A1 1 0 0138 16v1h1a5 5 0 015 5v4a5 5 0 01-5 5h-2.456a8.99 8.99 0 01-4.897 3.693l-7.353 2.263a1.001 1.001 0 01-.588 0l-7.353-2.263A8.99 8.99 0 0111.456 31H9a5 5 0 01-5-5v-4a5 5 0 015-5h1v-1a1 1 0 01.706-.956l13-4zM10 19H9a3 3 0 00-3 3v4a3 3 0 003 3h1.482A8.985 8.985 0 0110 26.091V19zm28 7.091V19h1a3 3 0 013 3v4a3 3 0 01-3 3h-1.482A8.985 8.985 0 0038 26.091zM12 16.74v9.352a7 7 0 004.941 6.69L24 34.955l7.059-2.172A7 7 0 0036 26.092v-9.353l-12-3.693-12 3.693zM18 21v-2h12v2H18zm0 6h12v-2H18v2z" fill="#004AAD"/></svg>