<svg width="82" height="82" fill="none" xmlns="http://www.w3.org/2000/svg"><path d="M76 1H6a5 5 0 00-5 5v70a5 5 0 005 5h70a5 5 0 005-5V6a5 5 0 00-5-5z" stroke="#004AAD" stroke-width="1.5" stroke-miterlimit="10"/><g clip-path="url(#clip0_228_152)"><path d="M67 17H19v48h48V17z" fill="#fff"/><path fill-rule="evenodd" clip-rule="evenodd" d="M33 23a2 2 0 00-2 2v7.1a5.002 5.002 0 00-4 4.9v17a5 5 0 005 5h12a5.001 5.001 0 004.584-3h-2.348c-.55.614-1.347 1-2.236 1H32a3 3 0 01-3-3v-1h10a1 1 0 100-2H29v-9h8a1 1 0 100-2h-8v-3a3 3 0 013-3h12a2.99 2.99 0 012.236 1h2.348A5.01 5.01 0 0045 32.1V25a2 2 0 00-2-2H33zm10 2H33v7h10v-7z" fill="#004AAD"/><path d="M50 41a1 1 0 011 1v2h2a1 1 0 110 2h-2v2a1 1 0 11-2 0v-2h-2a1 1 0 110-2h2v-2a1 1 0 011-1z" fill="#004AAD"/><path fill-rule="evenodd" clip-rule="evenodd" d="M42.66 50.689A12.122 12.122 0 0049.5 55a12.122 12.122 0 006.84-4.31A12.35 12.35 0 0059 42.997V39.4a2.41 2.41 0 00-.696-1.697A2.362 2.362 0 0056.627 37H42.374c-.63 0-1.233.253-1.678.703A2.413 2.413 0 0040 39.4v3.598a12.35 12.35 0 002.66 7.69zM57 42.999v.004a10.352 10.352 0 01-2.228 6.445 10.13 10.13 0 01-5.273 3.492 10.13 10.13 0 01-5.271-3.492A10.35 10.35 0 0142 43.002V39.4c0-.113.045-.217.117-.29a.361.361 0 01.257-.11h14.252c.092 0 .185.037.257.11a.413.413 0 01.117.29v3.598z" fill="#004AAD"/></g><defs><clipPath id="clip0_228_152"><path fill="#fff" transform="translate(19 17)" d="M0 0h48v48H0z"/></clipPath></defs></svg>