<svg width="48" height="48" fill="none" xmlns="http://www.w3.org/2000/svg"><g id="factory_worker" fill-rule="evenodd" clip-rule="evenodd" fill="#004AAD"><path id="Vector" d="M21.058 8.52c-2.698.984-4.814 3.285-5.659 6.174C13.898 15.464 13 16.44 13 17.5c0 1.198 1.144 2.287 3.01 3.093a8 8 0 1015.98 0C33.856 19.787 35 18.698 35 17.5c0-1.061-.898-2.036-2.4-2.806-.845-2.89-2.96-5.19-5.658-6.175A2 2 0 0025 7h-2a2 2 0 00-1.942 1.52zM22 13a1 1 0 001-1V9h2v3a1 1 0 102 0v-1.278c1.587.81 2.868 2.253 3.525 4.056a.947.947 0 00-.008.035 1.388 1.388 0 01-.157.107c-.286.17-.758.356-1.412.526-1.293.337-3.081.554-4.948.554-1.867 0-3.655-.217-4.948-.554-.654-.17-1.126-.356-1.412-.526a1.388 1.388 0 01-.157-.107l-.002-.009a.733.733 0 00-.006-.026c.657-1.803 1.938-3.247 3.525-4.056V12a1 1 0 001 1zm-5.656 3.458l-.033.016c-.607.311-.974.607-1.167.828a.84.84 0 00-.138.198c.021.048.082.152.249.314.313.303.871.668 1.724 1.017C18.675 19.525 21.157 20 24 20s5.325-.475 7.02-1.17c.854-.348 1.412-.713 1.725-1.016.167-.162.228-.266.249-.314a.84.84 0 00-.138-.198c-.193-.221-.56-.517-1.167-.828l-.033-.016a3.44 3.44 0 01-.272.18c-.517.308-1.195.552-1.933.744C27.961 17.77 26 18 24 18c-2 0-3.961-.23-5.451-.618-.738-.192-1.416-.436-1.933-.745a3.44 3.44 0 01-.272-.18zm16.66 1.07L33 17.52l.002.01zm0-.058s-.002.003-.003.01l.002-.008v-.003zm-18.006.006l-.001-.006.002.01v-.004zm0 .048v-.005.003l-.001.006.001-.004zm14.996 3.75C28.27 21.734 26.21 22 24 22s-4.27-.267-5.994-.726a6 6 0 0011.988 0z"/><path id="Vector_2" d="M34.685 26.594a1 1 0 00-1.274-1.251A6.502 6.502 0 0032 36.978V41a1 1 0 001 1h5a1 1 0 001-1v-4.022a6.502 6.502 0 00-1.411-11.635 1 1 0 00-1.274 1.251.857.857 0 01.022.082l.557 2.6a1.425 1.425 0 11-2.788 0l.557-2.6a.857.857 0 01.022-.082zm4.164 2.263l-.1-.472a4.5 4.5 0 01-1.205 7.125 1 1 0 00-.545.93l.001.06V40h-3v-3.508l.001-.052a1 1 0 00-.544-.93 4.5 4.5 0 01-1.205-7.125l-.101.472a3.425 3.425 0 106.698 0z"/><path id="Vector_3" d="M18.353 28.608L23 32.222v3.675c.205.053.525.103 1 .103s.795-.05 1-.103V32l2-1.5V42H6v-6c0-3.661 6.52-6.273 12.353-7.392zm-3.878 7.66L21 35.181V40h-8v-7.82a30.684 30.684 0 013.35-1.071l-1.875 5.158zM8 40h3v-6.92l-.074.04c-1.064.563-1.842 1.138-2.332 1.68-.48.53-.594.923-.594 1.201v4zm16-2c-.378 0-.71-.025-1-.067V40h2v-2.067c-.29.042-.622.067-1 .067zm-3.05-4.839l-2.508-1.95-.917 2.521 3.425-.57z"/></g></svg>