<svg width="32" height="45" fill="none" xmlns="http://www.w3.org/2000/svg"><path id="Vector" d="M4.75 27.244V12.929c0-1.898.593-3.719 1.648-5.061 1.054-1.342 2.485-2.096 3.977-2.096s2.923.754 3.977 2.096C15.407 9.21 16 11.03 16 12.928v19.087c0 1.898.593 3.719 1.648 5.061 1.054 1.343 2.485 2.096 3.977 2.096s2.923-.753 3.977-2.096c1.055-1.342 1.648-3.163 1.648-5.06V17.7m-22.5 9.543c-.995 0-1.948.502-2.652 1.397C1.395 29.536 1 30.75 1 32.015v7.157c0 1.266.395 2.48 1.098 3.375.704.894 1.657 1.397 2.652 1.397.995 0 1.948-.503 2.652-1.398.703-.894 1.098-2.108 1.098-3.373v-7.158c0-1.265-.395-2.479-1.098-3.374-.704-.895-1.657-1.397-2.652-1.397zm22.5-9.543c.995 0 1.948-.503 2.652-1.398.703-.895 1.098-2.109 1.098-3.374V5.772c0-1.266-.395-2.48-1.098-3.374C29.198 1.503 28.245 1 27.25 1c-.995 0-1.948.503-2.652 1.398-.703.894-1.098 2.108-1.098 3.374v7.157c0 1.265.395 2.48 1.098 3.374.704.895 1.657 1.398 2.652 1.398z" stroke="#004AAD" stroke-width="2" stroke-linecap="round" stroke-linejoin="round"/></svg>