<svg width="40" height="40" fill="none" xmlns="http://www.w3.org/2000/svg"><path d="M15.623 10.68c-1.45.056-2.76.574-3.461 1.274a.833.833 0 11-1.179-1.178c1.081-1.081 2.84-1.694 4.575-1.762 1.746-.068 3.652.41 4.987 1.745a.833.833 0 01-1.179 1.179c-.91-.91-2.304-1.314-3.743-1.258z" fill="#fff"/><path fill-rule="evenodd" clip-rule="evenodd" d="M22.82 24.113a10.79 10.79 0 01-6.987 2.554C9.85 26.667 5 21.817 5 15.833 5 9.85 9.85 5 15.833 5c5.983 0 10.834 4.85 10.834 10.833 0 2.663-.96 5.1-2.554 6.987l1.84-.32 8.57 8.57a1.628 1.628 0 010 2.302l-1.151 1.151a1.628 1.628 0 01-2.302 0l-8.57-8.57.32-1.84zm2.18-8.28a9.167 9.167 0 11-18.333 0 9.167 9.167 0 0118.333 0zm6.04 14.111l-5.653-5.654-.934.163-.163.934 5.67 5.67 1.08-1.113zm.1 2.292l1.08 1.081 1.097-1.096-1.098-1.098-1.08 1.113z" fill="#fff"/></svg>