<svg width="48" height="48" fill="none" xmlns="http://www.w3.org/2000/svg"><path fill-rule="evenodd" clip-rule="evenodd" d="M48 0H0v48h48V0zm-8 24c0 8.837-7.163 16-16 16S8 32.837 8 24 15.163 8 24 8s16 7.163 16 16zm2 0c0 9.941-8.059 18-18 18S6 33.941 6 24 14.059 6 24 6s18 8.059 18 18zm-12.567 7.544C28.345 30.026 26.271 29 23.893 29c-2.469 0-4.608 1.104-5.66 2.717-.453.696-.886 2.802.767 2.283 4.813-1.6 5.28-1.542 10 0 1.317.472 1.07-1.424.674-2.115-.048-.083-.106-.16-.164-.238l-.077-.103zM13.631 21.35c-.119.738.381 1.445 1.065 1.883.713.457 1.73.707 2.93.53a3.794 3.794 0 002.653-1.665c.504-.764.712-1.693.48-2.382a.5.5 0 00-.818-.203c-1.796 1.704-3.824 2.123-5.642 1.448a.5.5 0 00-.668.39zm20.076 0c.119.738-.382 1.445-1.065 1.883-.713.457-1.73.707-2.93.53a3.794 3.794 0 01-2.653-1.665c-.504-.764-.712-1.693-.48-2.382a.5.5 0 01.818-.203c1.796 1.704 3.824 2.123 5.642 1.448a.5.5 0 01.668.39z" fill="#fff"/></svg>