<svg width="82" height="82" fill="none" xmlns="http://www.w3.org/2000/svg"><g clip-path="url(#clip0_74_565)" fill="#004AAD"><path d="M34.638 33C27.655 33 23 39.118 23 42.176c.604.043 1.552 0 1.552 0s2.273-3.823 7.758-3.823c3.166 0 5.936 1.283 7.132 3.21.573.923-.494 1.742-1.559 1.477-2.748-.684-7.614-1.387-11.78.666v3.059c2.888-1.626 6.652-1.307 9.545-.652 2.763.626 4.42 3.21 4.42 6.005V59h4.007V44.7c0-4.111 1.531-5.1 4.356-7.172a1.387 1.387 0 00.417-1.751c-.473-.934-1.812-1.07-2.705-.51a6.385 6.385 0 01-3.44.983c-1.858 0-3.681-3.25-8.065-3.25z"/><path fill-rule="evenodd" clip-rule="evenodd" d="M35.286 52.75c0-1.519-1.407-2.75-3.143-2.75H29c-.494 0-.758-.087-.887-.145a.895.895 0 01-.334-.259c-.105-.128-.2-.3-.265-.502a1.626 1.626 0 01-.085-.469V44.5c0-1.395-1.195-2.57-2.78-2.731l-.363 2.731v4.125c0 1.375.942 4.125 4.714 4.125h3.143V61h22V50.09c0-2.647 1.568-5.05 3.548-7.051 1.567-1.584 2.784-3.392 3.49-5.326 1.177-3.224 1.083-6.665-.27-9.843-1.352-3.178-3.895-5.934-7.274-7.883-3.378-1.949-7.423-2.993-11.57-2.987-4.285.027-8.447 1.162-11.88 3.24-3.434 2.079-5.96 4.991-7.21 8.314-.403 1.236-.851 4.87-.851 4.87-.717 1.562-1.479 3.087-2.24 4.614l-1.076 2.216a5.306 5.306 0 00-.807 1.926c-.029.447.147.888.494 1.237.348.349.842.581 1.388.652.18 0 4.4.431 4.4.431l.365-2.731-.665-.068a1560.108 1560.108 0 00-2.354-.236c.026-.045.05-.09.072-.136l1.069-2.204.002-.004c.756-1.515 1.534-3.072 2.268-4.673.107-.234.178-.48.209-.73v-.001l.004-.035.014-.11a83.998 83.998 0 01.247-1.755c.163-1.072.343-2.045.469-2.462 1.034-2.704 3.113-5.112 5.99-6.853 2.898-1.754 6.438-2.727 10.106-2.752 3.543-.004 6.978.89 9.826 2.533 2.848 1.643 4.95 3.94 6.06 6.547 1.107 2.602 1.183 5.41.22 8.046-.561 1.538-1.548 3.025-2.872 4.363C53.12 43.458 51 46.486 51 50.089v8.161H35.286v-5.5z"/></g><path d="M76 1H6a5 5 0 00-5 5v70a5 5 0 005 5h70a5 5 0 005-5V6a5 5 0 00-5-5z" stroke="#004AAD" stroke-width="1.5" stroke-miterlimit="10"/><defs><clipPath id="clip0_74_565"><path fill="#fff" transform="translate(18 17)" d="M0 0h44v44H0z"/></clipPath></defs></svg>