<svg width="48" height="48" fill="none" xmlns="http://www.w3.org/2000/svg"><path fill-rule="evenodd" clip-rule="evenodd" d="M37 11a1 1 0 011-1 5 5 0 015 5v1.59a4.4 4.4 0 01-1.644 3.436A5.994 5.994 0 0144 25v3a1 1 0 11-2 0v-3a4 4 0 00-4-4 1 1 0 110-2h.59A2.41 2.41 0 0041 16.59V15a3 3 0 00-3-3 1 1 0 01-1-1zm-3 6a3 3 0 00-3 3v1.818a3 3 0 003 3h3a3 3 0 013 3V28a1 1 0 11-2 0v-.182a1 1 0 00-1-1h-3a5 5 0 01-5-5V20a5 5 0 015-5 1 1 0 110 2zM7 30a3 3 0 00-3 3v2a3 3 0 003 3h26a3 3 0 003-3v-2a3 3 0 00-3-3H7zm-1 3a1 1 0 011-1h26a1 1 0 011 1v2a1 1 0 01-1 1H7a1 1 0 01-1-1v-2zm34-1a1 1 0 10-2 0v4a1 1 0 102 0v-4zm4 0a1 1 0 10-2 0v4a1 1 0 102 0v-4z" fill="#004AAD"/></svg>