<svg width="82" height="82" fill="none" xmlns="http://www.w3.org/2000/svg"><path d="M76 1H6a5 5 0 00-5 5v70a5 5 0 005 5h70a5 5 0 005-5V6a5 5 0 00-5-5z" stroke="#004AAD" stroke-miterlimit="10"/><g clip-path="url(#clip0_658_306)" fill="#004AAD"><path d="M48.213 53.729a.421.421 0 00-.514.3c-1.215 4.62-3.338 6.772-6.68 6.772a.42.42 0 000 .842c1.982 0 3.629-.695 4.896-2.066 1.123-1.215 1.973-2.96 2.598-5.334a.42.42 0 00-.3-.514zM41 54.052a.42.42 0 00.422-.42V50.35a.42.42 0 00-.842 0v3.282c0 .232.189.42.42.42z"/><path d="M53.636 37.046c-.182-1.116-.698-2.173-1.515-3.067-1.29-1.412-3.21-2.255-5.136-2.255a6.712 6.712 0 00-5.984 3.642 6.674 6.674 0 00-5.947-3.642c-1.926 0-3.846.843-5.137 2.255-.81.887-1.325 1.934-1.51 3.041-2.864-1.307-6.04-3.286-8.888-5.076 3.047.452 8.845.882 14.542-1.04 2.315-.781 4.656-1.177 6.96-1.177 2.303 0 4.644.396 6.959 1.177 3.24 1.093 6.51 1.426 9.288 1.426 2.114 0 3.941-.193 5.254-.388-2.858 1.808-6.104 3.767-8.886 5.104zm8.263-5.871c-1.16-.067-2.424-.499-3.512-1.17-3.794-2.342-6.608-4.304-9.41-6.561-1.546-1.214-3.37-1.316-4.766-.27-.382.273-.746.56-1.098.836-.697.548-1.358 1.068-2.124 1.456-.766-.388-1.427-.908-2.124-1.456a29.755 29.755 0 00-1.098-.835c-1.396-1.047-3.22-.945-4.766.269-2.802 2.257-5.616 4.219-9.41 6.56-1.088.672-2.351 1.132-3.512 1.17-1.567.053-2.507-.445-2.535-.452a.421.421 0 00-.486.617c1.686 2.875 3.858 5.33 5.942 7.605 1.131 1.197 3.411 3.33 6.118 4.35.946 4.813 2.39 10.493 2.503 10.934.506 2.63 1.573 4.885 3.086 6.524 1.687 1.827 3.87 2.792 6.313 2.792 2.48 0 4.54-.869 6.126-2.583 1.412-1.527 2.481-3.725 3.27-6.72.084-.333 1.555-6.105 2.511-10.977 1.185-.426 2.367-1.131 3.706-2.21 2.996-2.415 5.79-5.68 8.303-9.705a.42.42 0 00-.462-.629c-1.254.564-1.923.493-2.575.455zm-2.457.242c-3.067.183-7.217.031-11.193-1.31-2.402-.81-4.834-1.221-7.229-1.221-2.395 0-4.826.41-7.228 1.22-4.063 1.371-8.182 1.51-11.257 1.313a7.628 7.628 0 001.498-.698c3.825-2.362 6.665-4.342 9.492-6.619.467-.367 2.116-1.47 3.745-.248.373.267.73.547 1.074.818.793.623 1.542 1.212 2.478 1.649.12.055.215.058.333 0 .925-.46 1.685-1.026 2.478-1.65.344-.27.7-.55 1.075-.817 1.628-1.221 3.278-.119 3.744.248 2.827 2.277 5.667 4.258 9.492 6.619a7.57 7.57 0 001.498.696zM23.616 38.37c-1.662-1.812-3.382-3.744-4.85-5.905l.041.026c3.027 1.901 6.447 4.049 9.521 5.416-.001.186.005.373.022.56.092 1.023.305 2.369.579 3.842-2.337-1.02-4.305-2.872-5.313-3.939zM49.6 54.03c-1.556 5.918-4.283 8.674-8.58 8.674-5.1 0-7.774-4.467-8.575-8.646a.43.43 0 00-.006-.025l-.094-.373h1.85a.42.42 0 000-.841h-2.06c-.632-2.56-2.085-8.601-2.705-12.555h4.666a.42.42 0 000-.841h-4.79c-.05-.372-.09-.718-.118-1.03-.125-1.39.354-2.755 1.35-3.846a6.21 6.21 0 014.516-1.981 5.84 5.84 0 015.526 3.959v9.23a.42.42 0 10.841 0v-9.23a5.867 5.867 0 015.564-3.959 6.21 6.21 0 014.515 1.981c.996 1.09 1.476 2.456 1.35 3.845-.146 1.628-.615 4.138-1.154 6.673h-4.632a.42.42 0 000 .842h4.452a179.6 179.6 0 01-.355 1.6H48.79a.42.42 0 000 .841h2.18a268.76 268.76 0 01-1.369 5.682zm6.505-13.63c-1.083.872-2.049 1.483-2.991 1.887.272-1.464.483-2.8.575-3.82a5.38 5.38 0 00.021-.523c2.942-1.385 6.426-3.492 9.448-5.408-2.178 3.201-4.545 5.842-7.053 7.864z"/></g><defs><clipPath id="clip0_658_306"><path fill="#fff" transform="translate(17 19)" d="M0 0h48v48H0z"/></clipPath></defs></svg>