<svg width="82" height="82" fill="none" xmlns="http://www.w3.org/2000/svg"><path d="M76 1H6a5 5 0 00-5 5v70a5 5 0 005 5h70a5 5 0 005-5V6a5 5 0 00-5-5z" stroke="#004AAD" stroke-width="1.5" stroke-miterlimit="10"/><path fill-rule="evenodd" clip-rule="evenodd" d="M44 57a3.98 3.98 0 012.185.649L48 25l.999.056.998-.056 1.817 32.649A4 4 0 1150 61.03l-.224-4.018h-1.553L48 61.03A4 4 0 1144 57zm5-13.944l.665 11.956h-1.33L49 43.056zm0-3.021a1 1 0 10.001-1.999A1 1 0 0049 40.035zM44 59a2 2 0 100 4 2 2 0 000-4zm8 2a2 2 0 114 0 2 2 0 01-4 0zM36 25.234l-1.515.909L35 27l-.516-.857-.002.001-.003.002-.007.005-.019.011a2.754 2.754 0 00-.205.145 5.473 5.473 0 00-.486.418c-.389.374-.888.946-1.395 1.775-1.016 1.663-2.042 4.323-2.303 8.433-.08 1.253.645 2.309 1.678 2.79A2.493 2.493 0 0031 41.5v21a2.5 2.5 0 005 0v-21c0-.894-.469-1.678-1.174-2.12A2.995 2.995 0 0036 37V25.234zM32.06 37.06c.236-3.714 1.132-6.025 1.94-7.394V37a1 1 0 01-1 1c-.569 0-.971-.454-.94-.94zM34 41.586V41.5a.5.5 0 00-1 0v1.086l1-1zm0 2.828v1.172l-1 1v-1.172l1-1zm0 5.172v-1.172l-1 1v1.172l1-1zm0 2.828V62.5a.5.5 0 01-1 0v-9.086l1-1z" fill="#004AAD"/></svg>