<svg width="44" height="44" fill="none" xmlns="http://www.w3.org/2000/svg"><path fill-rule="evenodd" clip-rule="evenodd" d="M22 33c.739 0 1.427.219 2.003.595l1.665-29.928.915.05.915-.05 1.665 29.928a3.667 3.667 0 11-1.664 3.1l-.204-3.684H25.87l-.205 3.683A3.667 3.667 0 1122 33zm4.583-12.782l.61 10.96h-1.22l.61-10.96zm0-2.77a.916.916 0 10.001-1.831.916.916 0 00-.001 1.832zM22 34.834a1.833 1.833 0 100 3.667 1.833 1.833 0 000-3.667zm7.333 1.834a1.833 1.833 0 113.667 0 1.833 1.833 0 01-3.667 0zM14.667 3.881l-1.389.833.472.786c-.472-.786-.473-.785-.473-.785h-.001l-.003.002-.007.005-.017.01a2.209 2.209 0 00-.188.133 5.018 5.018 0 00-.445.383 8.13 8.13 0 00-1.28 1.628c-.931 1.523-1.871 3.962-2.11 7.73-.074 1.148.59 2.115 1.538 2.556-.42.415-.68.992-.68 1.63v19.25a2.292 2.292 0 004.583 0v-19.25c0-.82-.43-1.538-1.076-1.943a2.745 2.745 0 001.076-2.182V3.88zm-3.612 10.841c.216-3.404 1.038-5.523 1.779-6.778v6.723c0 .506-.41.916-.917.916-.521 0-.89-.416-.862-.86zm1.779 4.148v-.078a.458.458 0 00-.917 0v.995l.917-.917zm0 2.593v1.074l-.917.917V22.38l.917-.917zm0 4.74V25.13l-.917.917v1.073l.917-.916zm0 2.594v9.245a.458.458 0 01-.917 0v-8.329l.917-.916z" fill="#004AAD"/></svg>