<svg width="82" height="82" fill="none" xmlns="http://www.w3.org/2000/svg"><path d="M76 1H6a5 5 0 00-5 5v70a5 5 0 005 5h70a5 5 0 005-5V6a5 5 0 00-5-5z" stroke="#004AAD" stroke-miterlimit="10"/><path d="M63.86 43.855a.42.42 0 00-.069-.23l-.095-.178c-.597-1.156-1.468-3.38-2.477-5.955-2.72-6.943-6.446-16.451-10.012-19.04C50.194 17.719 49.103 17 47.884 17a3.04 3.04 0 00-1.015.175c-1.297.392-2.512 1.242-3.687 2.065-.692.484-1.349.944-2.015 1.313-.748-.385-1.27-.876-1.867-1.439-.443-.417-.901-.849-1.486-1.266a3.78 3.78 0 00-2.31-.785c-.98 0-2.038.36-3.145 1.072-4.329 2.781-9.459 14.736-12.524 21.88a176.833 176.833 0 01-1.657 3.79.42.42 0 00-.026.272l-.001.002c.05.215 1.291 5.339 4.72 10.52 2.022 3.054 4.385 5.48 7.024 7.21 3.232 2.118 6.881 3.19 10.853 3.19l.288-.001c4.08.053 7.828-1.027 11.13-3.21 2.633-1.74 4.988-4.182 6.998-7.255 3.354-5.126 4.591-10.196 4.679-10.568a.417.417 0 00.016-.11zm-31.15 3.524c-.033-.052-3.183-5.02-2.522-8.84 1.056.73 5.328 4.046 4.843 9.61-.77-.276-1.54-.515-2.296-.722-.008-.016-.014-.033-.024-.048zm6.396-1.826c.409.608 1.092.962 2.032 1.05a.431.431 0 00.078 0c.936-.088 1.614-.44 2.016-1.044.869-1.308.206-3.418-.327-5.113-.176-.56-.343-1.09-.404-1.456-.176-1.056.429-2.812 1.712-3.81 1.248-.97 2.878-1.054 4.712-.246 1.36.599 2.27 1.522 2.708 2.746-.228.141-1.633 1.049-2.974 2.71-1.907 2.363-2.758 5.13-2.462 8.005a.42.42 0 00.153.283 28.992 28.992 0 00-5.155 2.74c-1.633-1.264-3.48-2.228-5.35-2.964.004-.02.01-.038.011-.059.296-2.874-.555-5.642-2.462-8.005-1.358-1.681-2.78-2.59-2.981-2.715.44-1.221 1.348-2.143 2.706-2.741 2.369-1.044 3.963-.411 4.883.304 1.308 1.016 1.935 2.738 1.767 3.751-.06.357-.209.847-.381 1.413-.52 1.707-1.167 3.831-.282 5.15zm10.228 1.826a.42.42 0 00-.066.247c-.73.227-1.477.485-2.233.778a.42.42 0 00.002-.095c-.276-2.676.485-5.154 2.261-7.366a12.547 12.547 0 012.56-2.399c.657 3.82-2.49 8.782-2.524 8.835zm-8.58 4.769v2.538a.422.422 0 00.845 0v-2.52c4.488-3.05 9.593-4.38 13.106-4.956a39.325 39.325 0 016.047-.53 29.992 29.992 0 01-3.223 3.144c-3.352 2.808-8.936 6.155-16.497 6.155-7.562 0-13.165-3.314-16.533-6.093a30.133 30.133 0 01-3.153-3.017c2.72-.034 12.934.202 19.409 5.279zm20.708-6.304c-.237-.01-3.01-.103-6.872.53a39.826 39.826 0 00-4.224.927c.89-1.542 3.221-6.08 2.153-9.63-.478-1.588-1.572-2.769-3.253-3.51-2.699-1.189-4.519-.464-5.57.353-1.55 1.204-2.248 3.291-2.028 4.614.07.424.238.956.431 1.571.454 1.444 1.076 3.42.43 4.393-.252.38-.695.598-1.352.666-.663-.069-1.11-.29-1.37-.676-.661-.986-.055-2.979.388-4.434.181-.595.338-1.108.406-1.52.21-1.262-.447-3.288-2.08-4.557-1.558-1.21-3.597-1.355-5.742-.41-1.681.741-2.776 1.922-3.254 3.51-1.03 3.427 1.108 7.776 2.057 9.46a39.107 39.107 0 00-3.494-.66c-4.1-.587-7.233-.44-7.462-.428a25.59 25.59 0 01-1.285-1.659l2.19-.054a.422.422 0 00-.02-.844l-2.024.05c.191-.221.426-.487.702-.79h7.04a.422.422 0 000-.845h-6.255a51.481 51.481 0 014.732-4.395c3.759-3.06 9.494-6.708 15.47-6.708 5.972 0 11.604 3.606 15.277 6.631a49.393 49.393 0 016.087 6l-2.795-.008h-.002a.422.422 0 00-.001.844l2.91.01a25.72 25.72 0 01-1.19 1.57zm-7.108-14.131c2.87 3.099 5.222 6.53 6.753 8.983a40.981 40.981 0 00-4.103-3.907 41.215 41.215 0 00-2.658-2.017.425.425 0 00.008-.084v-2.975zm-.844 2.495c-1.68-1.102-3.557-2.133-5.56-2.903v-4.996c1.976 1.185 3.85 2.775 5.56 4.518v3.38zM47.105 31c-1.763-.601-3.614-.988-5.506-1.039v-5.747c1.883.078 3.732.675 5.506 1.618V31zm-6.35-1.038c-1.923.051-3.812.453-5.616 1.076v-5.032a.42.42 0 00-.012-.099c1.809-.975 3.705-1.61 5.628-1.693v5.748zm-6.46 1.385c-1.996.774-3.873 1.801-5.56 2.899v-3.377c1.674-1.68 3.556-3.276 5.56-4.486v4.964zM27.89 34.81a42.609 42.609 0 00-2.717 2.04 51.719 51.719 0 00-4.054 3.69c1.172-1.82 2.765-4.118 4.655-6.4a49.77 49.77 0 012.116-2.401v3.071zm4.925-15.966c.969-.622 1.873-.938 2.689-.938a2.96 2.96 0 011.811.622c.546.39.983.802 1.406 1.2.67.63 1.303 1.227 2.277 1.681a.42.42 0 00.375-.009c.778-.41 1.548-.948 2.293-1.47 1.123-.786 2.285-1.599 3.456-1.95a2.168 2.168 0 01.762-.137c.966 0 1.926.638 2.827 1.292.81.588 1.648 1.602 2.487 2.89h-3.68a.422.422 0 100 .844h4.207c2.47 4.114 4.914 10.351 6.708 14.93l.294.75c-1.196-1.802-2.7-3.886-4.427-5.913-5.247-6.156-10.336-9.277-15.123-9.277-2.783 0-5.731 1.088-8.76 3.234-2.397 1.696-4.854 4.058-7.303 7.018a66.276 66.276 0 00-3.802 5.103c3.068-7.113 7.695-17.423 11.503-19.87zm8.226 45.309h-.011c-3.122.041-6.003-.584-8.63-1.867h6.538a.422.422 0 000-.844h-8.075a19.643 19.643 0 01-1.814-1.256h1.83a.422.422 0 000-.844h-2.847c-1.607-1.42-3.09-3.15-4.443-5.19-1.946-2.935-3.184-5.904-3.883-7.89a30.86 30.86 0 004.232 4.254c2.212 1.83 4.611 3.287 7.132 4.333a25.853 25.853 0 009.963 1.973c3.456 0 6.805-.67 9.953-1.993 2.515-1.057 4.908-2.53 7.11-4.379a30.766 30.766 0 004.198-4.284c-.666 1.922-1.827 4.753-3.633 7.588h-3.518a.422.422 0 000 .844h2.96a27.04 27.04 0 01-2.882 3.561h-8.594a.422.422 0 000 .844h7.736c-3.752 3.49-8.21 5.219-13.322 5.15z" fill="#004AAD"/></svg>