<svg width="82" height="82" fill="none" xmlns="http://www.w3.org/2000/svg"><path d="M76 1H6a5 5 0 00-5 5v70a5 5 0 005 5h70a5 5 0 005-5V6a5 5 0 00-5-5z" stroke="#004AAD" stroke-miterlimit="10"/><path d="M44.415 17s-.267 3.77-4.105 10.963c-1.867 3.53-4.612 7.86-8.584 12.968-9.81 12.594-4.372 19.626.373 21.444 4.745 1.818 10.157-.856 12.05-1.257 1.865-.4 6.69-.989 10.156 2.032 3.466 3.022 10.904 3.129 10.69-5.748" stroke="#004AAD" stroke-miterlimit="10" stroke-linecap="round" stroke-linejoin="round"/><path d="M36.578 17s-.294 4.064-4.426 11.792c-2.026 3.797-4.958 8.476-9.25 13.957-6.931 8.904-6.798 15.214-4.452 19.064" stroke="#004AAD" stroke-miterlimit="10" stroke-linecap="round" stroke-linejoin="round" stroke-dasharray="3 3"/></svg>