<svg width="82" height="83" fill="none" xmlns="http://www.w3.org/2000/svg"><path d="M75.35 1H6a5 5 0 00-5 5v70.26a5 5 0 005 5h69.35a5 5 0 005-5V6a5 5 0 00-5-5z" stroke="#004AAD" stroke-width="1.5" stroke-miterlimit="10"/><path d="M51.22 65.208H30.13c-4.41 0-7.97-3.585-7.97-8.026V25.078c0-4.441 3.56-8.026 7.97-8.026h21.09c4.41 0 7.97 3.585 7.97 8.026v32.104c0 4.44-3.56 8.026-7.97 8.026zM40.595 23.847v12.949M28.828 43.43h23.695m-23.695 6.635h23.695M28.828 56.7H41.63m-6.613-29.616l11.13 6.475m-11.13 0l11.13-6.475" stroke="#004AAD" stroke-width="1.5" stroke-miterlimit="10" stroke-linecap="round" stroke-linejoin="round"/></svg>