<svg width="48" height="48" fill="none" xmlns="http://www.w3.org/2000/svg"><path d="M20 20a1 1 0 011-1h20a1 1 0 110 2H21a1 1 0 01-1-1z" fill="#004AAD"/><path fill-rule="evenodd" clip-rule="evenodd" d="M29 36.94c6.7-.54 12.055-4.733 12.888-11.94.074-.643.112-1.31.112-2H12v5c0 1.5 1.753 2 2.5 2v12H29v-5.06zM27 40v-4.905l1.839-.148c3.25-.263 6.027-1.478 7.977-3.445 1.571-1.584 2.692-3.741 3.056-6.502H14v2.848a1.32 1.32 0 00.504.152H16.5v12H27z" fill="#004AAD"/><path fill-rule="evenodd" clip-rule="evenodd" d="M23.5 35h5v2h-5v-2zM15 8H9a1 1 0 00-1 1v14h8V9a1 1 0 00-1-1zM9 6a3 3 0 00-3 3v16h12V9a3 3 0 00-3-3H9z" fill="#004AAD"/><path fill-rule="evenodd" clip-rule="evenodd" d="M7 10h10.5v2H7v-2z" fill="#004AAD"/></svg>