<svg width="58" height="58" fill="none" xmlns="http://www.w3.org/2000/svg"><path fill-rule="evenodd" clip-rule="evenodd" d="M32.02 22a3.02 3.02 0 100 6.042 3.02 3.02 0 000-6.042zm-.603 3.02a.604.604 0 111.208 0 .604.604 0 01-1.208 0zm-13.292-.25a3.02 3.02 0 116.042 0 3.02 3.02 0 01-6.042 0zm3.02-.603a.604.604 0 100 1.208.604.604 0 000-1.208z" fill="#004AAD"/><path fill-rule="evenodd" clip-rule="evenodd" d="M33.68 50.245C43.444 48.104 50.75 39.405 50.75 29c0-12.012-9.738-21.75-21.75-21.75S7.25 16.988 7.25 29c0 10.405 7.307 19.104 17.07 21.245A7.22 7.22 0 0029 51.958a7.22 7.22 0 004.68-1.713zm2.172-3.161c7.295-2.766 12.481-9.82 12.481-18.084 0-10.678-8.655-19.333-19.333-19.333C18.322 9.667 9.667 18.322 9.667 29c0 8.265 5.186 15.318 12.481 18.084a7.242 7.242 0 01-.398-2.376V42.52c-1.365-.485-2.366-1.118-3.097-1.823-1.672-1.614-1.688-3.383-1.688-3.843v-.004l-.001-.014-.003-.048c-.002-.041-.006-.088-.011-.15l-.001-.013c-.01-.128-.024-.303-.03-.495-.01-.374.006-.89.18-1.418a2.814 2.814 0 011.162-1.518c.61-.393 1.372-.569 2.258-.569h17.01c.796 0 1.486.202 2.047.594.555.386.9.898 1.113 1.386.396.904.395 1.87.394 2.222v.027c0 .612-.244 2.336-2.028 3.886-.702.61-1.617 1.17-2.805 1.625v2.343c0 .832-.14 1.632-.398 2.376zm-15.52-8.125c.322.311.777.643 1.418.95v-1.242c0-.668.541-1.209 1.208-1.209h12.084c.667 0 1.208.541 1.208 1.209v1.057a6.07 6.07 0 001.22-.808c.581-.506.876-1.005 1.029-1.38a2.5 2.5 0 00.143-.476 1.54 1.54 0 00.02-.147l.002-.01.002-.033v-.016c0-.354-.011-.87-.191-1.28a.846.846 0 00-.281-.373c-.099-.069-.289-.16-.665-.16h-17.01c-.58 0-.845.117-.95.185a.404.404 0 00-.175.24c-.047.143-.067.34-.06.594.005.124.014.244.024.373l.002.029c.009.106.021.26.021.392v.011c0 .24-.001 1.174.951 2.094zM29 44.709a1.21 1.21 0 01-1.208-1.209v-3.625h-3.625v4.833a4.833 4.833 0 109.666 0v-4.833h-3.625V43.5c0 .667-.54 1.208-1.208 1.208z" fill="#004AAD"/></svg>