<svg width="82" height="82" fill="none" xmlns="http://www.w3.org/2000/svg"><path d="M76 1H6a5 5 0 00-5 5v70a5 5 0 005 5h70a5 5 0 005-5V6a5 5 0 00-5-5z" stroke="#004AAD" stroke-width="1.5" stroke-miterlimit="10"/><path d="M38.082 48.094v-8.93M21.45 56.944c2.459 0 4.452-1.975 4.452-4.412s-1.993-4.412-4.451-4.412c-2.458 0-4.451 1.975-4.451 4.412s1.993 4.412 4.45 4.412zM44.691 28.49c2.458 0 4.451-1.975 4.451-4.411 0-2.437-1.993-4.412-4.45-4.412-2.459 0-4.452 1.975-4.452 4.412 0 2.436 1.993 4.412 4.451 4.412zM17 62.333V58.45c0-.82.693-1.506 1.52-1.506h5.783c.4 0 .773.158 1.066.422l1.359 1.348c.293.29.666.422 1.066.422h35.713c.827 0 1.493.66 1.493 1.48v1.717" stroke="#004AAD" stroke-width="1.5" stroke-miterlimit="10" stroke-linecap="round"/><path d="M33.817 54.962h8.769c1.173 0 2.105.925 2.105 2.087a2.084 2.084 0 01-2.105 2.087h-10.82c-2.266 0-4.078-1.822-4.078-4.042 0-2.245 1.838-4.042 4.077-4.042h9.009c.586 0 1.146-.237 1.572-.634l.826-.819m16.098 9.538h3.358a2.322 2.322 0 002.346-2.325 2.322 2.322 0 00-2.346-2.325H48.05c-.587 0-.96-.66-.64-1.163l1.733-2.774m2.477-2.43h6.93a1.96 1.96 0 001.973-1.955 1.96 1.96 0 00-1.973-1.955H45.704" stroke="#004AAD" stroke-width="1.5" stroke-miterlimit="10" stroke-linecap="round"/><path d="M41.227 37.315l1.386 4.57c.053.211.213.396.373.528l4.424 3.039c.88.607 1.013 1.875.24 2.615a1.746 1.746 0 01-2.186.212l-5.916-3.91c-.214-.133-.347-.344-.427-.608l-2.105-8.983c-.4-1.717.932-3.381 2.718-3.381h7.969c1.2 0 2.319.555 3.065 1.48l6.876 8.797" stroke="#004AAD" stroke-width="1.5" stroke-miterlimit="10" stroke-linecap="round"/><path d="M52.74 41.621l-2.292-3.804c-.08-.132-.293-.08-.293.079v3.83" stroke="#004AAD" stroke-width="1.5" stroke-miterlimit="10" stroke-linecap="round"/></svg>