<svg width="7" height="18" viewBox="0 0 7 18" fill="none" xmlns="http://www.w3.org/2000/svg">
<path fill-rule="evenodd" clip-rule="evenodd" d="M0.138884 0.200464C0.182797 0.13692 0.234964 0.0865045 0.292397 0.0521055C0.34983 0.0177066 0.4114 0 0.473581 0C0.535762 0 0.597333 0.0177066 0.654766 0.0521055C0.712199 0.0865045 0.764366 0.13692 0.808279 0.200464L6.48112 8.38859C6.52514 8.45197 6.56007 8.52727 6.5839 8.61017C6.60773 8.69307 6.62 8.78194 6.62 8.87169C6.62 8.96144 6.60773 9.05031 6.5839 9.13321C6.56007 9.21611 6.52514 9.2914 6.48112 9.35479L0.808279 17.5429C0.719512 17.671 0.599117 17.743 0.473581 17.743C0.348045 17.743 0.227651 17.671 0.138884 17.5429C0.0501166 17.4148 0.000247509 17.241 0.000247509 17.0598C0.000247509 16.8786 0.0501166 16.7048 0.138884 16.5767L5.47797 8.87169L0.138884 1.16666C0.0948595 1.10328 0.059931 1.02798 0.0360989 0.945084C0.0122669 0.862185 0 0.773315 0 0.683564C0 0.593812 0.0122669 0.504942 0.0360989 0.422044C0.059931 0.339145 0.0948595 0.263848 0.138884 0.200464Z" fill="#004AAD"/>
</svg>
