<svg width="40" height="40" viewBox="0 0 40 40" fill="none" xmlns="http://www.w3.org/2000/svg">
<path fill-rule="evenodd" clip-rule="evenodd" d="M6.66667 33.3334V5.83337H5V34.1667C5 34.627 5.3731 35 5.83333 35H34.1667V33.3334H6.66667Z" fill="#004AAD"/>
<path fill-rule="evenodd" clip-rule="evenodd" d="M9.16699 20.8333C9.16699 20.3731 9.54008 20 10.0003 20H15.0003C15.4606 20 15.8337 20.3731 15.8337 20.8333V34.1667C15.8337 34.6269 15.4606 35 15.0003 35H10.0003C9.54008 35 9.16699 34.6269 9.16699 34.1667V20.8333ZM10.8337 21.6667V33.3333H14.167V21.6667H10.8337Z" fill="#004AAD"/>
<path fill-rule="evenodd" clip-rule="evenodd" d="M17.5 17.5C17.5 17.0397 17.8731 16.6666 18.3333 16.6666H23.3333C23.7936 16.6666 24.1667 17.0397 24.1667 17.5V34.1666C24.1667 34.6269 23.7936 35 23.3333 35H18.3333C17.8731 35 17.5 34.6269 17.5 34.1666V17.5ZM19.1667 18.3333V33.3333H22.5V18.3333H19.1667Z" fill="#004AAD"/>
<path fill-rule="evenodd" clip-rule="evenodd" d="M25.833 10.8333C25.833 10.3731 26.2061 10 26.6663 10H31.6663C32.1266 10 32.4997 10.3731 32.4997 10.8333V34.1667C32.4997 34.6269 32.1266 35 31.6663 35H26.6663C26.2061 35 25.833 34.6269 25.833 34.1667V10.8333ZM27.4997 11.6667V33.3333H30.833V11.6667H27.4997Z" fill="#004AAD"/>
</svg>
