<svg width="40" height="40" viewBox="0 0 40 40" fill="none" xmlns="http://www.w3.org/2000/svg">
<path d="M20.0167 3.35156C21.313 3.35164 22.5649 3.82385 23.5383 4.6799L23.795 4.92156L24.9583 6.0849C25.2776 6.40208 25.6945 6.60232 26.1417 6.65323L26.3667 6.66656H28.0333C29.3954 6.66649 30.7058 7.18751 31.6959 8.1228C32.6861 9.05808 33.2809 10.3367 33.3583 11.6966L33.3667 11.9999V13.6666C33.3667 14.1166 33.52 14.5549 33.7967 14.9049L33.9467 15.0716L35.1083 16.2349C36.0712 17.1923 36.6326 18.4809 36.6781 19.838C36.7237 21.1951 36.2499 22.5184 35.3533 23.5382L35.1117 23.7949L33.9483 24.9582C33.6311 25.2775 33.4309 25.6944 33.38 26.1416L33.3667 26.3666V28.0332C33.3667 29.3953 32.8457 30.7057 31.9104 31.6958C30.9751 32.686 29.6965 33.2808 28.3367 33.3582L28.0333 33.3666H26.3667C25.9173 33.3667 25.4811 33.5182 25.1283 33.7966L24.9617 33.9466L23.7983 35.1082C22.8409 36.0711 21.5523 36.6325 20.1952 36.6781C18.8381 36.7236 17.5148 36.2498 16.495 35.3532L16.2383 35.1116L15.075 33.9482C14.7557 33.631 14.3388 33.4308 13.8917 33.3799L13.6667 33.3666H12C10.638 33.3666 9.32752 32.8456 8.33738 31.9103C7.34725 30.9751 6.75246 29.6964 6.67499 28.3366L6.66666 28.0332V26.3666C6.66651 25.9172 6.51504 25.481 6.23666 25.1282L6.08666 24.9616L4.92499 23.7982C3.96213 22.8408 3.4007 21.5522 3.35517 20.1951C3.30965 18.838 3.78346 17.5147 4.67999 16.4949L4.92166 16.2382L6.08499 15.0749C6.40218 14.7556 6.60242 14.3387 6.65333 13.8916L6.66666 13.6666V11.9999L6.67499 11.6966C6.74941 10.389 7.30237 9.15448 8.22847 8.22838C9.15458 7.30227 10.3891 6.74932 11.6967 6.6749L12 6.66656H13.6667C14.116 6.66641 14.5522 6.51494 14.905 6.23656L15.0717 6.08656L16.235 4.9249C16.7306 4.42638 17.3198 4.03074 17.9688 3.76073C18.6178 3.49072 19.3137 3.35166 20.0167 3.35156ZM26.1783 15.4882C25.8658 15.1758 25.4419 15.0003 25 15.0003C24.5581 15.0003 24.1342 15.1758 23.8217 15.4882L18.3333 20.9749L16.1783 18.8216L16.0217 18.6832C15.6867 18.4242 15.2657 18.3024 14.8441 18.3426C14.4226 18.3827 14.0321 18.5818 13.7521 18.8994C13.472 19.217 13.3234 19.6293 13.3363 20.0526C13.3492 20.4758 13.5227 20.8783 13.8217 21.1782L17.155 24.5116L17.3117 24.6499C17.6323 24.8986 18.0328 25.0218 18.4378 24.9964C18.8428 24.9709 19.2247 24.7985 19.5117 24.5116L26.1783 17.8449L26.3167 17.6882C26.5654 17.3676 26.6886 16.9671 26.6631 16.5621C26.6377 16.1571 26.4653 15.7752 26.1783 15.4882Z" fill="#004AAD"/>
</svg>
