<svg width="82" height="82" viewBox="0 0 82 82" fill="none" xmlns="http://www.w3.org/2000/svg">
<path d="M76 1H6C3.23858 1 1 3.23858 1 6V76C1 78.7614 3.23858 81 6 81H76C78.7614 81 81 78.7614 81 76V6C81 3.23858 78.7614 1 76 1Z" stroke="#004AAD" stroke-width="1.5" stroke-miterlimit="10"/>
<path d="M36.7371 60.9489C28.4837 57.4042 22.2471 42.5325 22.2471 33.764C22.2471 24.5425 29.7575 17 38.9399 17H41.7264C50.9088 17 58.4191 24.5425 58.4191 33.764C58.4191 42.7723 51.8111 58.2571 43.2126 61.2154" stroke="#004AAD" stroke-width="1.5" stroke-miterlimit="10" stroke-linecap="round"/>
<path d="M22.4331 36.616L22.2473 40.4805C21.5573 40.4805 21 41.0402 21 41.7331C21 43.2523 21.7431 44.6915 23.0169 45.5443L25.4319 47.1968" stroke="#004AAD" stroke-width="1.5" stroke-miterlimit="10" stroke-linecap="round"/>
<path d="M58.2337 36.616L58.4195 40.4805C59.1095 40.4805 59.6668 41.0402 59.6668 41.7331C59.6668 43.2523 58.9237 44.6915 57.6499 45.5443L55.2349 47.1968" stroke="#004AAD" stroke-width="1.5" stroke-miterlimit="10" stroke-linecap="round"/>
<path d="M26.8384 37.3619L31.0315 32.8044C31.7215 32.0581 32.1726 31.152 32.3318 30.1392L33.0749 25.8749C33.2341 24.9954 34.3488 24.7555 34.853 25.4485L36.6046 27.8472C37.5599 29.1531 39.0726 29.8993 40.6649 29.8993H47.7773C50.9619 29.8993 53.5627 32.5112 53.5627 35.7094V37.3619" stroke="#004AAD" stroke-width="1.5" stroke-miterlimit="10" stroke-linecap="round"/>
<path d="M33.8448 59.2163C33.8448 59.2163 31.8278 56.2313 33.8182 52.6066C36.2332 48.1824 38.0113 44.9309 40.3467 44.9309" stroke="#004AAD" stroke-width="1.5" stroke-miterlimit="10" stroke-linecap="round"/>
<path d="M46.8483 59.1897C46.8483 59.1897 48.8387 56.2313 46.8483 52.6066C44.4333 48.1824 42.5756 44.9309 40.3198 44.9309" stroke="#004AAD" stroke-width="1.5" stroke-miterlimit="10" stroke-linecap="round"/>
<path d="M42.1508 56.4181C42.1508 57.804 41.3546 58.4703 40.3461 58.4703C39.3377 58.4703 38.5415 57.804 38.5415 56.4181C38.5415 55.0322 39.6827 53.4597 40.3461 53.4597C41.0096 53.4597 42.1508 55.0322 42.1508 56.4181Z" fill="#004AAD"/>
<path d="M40.3465 64.9998C39.8157 64.9998 39.3911 64.5734 39.3911 64.0404V58.2036C39.3911 57.6706 39.8157 57.2441 40.3465 57.2441C40.8773 57.2441 41.3019 57.6706 41.3019 58.2036V64.0404C41.3019 64.5467 40.8773 64.9998 40.3465 64.9998Z" fill="#004AAD"/>
<path d="M36.6571 39.3877C36.6571 40.5077 35.9406 41.441 34.0564 41.441C32.2252 41.441 31.4556 40.5344 31.4556 39.3877" stroke="#004AAD" stroke-width="1.5" stroke-miterlimit="10" stroke-linecap="round"/>
<path d="M49.2108 39.3877C49.2108 40.5077 48.4943 41.441 46.61 41.441C44.7789 41.441 44.0093 40.5344 44.0093 39.3877" stroke="#004AAD" stroke-width="1.5" stroke-miterlimit="10" stroke-linecap="round"/>
</svg>
