<svg width="38" height="38" viewBox="0 0 38 38" fill="none" xmlns="http://www.w3.org/2000/svg">
<g id="circle-check-filled">
<path id="Vector" d="M26.917 5.28837C29.3051 6.66722 31.2916 8.64587 32.68 11.0284C34.0684 13.411 34.8105 16.1148 34.8328 18.8723C34.855 21.6298 34.1567 24.3453 32.807 26.75C31.4573 29.1546 29.503 31.1651 27.1375 32.5824C24.772 33.9996 22.0773 34.7745 19.3203 34.8303C16.5633 34.8861 13.8395 34.2209 11.4186 32.9005C8.99771 31.5801 6.96362 29.6504 5.51771 27.3023C4.07181 24.9542 3.26422 22.2692 3.17491 19.513L3.16699 19L3.17491 18.487C3.26358 15.7526 4.05928 13.0878 5.48442 10.7524C6.90957 8.41707 8.91553 6.49083 11.3067 5.16151C13.6979 3.8322 16.3928 3.14516 19.1286 3.16739C21.8644 3.18962 24.5477 3.92036 26.917 5.28837ZM24.8697 14.714C24.5971 14.4413 24.2344 14.2776 23.8496 14.2534C23.4648 14.2292 23.0844 14.3462 22.7797 14.5825L22.6309 14.714L17.417 19.9263L15.3697 17.8806L15.2209 17.7492C14.9163 17.5131 14.5359 17.3962 14.1512 17.4204C13.7665 17.4447 13.4039 17.6085 13.1313 17.881C12.8588 18.1536 12.695 18.5162 12.6707 18.9009C12.6464 19.2856 12.7633 19.666 12.9995 19.9706L13.1309 20.1194L16.2976 23.2861L16.4464 23.4175C16.7241 23.633 17.0655 23.7499 17.417 23.7499C17.7684 23.7499 18.1099 23.633 18.3876 23.4175L18.5364 23.2861L24.8697 16.9528L25.0012 16.8039C25.2375 16.4993 25.3545 16.1189 25.3303 15.7341C25.3061 15.3493 25.1424 14.9866 24.8697 14.714Z" fill="#004AAD"/>
</g>
</svg>
