<svg width="48" height="48" viewBox="0 0 48 48" fill="none" xmlns="http://www.w3.org/2000/svg">
<g id="cleaning">
<path id="Vector" fill-rule="evenodd" clip-rule="evenodd" d="M20.8503 25.6556L10.1173 5.46967C9.85797 4.98203 10.0431 4.37654 10.5308 4.11725C11.0184 3.85797 11.6239 4.04309 11.8832 4.53073L22.6162 24.7167L24.1386 23.9073C26.0891 22.8702 28.5111 23.6106 29.5483 25.5612L30.1962 26.7798L37.0652 36.8343L22.8164 44.4105L18.3216 33.0925L17.6742 31.8747C16.6371 29.9242 17.3776 27.5022 19.3281 26.4651L20.8503 25.6556ZM20.2671 28.231L25.0775 25.6732C26.0528 25.1546 27.2638 25.5249 27.7824 26.5001L28.4298 27.7179L20.0876 32.1535L19.4401 30.9358C18.9215 29.9605 19.2918 28.7495 20.2671 28.231ZM21.0972 34.663L23.8504 41.5956L25.6847 40.6203L23.5197 36.405L25.2987 35.4913L27.4507 39.6812L34.1533 36.1174L29.9455 29.9583L21.0972 34.663Z" fill="#004AAD"/>
<path id="Vector_2" d="M16.3603 35.2314C16.7846 34.8783 17.4148 34.9358 17.7682 35.3599C18.1218 35.7842 18.0645 36.4147 17.6402 36.7683L17.639 36.7693L17.6375 36.7705L17.634 36.7734L17.6241 36.7815L17.5938 36.8058C17.5689 36.8256 17.5346 36.8523 17.4912 36.885C17.4045 36.9503 17.2811 37.0395 17.1235 37.1446C16.8086 37.3545 16.3544 37.6294 15.7799 37.9029C14.6334 38.4489 12.9856 39.0001 11 39.0001C10.4477 39.0001 10 38.5524 10 38.0001C10 37.4478 10.4477 37.0001 11 37.0001C12.6144 37.0001 13.9666 36.5513 14.9201 36.0972C15.3956 35.8708 15.7664 35.6456 16.0141 35.4805C16.1377 35.3981 16.2299 35.3311 16.2885 35.287C16.3177 35.265 16.3385 35.2488 16.3505 35.2392L16.3619 35.2301L16.3603 35.2314Z" fill="#004AAD"/>
<path id="Vector_3" d="M19.5547 41.8321C20.0142 41.5258 20.1384 40.9049 19.8321 40.4454C19.5258 39.986 18.9048 39.862 18.4453 40.168L18.4427 40.1697L18.4234 40.1822C18.4051 40.1941 18.376 40.2126 18.3369 40.237C18.2587 40.2857 18.1405 40.3573 17.9882 40.4443C17.683 40.6187 17.2446 40.8526 16.7189 41.0863C15.6498 41.5614 14.2984 42.0001 13 42.0001C12.4477 42.0001 12 42.4478 12 43.0001C12 43.5524 12.4477 44.0001 13 44.0001C14.7016 44.0001 16.3502 43.4388 17.5311 42.9139C18.1304 42.6476 18.6295 42.3814 18.9805 42.1808C19.1564 42.0803 19.296 41.9957 19.3935 41.9351C19.4423 41.9047 19.4806 41.8803 19.5077 41.8628L19.5399 41.8419L19.5495 41.8356L19.5547 41.8321Z" fill="#004AAD"/>
</g>
</svg>
