<svg width="40" height="40" viewBox="0 0 40 40" fill="none" xmlns="http://www.w3.org/2000/svg">
<path fill-rule="evenodd" clip-rule="evenodd" d="M7.64706 7.08337C6.18512 7.08337 5 8.28261 5 9.76196V25.8334C5 27.3127 6.18512 28.512 7.64706 28.512H16.4705V30.2976H12.9411V32.0834H27.0588V30.2976H23.5294V28.512H32.3529C33.8148 28.512 35 27.3127 35 25.8334V9.76196C35 8.28261 33.8148 7.08337 32.3529 7.08337H7.64706ZM18.2352 30.2976H21.7647V28.512H18.2352V30.2976ZM6.76471 9.76196C6.76471 9.26887 7.15975 8.86912 7.64706 8.86912H32.3529C32.8403 8.86912 33.2353 9.26887 33.2353 9.76196V25.8334C33.2353 26.3265 32.8403 26.7262 32.3529 26.7262H7.64706C7.15975 26.7262 6.76471 26.3265 6.76471 25.8334V9.76196ZM12.9411 10.6548H11.1763V12.4405H9.41167V14.2262H11.1763V16.012H12.9411V14.2262H14.7058V12.4405H12.9411V10.6548ZM10.294 17.7976C9.80667 17.7976 9.41158 18.1974 9.41158 18.6905V22.262C9.41158 22.755 9.80667 23.1548 10.294 23.1548H13.8234C14.3107 23.1548 14.7057 22.755 14.7057 22.262V18.6905C14.7057 18.1974 14.3107 17.7976 13.8234 17.7976H10.294ZM11.1763 21.3691V19.5834H12.941V21.3691H11.1763ZM17.3531 11.5476C17.3531 11.0545 17.7482 10.6548 18.2355 10.6548H21.7648C22.2522 10.6548 22.6472 11.0545 22.6472 11.5476V15.1191C22.6472 15.6122 22.2522 16.012 21.7648 16.012H18.2355C17.7482 16.012 17.3531 15.6122 17.3531 15.1191V11.5476ZM19.1178 12.4405V14.2262H20.8825V12.4405H19.1178ZM18.2355 17.7976C17.7482 17.7976 17.3531 18.1974 17.3531 18.6905V22.262C17.3531 22.755 17.7482 23.1548 18.2355 23.1548H21.7648C22.2522 23.1548 22.6472 22.755 22.6472 22.262V18.6905C22.6472 18.1974 22.2522 17.7976 21.7648 17.7976H18.2355ZM19.1178 21.3691V19.5834H20.8825V21.3691H19.1178ZM25.2942 11.5476C25.2942 11.0545 25.6892 10.6548 26.1765 10.6548H29.7059C30.1932 10.6548 30.5883 11.0545 30.5883 11.5476V15.1191C30.5883 15.6122 30.1932 16.012 29.7059 16.012H26.1765C25.6892 16.012 25.2942 15.6122 25.2942 15.1191V11.5476ZM27.0589 12.4405V14.2262H28.8236V12.4405H27.0589Z" fill="#004AAD"/>
</svg>
