<svg width="82" height="82" viewBox="0 0 82 82" fill="none" xmlns="http://www.w3.org/2000/svg">
<path d="M76 1H6C3.23858 1 1 3.23858 1 6V76C1 78.7614 3.23858 81 6 81H76C78.7614 81 81 78.7614 81 76V6C81 3.23858 78.7614 1 76 1Z" stroke="#004AAD" stroke-width="1.5" stroke-miterlimit="10"/>
<path d="M41.5 43.5L43 38.5L44.5 43.5L43 45.5L41.5 43.5Z" fill="#004AAD"/>
<path fill-rule="evenodd" clip-rule="evenodd" d="M57.5076 35.8528C58.9495 35.4201 60 34.0827 60 32.5V26.5C60 24.567 58.433 23 56.5 23C54.567 23 53 24.567 53 26.5V32.5C53 34.0882 54.0578 35.4293 55.5073 35.8572C55.5156 36.982 55.53 38.0565 55.5437 39.0829V39.084C55.5925 42.735 55.6332 45.7779 55.367 48.3076C54.9902 51.8886 54.027 54.0735 51.8843 55.3364C49.0049 57.0334 44.6466 57.621 40.9785 57.1592C39.1519 56.9292 37.5904 56.4496 36.5169 55.7934C36.0832 55.5283 35.752 55.2509 35.5114 54.9649C37.3353 54.8622 39.1162 54.5323 40.5645 53.9429C42.3416 53.2197 43.9525 51.9442 43.999 49.9293C47.3918 49.4445 50 46.5268 50 43C50 39.4735 47.3923 36.5561 44 36.0709V30.1221H43.9971C43.999 30.0815 44 30.0408 44 30C44 27.2386 39.5228 25 34 25C28.4772 25 24 27.2386 24 30C24 30.0408 24.001 30.0815 24.0029 30.1221H24V49.8396C24 51.8246 25.6652 53.0935 27.4295 53.8249C29.0703 54.5052 31.1448 54.8844 33.2301 54.9774C33.6179 56.0406 34.4595 56.8798 35.4738 57.4998C36.8728 58.3549 38.7381 58.8929 40.7287 59.1435C44.6951 59.6429 49.5327 59.0438 52.8998 57.0594C55.865 55.3118 56.9558 52.3206 57.356 48.5168C57.6352 45.8635 57.5922 42.6347 57.5426 38.9138C57.5294 37.9275 57.5158 36.9067 57.5076 35.8528ZM56.5 25C57.3284 25 58 25.6716 58 26.5V32.5C58 33.3284 57.3284 34 56.5 34C55.6716 34 55 33.3284 55 32.5V26.5C55 25.6716 55.6716 25 56.5 25ZM42 30C42 30.2151 41.7737 30.9482 40.1766 31.7467C38.6992 32.4854 36.5183 33 34 33C31.4817 33 29.3008 32.4854 27.8234 31.7467C26.2263 30.9482 26 30.2151 26 30C26 29.7849 26.2263 29.0518 27.8234 28.2533C29.3008 27.5146 31.4817 27 34 27C36.5183 27 38.6992 27.5146 40.1766 28.2533C41.7737 29.0518 42 29.7849 42 30ZM42 33.0005C40.1755 34.2147 37.2712 35 34 35C33.6936 35 33.3903 34.9931 33.0909 34.9796V52.968C33.3957 52.9849 33.703 52.9953 34.0114 52.9988C36.179 53.0235 38.2859 52.711 39.8105 52.0905C41.3243 51.4744 41.9533 50.707 41.9975 49.9287C38.6064 49.4424 36 46.5256 36 43C36 39.4735 38.6077 36.5561 42 36.0709V33.0005ZM48 43C48 45.7614 45.7614 48 43 48C40.2386 48 38 45.7614 38 43C38 40.2386 40.2386 38 43 38C45.7614 38 48 40.2386 48 43Z" fill="#004AAD"/>
</svg>
