<svg width="40" height="40" viewBox="0 0 40 40" fill="none" xmlns="http://www.w3.org/2000/svg">
<g id="health_data_security">
<path id="Vector" fill-rule="evenodd" clip-rule="evenodd" d="M16.667 3.33331C15.2862 3.33331 14.167 4.4526 14.167 5.83331H11.667C10.2862 5.83331 9.16699 6.9526 9.16699 8.33331V31.6666C9.16699 33.0474 10.2862 34.1666 11.667 34.1666H21.667V32.5H11.667C11.2067 32.5 10.8337 32.1269 10.8337 31.6666V8.33331C10.8337 7.87308 11.2067 7.49998 11.667 7.49998H14.167C14.167 8.88073 15.2862 9.99998 16.667 9.99998H23.3337C24.7144 9.99998 25.8337 8.88073 25.8337 7.49998H28.3337C28.7939 7.49998 29.167 7.87308 29.167 8.33331V20.8333H30.8337V8.33331C30.8337 6.9526 29.7144 5.83331 28.3337 5.83331H25.8337C25.8337 4.4526 24.7144 3.33331 23.3337 3.33331H16.667ZM15.8337 5.83331C15.8337 5.37308 16.2067 4.99998 16.667 4.99998H23.3337C23.7939 4.99998 24.167 5.37308 24.167 5.83331V7.49998C24.167 7.96021 23.7939 8.33331 23.3337 8.33331H16.667C16.2067 8.33331 15.8337 7.96021 15.8337 7.49998V5.83331ZM19.167 15.8333V13.3333H20.8337V15.8333H23.3337V17.5H20.8337V20H19.167V17.5H16.667V15.8333H19.167ZM22.5003 23.3333C22.5003 22.8731 22.8734 22.5 23.3337 22.5H33.3337C33.7939 22.5 34.167 22.8731 34.167 23.3333V28.9907C34.167 30.9411 33.1922 32.7625 31.5694 33.8444L28.7959 35.6934C28.516 35.88 28.1513 35.88 27.8714 35.6934L25.0979 33.8444C23.4751 32.7625 22.5003 30.9411 22.5003 28.9907V23.3333ZM24.167 24.1666V28.9907C24.167 30.3839 24.8632 31.6848 26.0224 32.4576L28.3337 33.9984L30.6449 32.4576C31.8041 31.6848 32.5003 30.3839 32.5003 28.9907V24.1666H24.167ZM28.0896 30.5893L31.4229 27.256L30.2443 26.0775L27.5003 28.8216L26.4229 27.7441L25.2443 28.9226L26.911 30.5893C27.2365 30.9147 27.7641 30.9147 28.0896 30.5893Z" fill="#004AAD"/>
</g>
</svg>
