<svg width="35" height="35" viewBox="0 0 35 35" fill="none" xmlns="http://www.w3.org/2000/svg">
<path fill-rule="evenodd" clip-rule="evenodd" d="M17.4997 26.25C18.0876 26.25 18.6348 26.4239 19.0928 26.7231L20.4174 2.91663L21.1455 2.95713L21.8735 2.91663L23.1981 26.7231C23.6562 26.4239 24.2034 26.25 24.7913 26.25C26.4021 26.25 27.708 27.5558 27.708 29.1666C27.708 30.7774 26.4021 32.0833 24.7913 32.0833C23.1878 32.0833 21.8866 30.7893 21.8747 29.1886L21.7117 26.2589H20.5792L20.4163 29.1886C20.4044 30.7893 19.1031 32.0833 17.4997 32.0833C15.8888 32.0833 14.583 30.7774 14.583 29.1666C14.583 27.5558 15.8888 26.25 17.4997 26.25ZM21.1455 16.0823L21.6305 24.8005H20.6604L21.1455 16.0823ZM21.1455 13.8795C21.5482 13.8795 21.8747 13.5535 21.8747 13.1514C21.8747 12.7492 21.5482 12.4232 21.1455 12.4232C20.7428 12.4232 20.4163 12.7492 20.4163 13.1514C20.4163 13.5535 20.7428 13.8795 21.1455 13.8795ZM17.4997 27.7083C16.6942 27.7083 16.0413 28.3612 16.0413 29.1666C16.0413 29.9721 16.6942 30.625 17.4997 30.625C18.3051 30.625 18.958 29.9721 18.958 29.1666C18.958 28.3612 18.3051 27.7083 17.4997 27.7083ZM23.333 29.1666C23.333 28.3612 23.9859 27.7083 24.7913 27.7083C25.5968 27.7083 26.2497 28.3612 26.2497 29.1666C26.2497 29.9721 25.5968 30.625 24.7913 30.625C23.9859 30.625 23.333 29.9721 23.333 29.1666Z" fill="#004AAD"/>
<path fill-rule="evenodd" clip-rule="evenodd" d="M11.6669 3.08716L10.5626 3.74975L10.9377 4.37501C10.5626 3.74975 10.5616 3.75036 10.5616 3.75036L10.5605 3.75102L10.5581 3.75244L10.5527 3.75574L10.5393 3.76416C10.5292 3.7706 10.5167 3.77871 10.5021 3.78857C10.4728 3.8083 10.4348 3.83504 10.3893 3.86952C10.2982 3.9385 10.1771 4.03831 10.0354 4.17456C9.7516 4.44746 9.38752 4.86455 9.01784 5.46909C8.27678 6.68125 7.52902 8.62116 7.33835 11.618C7.28025 12.5314 7.80859 13.3011 8.56247 13.6515C8.22822 13.9819 8.02107 14.4407 8.02107 14.9479V30.2604C8.02107 31.2672 8.83722 32.0833 9.84398 32.0833C10.8507 32.0833 11.6669 31.2672 11.6669 30.2604V14.9479C11.6669 14.2963 11.3251 13.7247 10.8109 13.4023C11.3314 13.0024 11.6669 12.3737 11.6669 11.6667V3.08716ZM8.79376 11.7106C8.96607 9.00252 9.61925 7.31697 10.2086 6.3189V11.6667C10.2086 12.0694 9.88212 12.3958 9.4794 12.3958C9.06479 12.3958 8.77123 12.0649 8.79376 11.7106ZM10.2086 15.0105V14.9479C10.2086 14.7466 10.0453 14.5833 9.84398 14.5833C9.64259 14.5833 9.4794 14.7466 9.4794 14.9479V15.7397L10.2086 15.0105ZM10.2086 17.0729V17.9272L9.4794 18.6563V17.802L10.2086 17.0729ZM10.2086 20.8438V19.9895L9.4794 20.7187V21.573L10.2086 20.8438ZM10.2086 22.9062V30.2604C10.2086 30.4617 10.0453 30.625 9.84398 30.625C9.64259 30.625 9.4794 30.4617 9.4794 30.2604V23.6354L10.2086 22.9062Z" fill="#004AAD"/>
</svg>
