<svg width="48" height="48" viewBox="0 0 48 48" fill="none" xmlns="http://www.w3.org/2000/svg">
<path d="M6 11.3496V33.3496M6 25.3496H42M42 33.3496V17.3496C42 16.2887 41.5786 15.2713 40.8284 14.5212C40.0783 13.771 39.0609 13.3496 38 13.3496H22V25.3496M12 17.3496C12 17.88 12.2107 18.3887 12.5858 18.7638C12.9609 19.1389 13.4696 19.3496 14 19.3496C14.5304 19.3496 15.0391 19.1389 15.4142 18.7638C15.7893 18.3887 16 17.88 16 17.3496C16 16.8192 15.7893 16.3105 15.4142 15.9354C15.0391 15.5603 14.5304 15.3496 14 15.3496C13.4696 15.3496 12.9609 15.5603 12.5858 15.9354C12.2107 16.3105 12 16.8192 12 17.3496Z" stroke="#004AAD" stroke-width="2" stroke-linecap="round" stroke-linejoin="round"/>
</svg>
