<svg width="48" height="48" viewBox="0 0 48 48" fill="none" xmlns="http://www.w3.org/2000/svg">
<g id="medicines">
<path id="Vector" d="M37.0837 15.7352C37.6219 15.859 38.1586 15.523 38.2823 14.9847C38.4061 14.4465 38.07 13.9098 37.5318 13.7861L30.9161 12.2652C30.3779 12.1414 29.8413 12.4774 29.7175 13.0157C29.5938 13.5539 29.9298 14.0906 30.468 14.2143L37.0837 15.7352Z" fill="#004AAD"/>
<path id="Vector_2" fill-rule="evenodd" clip-rule="evenodd" d="M34 22C38.4183 22 42 18.4183 42 14C42 9.58172 38.4183 6 34 6C29.5817 6 26 9.58172 26 14C26 18.4183 29.5817 22 34 22ZM34 20C37.3137 20 40 17.3137 40 14C40 10.6863 37.3137 8 34 8C30.6863 8 28 10.6863 28 14C28 17.3137 30.6863 20 34 20Z" fill="#004AAD"/>
<path id="Vector_3" fill-rule="evenodd" clip-rule="evenodd" d="M17.7782 9.24516C17.1307 7.71335 14.9653 7.55884 14.0955 8.98238L7.29281 20.1148C6.50809 21.399 7.38547 23.0385 8.9159 23.1477L20.7823 23.9944C22.3127 24.1036 23.4261 22.6062 22.842 21.2243L17.7782 9.24516ZM15.8106 10.013C15.8091 10.0148 15.8061 10.0186 15.8021 10.0252L9.01 21.1404L9.01156 21.1415C9.01351 21.1428 9.01659 21.1445 9.02192 21.1463C9.02695 21.1481 9.03827 21.1513 9.05824 21.1527L20.9246 21.9994C20.9446 22.0009 20.9568 21.9993 20.963 21.9981C20.9696 21.9969 20.9742 21.9952 20.9779 21.9934C20.9827 21.9912 20.9875 21.988 20.9918 21.9841L15.9361 10.0239C15.9342 10.0194 15.9326 10.0164 15.9316 10.0145C15.9257 10.0111 15.9077 10.0026 15.8779 10.0004C15.8449 9.99809 15.8228 10.0054 15.8156 10.0089L15.8132 10.0103L15.8121 10.0113L15.8106 10.013Z" fill="#004AAD"/>
<path id="Vector_4" fill-rule="evenodd" clip-rule="evenodd" d="M34.4129 35.4393C37.4161 34.0389 38.7155 30.469 37.315 27.4657C35.9146 24.4625 32.3447 23.1632 29.3415 24.5636L18.4658 29.635C15.4625 31.0355 14.1632 34.6053 15.5636 37.6086C16.9641 40.6118 20.5339 41.9112 23.5372 40.5107L34.4129 35.4393ZM19.311 31.4476C17.3088 32.3813 16.4426 34.7612 17.3762 36.7633C18.3099 38.7655 20.6898 39.6317 22.692 38.6981L27.158 36.6155L23.7774 29.3659L19.311 31.4476ZM28.9706 35.7703L25.5897 28.5198L30.1867 26.3762C32.1889 25.4426 34.5688 26.3088 35.5024 28.311C36.436 30.3131 35.5698 32.6931 33.5676 33.6267L28.9706 35.7703Z" fill="#004AAD"/>
</g>
</svg>
