<svg width="40" height="40" viewBox="0 0 40 40" fill="none" xmlns="http://www.w3.org/2000/svg">
<path d="M20.7517 1.01689C21.0414 1.01689 21.329 1.01689 21.6144 1.01689C18.7943 3.53694 16.9817 6.92767 16.4915 10.5997C16.0013 14.2717 16.8646 17.9928 18.9313 21.1162C20.998 24.2396 24.1374 26.5677 27.8038 27.696C31.4702 28.8242 35.4319 28.6812 39 27.2918C37.6274 30.4679 35.3841 33.2262 32.5093 35.2723C29.6345 37.3185 26.2361 38.5757 22.6766 38.91C19.1171 39.2443 15.5299 38.6431 12.2979 37.1705C9.06577 35.6979 6.30996 33.4091 4.32438 30.5484C2.33881 27.6876 1.19796 24.3621 1.02352 20.9267C0.849078 17.4913 1.64759 14.0747 3.33389 11.0415C5.02019 8.00832 7.53101 5.47223 10.5985 3.70377C13.666 1.93531 17.1752 1.00083 20.7517 1V1.01689Z" stroke="white" stroke-width="2" stroke-linecap="round" stroke-linejoin="round"/>
</svg>
