<svg width="19" height="44" viewBox="0 0 19 44" fill="none" xmlns="http://www.w3.org/2000/svg">
<path id="Vector" fill-rule="evenodd" clip-rule="evenodd" d="M18.4139 1.28885C18.8992 1.52567 19.1262 2.12959 18.9298 2.66168L15.0919 13.0616C16.2818 13.6237 17 14.3528 17 15.1493C17 15.175 16.9993 15.2006 16.9978 15.2262H17V39.8424C17 41.6211 13.4183 43.0632 8.99999 43.0632C4.58169 43.0632 0.999988 41.6213 0.999988 39.8424V15.2262H1.00219C1.00069 15.2006 0.999988 15.175 0.999988 15.1493C0.999988 14.2981 1.82029 13.5239 3.15989 12.9481L0.0440875 2.04432C-0.0948125 1.55817 0.102988 1.03408 0.517888 0.78888C0.930888 0.544839 1.44629 0.643718 1.75499 1.02531L1.76679 1.03914C1.78009 1.05447 1.80399 1.08136 1.83829 1.11734C1.90689 1.18949 2.01599 1.29702 2.16329 1.42078C2.45939 1.66956 2.89929 1.97512 3.46689 2.19671C4.55459 2.62138 6.22909 2.78732 8.45359 1.36622C10.5262 -0.20066 13.0924 -0.148011 14.9825 0.201812C15.9543 0.381673 16.804 0.650309 17.41 0.873125C17.7141 0.984908 17.9595 1.08614 18.1313 1.16061C18.2173 1.19788 18.285 1.22853 18.3327 1.25055C18.3565 1.26157 18.3754 1.27042 18.389 1.27689L18.4055 1.28476L18.4107 1.28729L18.4139 1.28885ZM8.94059 18.37C6.68849 18.3635 4.65769 17.9822 3.21369 17.3734H2.99999V39.5297C3.17249 39.6785 3.50369 39.8912 4.04539 40.1094C5.21589 40.5806 6.96719 40.916 8.99999 40.916C11.0328 40.916 12.7841 40.5806 13.9546 40.1094C14.4963 39.8912 14.8275 39.6785 15 39.5297V17.3734H14.7863C13.3423 17.9822 11.3115 18.3635 9.05939 18.37C9.03959 18.3701 9.01979 18.3701 8.99999 18.3701C8.98019 18.3701 8.96039 18.3701 8.94059 18.37ZM14.6428 2.31787C12.9184 1.99871 11.0028 2.05001 9.58139 3.13999C9.55979 3.1566 9.53749 3.17227 9.51469 3.18696C6.75519 4.96455 4.44049 4.86161 2.78339 4.21469L2.75289 4.20269L5.85049 15.0426H12.2097L16.6977 2.88107C16.1685 2.68961 15.4502 2.46732 14.6428 2.31787ZM2.89779 39.4291C2.89599 39.4264 2.89489 39.4251 2.89479 39.4251C2.89479 39.4251 2.89499 39.4254 2.89539 39.426L2.89779 39.4291Z" fill="#004AAD"/>
</svg>
