<svg width="48" height="48" viewBox="0 0 48 48" fill="none" xmlns="http://www.w3.org/2000/svg">
<g id="nose" clip-path="url(#clip0_102_942)">
<path id="Vector" d="M48 0H0V48H48V0Z" fill="white"/>
<path id="Vector_2" d="M30.4052 5.08521C30.9105 5.30802 31.1395 5.89831 30.9167 6.40365L30.0017 6.00022C30.9167 6.40365 30.9168 6.40342 30.9167 6.40365L30.9162 6.40481L30.9112 6.41623L30.8963 6.44972C30.8833 6.47889 30.8641 6.52163 30.839 6.57719C30.7888 6.68832 30.7148 6.8508 30.6185 7.05869C30.4257 7.47441 30.1434 8.07206 29.7832 8.80418C29.063 10.2675 28.0291 12.2724 26.7742 14.4377C24.291 18.7224 20.8495 23.8018 17.1796 26.447L17.1779 26.4483C13.3211 29.2161 12.576 32.2504 13.1993 34.4375C13.841 36.6895 15.9986 38.3727 18.6454 38.3727H19.1173C19.4234 37.3062 20.2213 36.2752 21.5791 35.6421C23.1179 34.9245 25.2989 34.7471 28.2278 35.4269C28.7658 35.5517 29.1007 36.0891 28.9758 36.627C28.851 37.165 28.3136 37.4999 27.7756 37.3751C25.1046 36.7551 23.4189 36.9909 22.4244 37.4547C21.8812 37.7079 21.5232 38.0369 21.2986 38.3727H21.8743C24.4299 38.3727 26.5017 40.4445 26.5017 43.0002H24.5017C24.5017 41.5491 23.3254 40.3727 21.8743 40.3727H18.6454C15.1407 40.3727 12.172 38.1306 11.2758 34.9856C10.3612 31.7761 11.6664 27.9423 16.0108 24.8241C19.3025 22.4512 22.5642 17.7131 25.0438 13.4348C26.2704 11.3184 27.2829 9.3553 27.9887 7.92107C28.3414 7.20437 28.617 6.62082 28.8039 6.21755C28.8974 6.01594 28.9687 5.85946 29.0163 5.75402C29.0401 5.7013 29.058 5.66134 29.0698 5.63489L29.0829 5.60543L29.0866 5.59696C29.3095 5.09162 29.8998 4.8624 30.4052 5.08521Z" fill="#004AAD"/>
<path id="Vector_3" d="M32.529 39.8487C33.9393 38.9698 35.2368 37.0814 35.7558 34.9909C36.2867 32.8525 36.0418 30.3276 34.0959 28.3064L32.6551 29.6935C34.0102 31.101 34.2237 32.8617 33.8148 34.509C33.3939 36.2042 32.3532 37.6016 31.4712 38.1513L32.529 39.8487Z" fill="#004AAD"/>
</g>
<defs>
<clipPath id="clip0_102_942">
<rect width="48" height="48" fill="white"/>
</clipPath>
</defs>
</svg>
