<svg width="48" height="48" viewBox="0 0 48 48" fill="none" xmlns="http://www.w3.org/2000/svg">
<path fill-rule="evenodd" clip-rule="evenodd" d="M24.0008 6C22.3439 6 21.0008 7.34315 21.0008 9C21.0008 10.6569 22.3439 12 24.0008 12C25.6576 12 27.0008 10.6569 27.0008 9C27.0008 7.34315 25.6576 6 24.0008 6ZM19.0008 9C19.0008 6.23858 21.2394 4 24.0008 4C26.7622 4 29.0008 6.23858 29.0008 9C29.0008 11.7614 26.7622 14 24.0008 14C21.2394 14 19.0008 11.7614 19.0008 9ZM23.9871 15.0003C28.035 14.9822 31.996 15.708 36.8402 17.1198C38.4309 17.5834 39.3446 19.2487 38.881 20.8394C38.4174 22.4301 36.7521 23.3438 35.1614 22.8802C34.4261 22.6659 33.7219 22.4712 33.044 22.2956C33.5246 23.8811 33.9373 25.5323 33.9941 27.1493C34.0703 29.3201 33.5089 31.4571 31.7073 33.3648L30.9885 41.2716C30.8433 42.869 29.4672 44.0696 27.8649 43.9969C26.2625 43.9242 25.0008 42.604 25.0008 41V35.9951C24.6737 36 24.3454 36 24.0188 36H23.9828C23.6562 36 23.3279 36 23.0008 35.9951V41C23.0008 42.604 21.7391 43.9242 20.1367 43.9969C18.5344 44.0696 17.1583 42.869 17.0131 41.2716L16.2943 33.3648C14.4986 31.4633 13.9348 29.3336 14.0069 27.1694C14.0607 25.5544 14.4705 23.9057 14.9495 22.3222C14.2627 22.4944 13.5488 22.6838 12.8029 22.8908C11.2064 23.3338 9.55298 22.3987 9.10998 20.8021C8.66698 19.2056 9.6021 17.5522 11.1987 17.1092C16.0021 15.7764 19.9498 15.0184 23.9871 15.0003ZM36.2806 19.0399C31.5414 17.6587 27.7832 16.9833 23.9961 17.0003C20.2124 17.0173 16.4588 17.7252 11.7334 19.0364C11.2013 19.1841 10.8895 19.7352 11.0372 20.2674C11.1849 20.7995 11.736 21.1113 12.2682 20.9636C13.675 20.5732 14.9819 20.2409 16.2175 19.9668L17.922 19.5887L17.3857 21.2502C16.6968 23.385 16.0679 25.3697 16.0058 27.236C15.9458 29.0344 16.415 30.6897 17.9587 32.206L18.2206 32.4632L19.0049 41.0905C19.0533 41.623 19.512 42.0232 20.0461 41.999C20.5802 41.9747 21.0008 41.5347 21.0008 41V33.8871L22.0682 33.9591C22.6679 33.9996 23.2966 34 24.0008 34C24.705 34 25.3337 33.9996 25.9335 33.9591L27.0008 33.8871V41C27.0008 41.5347 27.4214 41.9747 27.9555 41.999C28.4896 42.0232 28.9483 41.623 28.9967 41.0905L29.781 32.4632L30.0429 32.206C31.5911 30.6854 32.0587 29.0246 31.9953 27.2195C31.9295 25.3459 31.295 23.3544 30.6036 21.2122L30.0653 19.5443L31.7751 19.9296C33.0107 20.208 34.3164 20.5507 35.721 20.9601C36.2512 21.1146 36.8063 20.81 36.9609 20.2798C37.1154 19.7496 36.8108 19.1945 36.2806 19.0399Z" fill="#004AAD"/>
</svg>
