<svg width="48" height="48" viewBox="0 0 48 48" fill="none" xmlns="http://www.w3.org/2000/svg">
<g id="oral_contraception_pillsx28">
<path id="Vector" fill-rule="evenodd" clip-rule="evenodd" d="M8.4437 21.1717L26.8285 39.5564C27.6095 40.3375 28.8758 40.3375 29.6569 39.5564L39.5564 29.6569C40.3374 28.8759 40.3374 27.6096 39.5564 26.8285L21.1716 8.4437C20.3906 7.66266 19.1242 7.66266 18.3432 8.4437L8.4437 18.3432C7.66265 19.1243 7.66265 20.3906 8.4437 21.1717ZM25.4142 40.9706C26.9763 42.5327 29.509 42.5327 31.0711 40.9706L40.9706 31.0712C42.5327 29.5091 42.5327 26.9764 40.9706 25.4143L22.5858 7.02949C21.0237 5.46739 18.4911 5.46739 16.929 7.02949L7.02948 16.929C5.46739 18.4911 5.46738 21.0238 7.02948 22.5859L25.4142 40.9706Z" fill="#004AAD"/>
<path id="Vector_2" d="M28.5962 36.3744C28.401 36.1791 28.0844 36.1791 27.8891 36.3744C27.6939 36.5697 27.6939 36.8862 27.8891 37.0815C28.0844 37.2768 28.401 37.2768 28.5962 37.0815C28.7915 36.8862 28.7915 36.5697 28.5962 36.3744Z" stroke="#004AAD"/>
<path id="Vector_3" d="M25.7676 33.5459C25.5724 33.3506 25.2558 33.3506 25.0605 33.5459C24.8652 33.7412 24.8652 34.0578 25.0605 34.253C25.2558 34.4483 25.5724 34.4483 25.7676 34.253C25.9629 34.0578 25.9629 33.7412 25.7676 33.5459Z" stroke="#004AAD"/>
<path id="Vector_4" d="M22.9395 30.7173C22.7442 30.522 22.4276 30.522 22.2324 30.7173C22.0371 30.9126 22.0371 31.2291 22.2324 31.4244C22.4276 31.6197 22.7442 31.6197 22.9395 31.4244C23.1348 31.2291 23.1348 30.9126 22.9395 30.7173Z" stroke="#004AAD"/>
<path id="Vector_5" d="M20.1109 27.8889C19.9156 27.6937 19.599 27.6937 19.4038 27.8889C19.2085 28.0842 19.2085 28.4008 19.4038 28.596C19.599 28.7913 19.9156 28.7913 20.1109 28.596C20.3061 28.4008 20.3061 28.0842 20.1109 27.8889Z" stroke="#004AAD"/>
<path id="Vector_6" d="M17.2828 25.0607C17.0875 24.8654 16.7709 24.8654 16.5756 25.0607C16.3804 25.2559 16.3804 25.5725 16.5756 25.7678C16.7709 25.963 17.0875 25.963 17.2828 25.7678C17.478 25.5725 17.478 25.2559 17.2828 25.0607Z" stroke="#004AAD"/>
<path id="Vector_7" d="M14.4541 22.2322C14.2589 22.0369 13.9423 22.0369 13.747 22.2322C13.5518 22.4274 13.5518 22.744 13.747 22.9393C13.9423 23.1346 14.2589 23.1346 14.4541 22.9393C14.6494 22.744 14.6494 22.4274 14.4541 22.2322Z" stroke="#004AAD"/>
<path id="Vector_8" d="M11.626 19.4037C11.4308 19.2084 11.1142 19.2084 10.9189 19.4037C10.7236 19.599 10.7236 19.9155 10.9189 20.1108C11.1142 20.3061 11.4308 20.3061 11.626 20.1108C11.8213 19.9155 11.8213 19.599 11.626 19.4037Z" stroke="#004AAD"/>
<path id="Vector_9" d="M31.4248 33.5454C31.2296 33.3502 30.913 33.3502 30.7177 33.5454C30.5225 33.7407 30.5225 34.0573 30.7177 34.2525C30.913 34.4478 31.2296 34.4478 31.4248 34.2525C31.6201 34.0573 31.6201 33.7407 31.4248 33.5454Z" stroke="#004AAD"/>
<path id="Vector_10" d="M28.5962 30.7172C28.401 30.5219 28.0844 30.5219 27.8891 30.7172C27.6939 30.9124 27.6939 31.229 27.8891 31.4243C28.0844 31.6195 28.401 31.6195 28.5962 31.4243C28.7915 31.229 28.7915 30.9124 28.5962 30.7172Z" stroke="#004AAD"/>
<path id="Vector_11" d="M25.7681 27.8888C25.5728 27.6935 25.2563 27.6935 25.061 27.8888C24.8657 28.0841 24.8657 28.4006 25.061 28.5959C25.2563 28.7912 25.5728 28.7912 25.7681 28.5959C25.9634 28.4006 25.9634 28.0841 25.7681 27.8888Z" stroke="#004AAD"/>
<path id="Vector_12" d="M22.94 25.0602C22.7447 24.8649 22.4281 24.8649 22.2329 25.0602C22.0376 25.2555 22.0376 25.572 22.2329 25.7673C22.4281 25.9626 22.7447 25.9626 22.94 25.7673C23.1352 25.572 23.1352 25.2555 22.94 25.0602Z" stroke="#004AAD"/>
<path id="Vector_13" d="M20.1114 22.2317C19.9161 22.0364 19.5995 22.0364 19.4043 22.2317C19.209 22.427 19.209 22.7435 19.4043 22.9388C19.5995 23.1341 19.9161 23.1341 20.1114 22.9388C20.3066 22.7435 20.3066 22.427 20.1114 22.2317Z" stroke="#004AAD"/>
<path id="Vector_14" d="M17.2828 19.4033C17.0875 19.2081 16.7709 19.2081 16.5756 19.4033C16.3804 19.5986 16.3804 19.9152 16.5756 20.1104C16.7709 20.3057 17.0875 20.3057 17.2828 20.1104C17.478 19.9152 17.478 19.5986 17.2828 19.4033Z" stroke="#004AAD"/>
<path id="Vector_15" d="M14.4541 16.5751C14.2589 16.3798 13.9423 16.3798 13.747 16.5751C13.5518 16.7703 13.5518 17.0869 13.747 17.2822C13.9423 17.4775 14.2589 17.4775 14.4541 17.2822C14.6494 17.0869 14.6494 16.7703 14.4541 16.5751Z" stroke="#004AAD"/>
<path id="Vector_16" d="M34.2535 30.7168C34.0582 30.5215 33.7416 30.5215 33.5463 30.7168C33.3511 30.9121 33.3511 31.2287 33.5463 31.4239C33.7416 31.6192 34.0582 31.6192 34.2535 31.4239C34.4487 31.2287 34.4487 30.9121 34.2535 30.7168Z" stroke="#004AAD"/>
<path id="Vector_17" d="M31.4253 27.8884C31.2301 27.6932 30.9135 27.6932 30.7182 27.8884C30.523 28.0837 30.523 28.4003 30.7182 28.5955C30.9135 28.7908 31.2301 28.7908 31.4253 28.5955C31.6206 28.4003 31.6206 28.0837 31.4253 27.8884Z" stroke="#004AAD"/>
<path id="Vector_18" d="M28.5967 25.0602C28.4015 24.8649 28.0849 24.8649 27.8896 25.0602C27.6943 25.2555 27.6943 25.572 27.8896 25.7673C28.0849 25.9626 28.4015 25.9626 28.5967 25.7673C28.792 25.572 28.792 25.2555 28.5967 25.0602Z" stroke="#004AAD"/>
<path id="Vector_19" d="M25.7681 22.2317C25.5728 22.0364 25.2563 22.0364 25.061 22.2317C24.8657 22.427 24.8657 22.7435 25.061 22.9388C25.2563 23.1341 25.5728 23.1341 25.7681 22.9388C25.9634 22.7435 25.9634 22.427 25.7681 22.2317Z" stroke="#004AAD"/>
<path id="Vector_20" d="M22.94 19.4032C22.7447 19.2079 22.4281 19.2079 22.2329 19.4032C22.0376 19.5985 22.0376 19.9151 22.2329 20.1103C22.4281 20.3056 22.7447 20.3056 22.94 20.1103C23.1352 19.9151 23.1352 19.5985 22.94 19.4032Z" stroke="#004AAD"/>
<path id="Vector_21" d="M20.1114 16.5747C19.9161 16.3795 19.5995 16.3795 19.4043 16.5747C19.209 16.77 19.209 17.0866 19.4043 17.2818C19.5995 17.4771 19.9161 17.4771 20.1114 17.2818C20.3066 17.0866 20.3066 16.77 20.1114 16.5747Z" stroke="#004AAD"/>
<path id="Vector_22" d="M17.2828 13.7463C17.0875 13.5511 16.7709 13.5511 16.5756 13.7463C16.3804 13.9416 16.3804 14.2582 16.5756 14.4535C16.7709 14.6487 17.0875 14.6487 17.2828 14.4535C17.478 14.2582 17.478 13.9416 17.2828 13.7463Z" stroke="#004AAD"/>
<path id="Vector_23" d="M37.0821 27.8884C36.8868 27.6932 36.5702 27.6932 36.375 27.8884C36.1797 28.0837 36.1797 28.4003 36.375 28.5955C36.5702 28.7908 36.8868 28.7908 37.0821 28.5955C37.2773 28.4003 37.2773 28.0837 37.0821 27.8884Z" fill="#004AAD" stroke="#004AAD"/>
<path id="Vector_24" d="M34.2539 25.0598C34.0587 24.8646 33.7421 24.8646 33.5468 25.0598C33.3516 25.2551 33.3516 25.5717 33.5468 25.7669C33.7421 25.9622 34.0587 25.9622 34.2539 25.7669C34.4492 25.5717 34.4492 25.2551 34.2539 25.0598Z" fill="#004AAD" stroke="#004AAD"/>
<path id="Vector_25" d="M31.4253 22.2316C31.2301 22.0363 30.9135 22.0363 30.7182 22.2316C30.523 22.4268 30.523 22.7434 30.7182 22.9387C30.9135 23.1339 31.2301 23.1339 31.4253 22.9387C31.6206 22.7434 31.6206 22.4268 31.4253 22.2316Z" fill="#004AAD" stroke="#004AAD"/>
<path id="Vector_26" d="M28.5967 19.4032C28.4015 19.2079 28.0849 19.2079 27.8896 19.4032C27.6943 19.5985 27.6943 19.9151 27.8896 20.1103C28.0849 20.3056 28.4015 20.3056 28.5967 20.1103C28.792 19.9151 28.792 19.5985 28.5967 19.4032Z" fill="#004AAD" stroke="#004AAD"/>
<path id="Vector_27" d="M25.7686 16.5747C25.5733 16.3795 25.2567 16.3795 25.0615 16.5747C24.8662 16.77 24.8662 17.0866 25.0615 17.2818C25.2567 17.4771 25.5733 17.4771 25.7686 17.2818C25.9639 17.0866 25.9639 16.77 25.7686 16.5747Z" fill="#004AAD" stroke="#004AAD"/>
<path id="Vector_28" d="M22.94 13.7461C22.7447 13.5508 22.4281 13.5508 22.2329 13.7461C22.0376 13.9414 22.0376 14.2579 22.2329 14.4532C22.4281 14.6485 22.7447 14.6485 22.94 14.4532C23.1352 14.2579 23.1352 13.9414 22.94 13.7461Z" fill="#004AAD" stroke="#004AAD"/>
<path id="Vector_29" d="M20.1119 10.9177C19.9166 10.7225 19.6 10.7225 19.4047 10.9177C19.2095 11.113 19.2095 11.4296 19.4047 11.6248C19.6 11.8201 19.9166 11.8201 20.1119 11.6248C20.3071 11.4296 20.3071 11.113 20.1119 10.9177Z" fill="#004AAD" stroke="#004AAD"/>
</g>
</svg>
