<svg width="20" height="20" viewBox="0 0 20 20" fill="none" xmlns="http://www.w3.org/2000/svg">
<path d="M6.01541 2.01541C5.84547 1.84547 5.61498 1.75 5.37465 1.75C3.37281 1.75 1.75 3.37281 1.75 5.37465V7.08441C1.75 8.17869 2.01357 9.25687 2.51842 10.2277C4.1335 13.3337 6.66635 15.8665 9.77226 17.4816C10.7431 17.9864 11.8213 18.25 12.9156 18.25H15.3957C16.9721 18.25 18.25 16.9721 18.25 15.3957C18.25 14.6799 17.8923 14.0115 17.2967 13.6145C16.9831 13.4054 15.6597 12.5231 15.4906 12.4812C15.3326 12.4421 15.1674 12.4421 15.0094 12.4812C14.8403 12.5231 13.3972 13.5513 12.9443 13.7525C12.4914 13.9537 11.9799 13.9796 11.509 13.8251C11.3472 13.772 10.3741 13.3279 9.71769 12.8897C8.52001 12.0902 7.89817 11.4877 7.11031 10.2823C6.75189 9.73395 6.37527 8.93107 6.32748 8.79866C6.13235 8.25798 6.20481 7.45674 6.61034 6.91754C7.01588 6.37835 8.21265 5.28735 8.28684 5.05902C8.3521 4.85817 8.3521 4.64183 8.28684 4.44098C8.23452 4.27994 6.01541 2.01541 6.01541 2.01541Z" stroke="white" stroke-width="1.5" stroke-miterlimit="1.41421" stroke-linejoin="round"/>
</svg>
