<svg width="48" height="48" viewBox="0 0 48 48" fill="none" xmlns="http://www.w3.org/2000/svg">
<g id="oral_contraception_pillsx21">
<path id="Vector" fill-rule="evenodd" clip-rule="evenodd" d="M29.656 8.44248L8.44272 29.6557C7.66167 30.4367 7.66167 31.7031 8.44272 32.4841L15.5138 39.5552C16.2949 40.3362 17.5612 40.3362 18.3423 39.5552L39.5555 18.342C40.3365 17.5609 40.3365 16.2946 39.5555 15.5135L32.4844 8.44248C31.7033 7.66143 30.437 7.66143 29.656 8.44248ZM7.02851 28.2415C5.46641 29.8036 5.46641 32.3362 7.02851 33.8983L14.0996 40.9694C15.6617 42.5315 18.1944 42.5315 19.7565 40.9694L40.9697 19.7562C42.5318 18.1941 42.5318 15.6614 40.9697 14.0993L33.8986 7.02826C32.3365 5.46616 29.8038 5.46617 28.2417 7.02826L7.02851 28.2415Z" fill="#004AAD"/>
<path id="Vector_2" d="M16.9278 24.7059C17.416 25.1941 17.416 25.9855 16.9278 26.4737C16.4397 26.9619 15.6482 26.9619 15.1601 26.4737C14.6719 25.9855 14.6719 25.1941 15.1601 24.7059C15.6482 24.2178 16.4397 24.2178 16.9278 24.7059Z" fill="#004AAD"/>
<path id="Vector_3" d="M19.4029 22.2311C19.8911 22.7192 19.8911 23.5107 19.4029 23.9988C18.9148 24.487 18.1233 24.487 17.6351 23.9988C17.147 23.5107 17.147 22.7192 17.6351 22.2311C18.1233 21.7429 18.9148 21.7429 19.4029 22.2311Z" fill="#004AAD"/>
<path id="Vector_4" d="M21.8775 19.7563C22.3656 20.2444 22.3656 21.0359 21.8775 21.5241C21.3893 22.0122 20.5979 22.0122 20.1097 21.5241C19.6216 21.0359 19.6216 20.2444 20.1097 19.7563C20.5979 19.2681 21.3893 19.2681 21.8775 19.7563Z" fill="#004AAD"/>
<path id="Vector_5" d="M24.3527 17.2814C24.8408 17.7696 24.8408 18.561 24.3527 19.0492C23.8645 19.5373 23.0731 19.5373 22.5849 19.0492C22.0967 18.561 22.0967 17.7696 22.5849 17.2814C23.0731 16.7933 23.8645 16.7933 24.3527 17.2814Z" fill="#004AAD"/>
<path id="Vector_6" d="M26.8272 14.8065C27.3154 15.2947 27.3154 16.0861 26.8272 16.5743C26.3391 17.0625 25.5476 17.0625 25.0595 16.5743C24.5713 16.0861 24.5713 15.2947 25.0595 14.8065C25.5476 14.3184 26.3391 14.3184 26.8272 14.8065Z" fill="#004AAD"/>
<path id="Vector_7" d="M29.3023 12.3315C29.7905 12.8196 29.7905 13.6111 29.3023 14.0992C28.8142 14.5874 28.0227 14.5874 27.5345 14.0992C27.0464 13.6111 27.0464 12.8196 27.5345 12.3315C28.0227 11.8433 28.8142 11.8433 29.3023 12.3315Z" fill="#004AAD"/>
<path id="Vector_8" d="M32.4845 15.5135C32.9726 16.0017 32.9726 16.7932 32.4845 17.2813C31.9963 17.7695 31.2049 17.7695 30.7167 17.2813C30.2286 16.7932 30.2286 16.0017 30.7167 15.5135C31.2049 15.0254 31.9963 15.0254 32.4845 15.5135Z" fill="#004AAD"/>
<path id="Vector_9" d="M14.4533 27.1808C14.9414 27.669 14.9414 28.4604 14.4533 28.9486C13.9651 29.4367 13.1737 29.4367 12.6855 28.9486C12.1973 28.4604 12.1973 27.669 12.6855 27.1808C13.1737 26.6926 13.9651 26.6926 14.4533 27.1808Z" fill="#004AAD"/>
<path id="Vector_10" d="M11.6247 30.0093L11.0944 32.3074L9.32666 30.5397L11.6247 30.0093Z" fill="#004AAD"/>
<path id="Vector_11" d="M23.2921 31.07C23.7803 31.5581 23.7803 32.3496 23.2921 32.8378C22.8039 33.3259 22.0125 33.3259 21.5243 32.8378C21.0362 32.3496 21.0362 31.5581 21.5243 31.07C22.0125 30.5818 22.8039 30.5818 23.2921 31.07Z" fill="#004AAD"/>
<path id="Vector_12" d="M25.7667 28.5951C26.2548 29.0833 26.2548 29.8747 25.7667 30.3629C25.2785 30.851 24.4871 30.851 23.9989 30.3629C23.5108 29.8747 23.5108 29.0833 23.9989 28.5951C24.4871 28.107 25.2785 28.107 25.7667 28.5951Z" fill="#004AAD"/>
<path id="Vector_13" d="M28.2418 26.12C28.73 26.6082 28.73 27.3997 28.2418 27.8878C27.7537 28.376 26.9622 28.376 26.4741 27.8878C25.9859 27.3997 25.9859 26.6082 26.4741 26.12C26.9622 25.6319 27.7537 25.6319 28.2418 26.12Z" fill="#004AAD"/>
<path id="Vector_14" d="M30.7164 23.6452C31.2046 24.1333 31.2046 24.9248 30.7164 25.4129C30.2283 25.9011 29.4368 25.9011 28.9487 25.4129C28.4605 24.9248 28.4605 24.1333 28.9487 23.6452C29.4368 23.157 30.2283 23.157 30.7164 23.6452Z" fill="#004AAD"/>
<path id="Vector_15" d="M33.1915 21.1703C33.6797 21.6585 33.6797 22.4499 33.1915 22.9381C32.7033 23.4262 31.9119 23.4262 31.4237 22.9381C30.9356 22.4499 30.9356 21.6585 31.4237 21.1703C31.9119 20.6821 32.7033 20.6821 33.1915 21.1703Z" fill="#004AAD"/>
<path id="Vector_16" d="M35.6662 18.6954C36.1543 19.1836 36.1543 19.975 35.6662 20.4632C35.178 20.9513 34.3866 20.9513 33.8984 20.4632C33.4102 19.975 33.4102 19.1836 33.8984 18.6954C34.3866 18.2073 35.178 18.2073 35.6662 18.6954Z" fill="#004AAD"/>
<path id="Vector_17" d="M31.7774 9.8566C32.2655 10.3447 32.2655 11.1362 31.7774 11.6244C31.2892 12.1125 30.4978 12.1125 30.0096 11.6244C29.5215 11.1362 29.5215 10.3447 30.0096 9.8566C30.4978 9.36844 31.2892 9.36844 31.7774 9.8566Z" fill="#004AAD"/>
<path id="Vector_18" d="M38.1412 16.2206C38.6294 16.7087 38.6294 17.5002 38.1412 17.9883C37.6531 18.4765 36.8616 18.4765 36.3735 17.9883C35.8853 17.5002 35.8853 16.7087 36.3735 16.2206C36.8616 15.7324 37.6531 15.7324 38.1412 16.2206Z" fill="#004AAD"/>
<path id="Vector_19" d="M34.9591 13.0388C35.4472 13.5269 35.4472 14.3184 34.9591 14.8065C34.4709 15.2947 33.6795 15.2947 33.1913 14.8065C32.7031 14.3184 32.7031 13.5269 33.1913 13.0388C33.6795 12.5506 34.4709 12.5506 34.9591 13.0388Z" fill="#004AAD"/>
<path id="Vector_20" d="M20.817 33.5449C21.3052 34.033 21.3052 34.8245 20.817 35.3126C20.3289 35.8008 19.5374 35.8008 19.0493 35.3126C18.5611 34.8245 18.5611 34.033 19.0493 33.5449C19.5374 33.0567 20.3289 33.0567 20.817 33.5449Z" fill="#004AAD"/>
<path id="Vector_21" d="M18.342 36.0196C18.8301 36.5078 18.8301 37.2993 18.342 37.7874C17.8538 38.2756 17.0623 38.2756 16.5742 37.7874C16.086 37.2993 16.086 36.5078 16.5742 36.0196C17.0623 35.5315 17.8538 35.5315 18.342 36.0196Z" fill="#004AAD"/>
<path id="Vector_22" d="M15.1602 32.8376C15.6483 33.3257 15.6483 34.1172 15.1602 34.6053C14.672 35.0935 13.8806 35.0935 13.3924 34.6053C12.9043 34.1172 12.9043 33.3257 13.3924 32.8376C13.8806 32.3494 14.672 32.3494 15.1602 32.8376Z" fill="#004AAD"/>
<path id="Vector_23" d="M17.6348 30.3627C18.123 30.8508 18.123 31.6423 17.6348 32.1305C17.1467 32.6186 16.3552 32.6186 15.8671 32.1305C15.3789 31.6423 15.3789 30.8508 15.8671 30.3627C16.3552 29.8745 17.1467 29.8745 17.6348 30.3627Z" fill="#004AAD"/>
</g>
</svg>
