<svg width="48" height="48" viewBox="0 0 48 48" fill="none" xmlns="http://www.w3.org/2000/svg">
<path fill-rule="evenodd" clip-rule="evenodd" d="M26.8284 8.4439C30.3432 4.92918 36.0416 4.92918 39.5564 8.4439C43.0711 11.9586 43.0711 17.6571 39.5564 21.1718L21.1716 39.5566C17.6569 43.0713 11.9584 43.0713 8.44366 39.5566C4.92894 36.0419 4.92894 30.3434 8.44366 26.8287L26.8284 8.4439ZM38.1421 9.85811C35.4085 7.12444 30.9763 7.12444 28.2426 9.85811L9.85787 28.2429C7.1242 30.9766 7.1242 35.4087 9.85787 38.1424C12.5915 40.8761 17.0237 40.8761 19.7574 38.1424L38.1421 19.7576C40.8758 17.0239 40.8758 12.5918 38.1421 9.85811Z" fill="#004AAD"/>
<path fill-rule="evenodd" clip-rule="evenodd" d="M24.0001 16.9288C24.7811 16.1478 26.0475 16.1478 26.8285 16.9288L31.0712 21.1715C31.8522 21.9525 31.8522 23.2188 31.0712 23.9999L24.0001 31.071C23.219 31.852 21.9527 31.852 21.1717 31.071L16.929 26.8283C16.148 26.0473 16.148 24.7809 16.929 23.9999L24.0001 16.9288ZM29.6569 22.5857L25.4143 18.343L18.3432 25.4141L22.5859 29.6567L29.6569 22.5857Z" fill="#004AAD"/>
<path d="M33.1211 16.1214C32.7306 16.512 32.0974 16.512 31.7069 16.1214C31.3164 15.7309 31.3164 15.0977 31.7069 14.7072C32.0974 14.3167 32.7306 14.3167 33.1211 14.7072C33.5117 15.0977 33.5117 15.7309 33.1211 16.1214Z" fill="#004AAD"/>
<path d="M34.1211 12.1214C33.7306 12.512 33.0974 12.512 32.7069 12.1214C32.3164 11.7309 32.3164 11.0977 32.7069 10.7072C33.0974 10.3167 33.7306 10.3167 34.1211 10.7072C34.5117 11.0977 34.5117 11.7309 34.1211 12.1214Z" fill="#004AAD"/>
<path d="M30.1211 13.1214C29.7306 13.512 29.0974 13.512 28.7069 13.1214C28.3164 12.7309 28.3164 12.0977 28.7069 11.7072C29.0974 11.3167 29.7306 11.3167 30.1211 11.7072C30.5117 12.0977 30.5117 12.7309 30.1211 13.1214Z" fill="#004AAD"/>
<path d="M36.1211 19.1214C35.7306 19.512 35.0974 19.512 34.7069 19.1214C34.3164 18.7309 34.3164 18.0977 34.7069 17.7072C35.0974 17.3167 35.7306 17.3167 36.1211 17.7072C36.5117 18.0977 36.5117 18.7309 36.1211 19.1214Z" fill="#004AAD"/>
<path d="M37.1211 15.1214C36.7306 15.512 36.0974 15.512 35.7069 15.1214C35.3164 14.7309 35.3164 14.0977 35.7069 13.7072C36.0974 13.3167 36.7306 13.3167 37.1211 13.7072C37.5117 14.0977 37.5117 14.7309 37.1211 15.1214Z" fill="#004AAD"/>
<path d="M14.7069 31.7072C15.0974 31.3167 15.7306 31.3167 16.1211 31.7072C16.5117 32.0977 16.5117 32.7309 16.1211 33.1214C15.7306 33.5119 15.0974 33.5119 14.7069 33.1214C14.3164 32.7309 14.3164 32.0977 14.7069 31.7072Z" fill="#004AAD"/>
<path d="M13.7069 35.7072C14.0974 35.3167 14.7306 35.3167 15.1211 35.7072C15.5117 36.0977 15.5117 36.7309 15.1211 37.1214C14.7306 37.5119 14.0974 37.5119 13.7069 37.1214C13.3164 36.7309 13.3164 36.0977 13.7069 35.7072Z" fill="#004AAD"/>
<path d="M17.7069 34.7072C18.0974 34.3167 18.7306 34.3167 19.1211 34.7072C19.5117 35.0977 19.5117 35.7309 19.1211 36.1214C18.7306 36.5119 18.0974 36.5119 17.7069 36.1214C17.3164 35.7309 17.3164 35.0977 17.7069 34.7072Z" fill="#004AAD"/>
<path d="M11.7069 28.7072C12.0974 28.3167 12.7306 28.3167 13.1211 28.7072C13.5117 29.0977 13.5117 29.7309 13.1211 30.1214C12.7306 30.5119 12.0974 30.5119 11.7069 30.1214C11.3164 29.7309 11.3164 29.0977 11.7069 28.7072Z" fill="#004AAD"/>
<path d="M10.7069 32.7072C11.0974 32.3167 11.7306 32.3167 12.1211 32.7072C12.5117 33.0977 12.5117 33.7309 12.1211 34.1214C11.7306 34.5119 11.0974 34.5119 10.7069 34.1214C10.3164 33.7309 10.3164 33.0977 10.7069 32.7072Z" fill="#004AAD"/>
</svg>
