<svg width="48" height="48" viewBox="0 0 48 48" fill="none" xmlns="http://www.w3.org/2000/svg">
<g id="ppe-mask">
<path id="Vector" d="M30.2427 20.0299L24.0002 18.4692L17.7577 20.0299C17.2219 20.1638 16.8961 20.7068 17.0301 21.2425C17.164 21.7783 17.7069 22.1041 18.2427 21.9702L24.0002 20.5308L29.7577 21.9702C30.2935 22.1041 30.8364 21.7783 30.9703 21.2425C31.1043 20.7068 30.7785 20.1638 30.2427 20.0299Z" fill="#004AAD"/>
<path id="Vector_2" fill-rule="evenodd" clip-rule="evenodd" d="M8.99977 16.8683C8.99977 12.6419 20.1602 12.6419 20.1602 12.6419L21.0608 11.0263C21.4139 10.3927 22.0824 10 22.8077 10H25.3668C26.0921 10 26.7605 10.3926 27.1136 11.0261L28.0142 12.6415C28.0142 12.6415 38.9998 12.6419 38.9998 16.8683C38.9998 16.9239 38.9997 16.9794 38.9995 17.0348L40.7304 17.4548C42.6514 17.9209 43.9438 19.7203 43.772 21.6895L43.2182 28.0392C43.0808 29.6153 42.0272 30.9623 40.5305 31.4754L33.4394 33.9064C29.3436 38 24.4837 38 24.4837 38H23.5159C23.5159 38 18.6503 38 14.553 33.8992L7.36111 31.1024C5.95199 30.5544 4.97226 29.2587 4.82892 27.7536L4.25552 21.7329C4.06417 19.7237 5.39958 17.8868 7.36978 17.4489L9.00029 17.0866C8.99994 17.0141 8.99977 16.9413 8.99977 16.8683ZM9.05762 19.1226L7.80364 19.4013C6.81854 19.6202 6.15084 20.5387 6.24651 21.5433L6.81991 27.564C6.89158 28.3165 7.38145 28.9644 8.08601 29.2384L12.1824 30.8314C10.5548 28.1007 9.33177 24.3299 9.05762 19.1226ZM35.7061 31.0151L39.882 29.5835C40.6303 29.327 41.1571 28.6535 41.2258 27.8654L41.7796 21.5158C41.8655 20.5311 41.2193 19.6314 40.2588 19.3984L38.9442 19.0794C38.6685 24.427 37.3935 28.2631 35.7061 31.0151ZM22.8032 12.0107C22.6777 12.2323 22.5627 12.4458 22.4535 12.6487C21.8201 13.8249 21.3772 14.6473 20.1782 14.6473C14.2365 14.6473 11.1902 16.2197 11.1902 16.7917C11.1902 33.2373 20.1634 35.8195 23.782 35.9903C23.8531 35.9968 23.9256 36 23.9997 36C24.0293 36 24.0595 35.9998 24.0901 35.9995C24.1207 35.9998 24.1509 36 24.1805 36C24.2545 36 24.3271 35.9968 24.3981 35.9903C28.0168 35.8195 36.9899 33.2373 36.9899 16.7917C36.9899 16.2197 33.9437 14.6473 28.002 14.6473C26.8029 14.6473 26.3601 13.825 25.7268 12.6488C25.6175 12.446 25.5024 12.2322 25.377 12.0107H22.8032Z" fill="#004AAD"/>
</g>
</svg>
