<svg width="82" height="82" viewBox="0 0 82 82" fill="none" xmlns="http://www.w3.org/2000/svg">
<path d="M76 1H6C3.23858 1 1 3.23858 1 6V76C1 78.7614 3.23858 81 6 81H76C78.7614 81 81 78.7614 81 76V6C81 3.23858 78.7614 1 76 1Z" stroke="#004AAD" stroke-width="1.5" stroke-miterlimit="10"/>
<g clip-path="url(#clip0_228_152)">
<path d="M67 17H19V65H67V17Z" fill="white"/>
<path fill-rule="evenodd" clip-rule="evenodd" d="M33 23C31.8954 23 31 23.8954 31 25V32.1C28.7178 32.5633 27 34.581 27 37V54C27 56.7614 29.2386 59 32 59H44C46.0503 59 47.8124 57.7659 48.584 56H46.2361C45.6868 56.6137 44.8885 57 44 57H32C30.3431 57 29 55.6569 29 54V53H39C39.5523 53 40 52.5523 40 52C40 51.4477 39.5523 51 39 51H29V42H37C37.5523 42 38 41.5523 38 41C38 40.4477 37.5523 40 37 40H29V37C29 35.3431 30.3431 34 32 34H44C44.8885 34 45.6868 34.3863 46.2361 35H48.584C47.9413 33.5291 46.6113 32.4271 45 32.1V25C45 23.8954 44.1046 23 43 23H33ZM43 25H33V32H43V25Z" fill="#004AAD"/>
<path d="M50 41C50.5523 41 51 41.4477 51 42V44H53C53.5523 44 54 44.4477 54 45C54 45.5523 53.5523 46 53 46H51V48C51 48.5523 50.5523 49 50 49C49.4477 49 49 48.5523 49 48V46H47C46.4477 46 46 45.5523 46 45C46 44.4477 46.4477 44 47 44H49V42C49 41.4477 49.4477 41 50 41Z" fill="#004AAD"/>
<path fill-rule="evenodd" clip-rule="evenodd" d="M42.6597 50.6888C44.3871 52.8713 46.8 54.3922 49.4992 55C52.1987 54.3926 54.612 52.8717 56.3397 50.6892C58.0674 48.5067 59.006 45.7934 59 42.9984V39.3997C59 38.7632 58.7498 38.1529 58.3045 37.7028C57.8592 37.2528 57.2553 37 56.6256 37H42.3744C41.7447 37 41.1408 37.2528 40.6955 37.7028C40.2502 38.1529 40 38.7632 40 39.3997V42.9984C39.9939 45.7932 40.9323 48.5063 42.6597 50.6888ZM57 42.9984V43.0027C57.005 45.3476 56.2174 47.6214 54.7716 49.4479C53.4208 51.1542 51.5719 52.3738 49.4993 52.9395C47.427 52.3736 45.5784 51.1539 44.2279 49.4475C42.7823 47.6211 41.9949 45.3475 42 43.0027V39.3997C42 39.2869 42.0446 39.1829 42.1172 39.1096C42.189 39.0369 42.282 39 42.3744 39H56.6256C56.718 39 56.811 39.0369 56.8828 39.1096C56.9554 39.1829 57 39.2869 57 39.3997V42.9984Z" fill="#004AAD"/>
</g>
<defs>
<clipPath id="clip0_228_152">
<rect width="48" height="48" fill="white" transform="translate(19 17)"/>
</clipPath>
</defs>
</svg>
