<svg width="48" height="48" viewBox="0 0 48 48" fill="none" xmlns="http://www.w3.org/2000/svg">
<g id="factory_worker">
<path id="Vector" fill-rule="evenodd" clip-rule="evenodd" d="M21.0582 8.51919C18.3605 9.50375 16.2445 11.8046 15.3993 14.6943C13.8977 15.4637 13 16.439 13 17.5C13 18.698 14.1443 19.7866 16.0102 20.593C16.0034 20.7278 16 20.8635 16 21C16 25.4183 19.5817 29 24 29C28.4183 29 32 25.4183 32 21C32 20.8635 31.9966 20.7278 31.9898 20.593C33.8557 19.7866 35 18.698 35 17.5C35 16.439 34.1023 15.4637 32.6007 14.6943C31.7555 11.8046 29.6395 9.50375 26.9418 8.51919C26.7266 7.64685 25.9388 7 25 7H23C22.0612 7 21.2734 7.64685 21.0582 8.51919ZM22 13C22.5523 13 23 12.5523 23 12V9H25V12C25 12.5523 25.4477 13 26 13C26.5523 13 27 12.5523 27 12V10.7222C28.5867 11.5315 29.8684 12.9745 30.5247 14.7783C30.5221 14.7896 30.5197 14.8011 30.5175 14.8126C30.4859 14.8381 30.4358 14.8741 30.3595 14.9197C30.0743 15.0898 29.602 15.2763 28.9481 15.4464C27.6549 15.7827 25.8668 16 24 16C22.1332 16 20.3451 15.7827 19.0519 15.4464C18.398 15.2763 17.9257 15.0898 17.6405 14.9197C17.5642 14.8741 17.5141 14.8381 17.4825 14.8126C17.4819 14.8097 17.4814 14.8068 17.4808 14.804C17.4791 14.7954 17.4773 14.7868 17.4753 14.7783C18.1316 12.9745 19.4133 11.5315 21 10.7222V12C21 12.5523 21.4477 13 22 13ZM16.3438 16.4576L16.3112 16.4743C15.704 16.7854 15.3372 17.0806 15.1439 17.3022C15.0585 17.4001 15.0216 17.4654 15.0064 17.4996C15.0271 17.5476 15.0879 17.6525 15.2549 17.814C15.5681 18.117 16.1261 18.4819 16.9791 18.8309C18.6753 19.5248 21.1565 20 24 20C26.8435 20 29.3247 19.5248 31.0209 18.8309C31.8739 18.4819 32.4319 18.117 32.7451 17.814C32.9121 17.6525 32.9729 17.5476 32.9936 17.4996C32.9784 17.4654 32.9415 17.4001 32.8561 17.3022C32.6628 17.0806 32.296 16.7854 31.6888 16.4743L31.6562 16.4576C31.5615 16.5271 31.4687 16.5868 31.3841 16.6373C30.867 16.9457 30.1892 17.1902 29.4514 17.382C27.9611 17.7696 25.9992 18 24 18C22.0008 18 20.0389 17.7696 18.5486 17.382C17.8108 17.1902 17.133 16.9457 16.6159 16.6373C16.5313 16.5868 16.4385 16.5271 16.3438 16.4576ZM33.0032 17.5284C33.0032 17.5284 33.0019 17.5253 33.0011 17.519C33.0031 17.5254 33.0032 17.5284 33.0032 17.5284ZM33.0033 17.4695C33.0033 17.4695 33.0019 17.4729 33.0011 17.4797C33.0021 17.4764 33.0031 17.4722 33.0031 17.4722L33.0033 17.4695ZM14.9984 17.4762C14.9977 17.4717 14.9967 17.4695 14.9967 17.4695C14.9967 17.4695 14.9968 17.4729 14.9989 17.4797L14.9984 17.4762ZM14.9981 17.5242L14.9989 17.519L14.9979 17.5223C14.9968 17.5264 14.9968 17.5284 14.9968 17.5284C14.9968 17.5284 14.9975 17.527 14.9981 17.5242ZM29.9939 21.2739C28.2696 21.7332 26.211 22 24 22C21.789 22 19.7304 21.7332 18.0061 21.2739C18.1493 24.4605 20.7781 27 24 27C27.2219 27 29.8507 24.4605 29.9939 21.2739Z" fill="#004AAD"/>
<path id="Vector_2" fill-rule="evenodd" clip-rule="evenodd" d="M34.6853 26.5941C34.8001 26.2346 34.7027 25.841 34.4334 25.5766C34.1642 25.3121 33.7689 25.2218 33.4115 25.343C30.8475 26.2125 29 28.6391 29 31.4999C29 33.8024 30.1974 35.8239 32 36.9779V40.9999C32 41.5522 32.4477 41.9999 33 41.9999H38C38.5523 41.9999 39 41.5522 39 40.9999V36.9779C40.8026 35.8239 42 33.8024 42 31.4999C42 28.6391 40.1525 26.2125 37.5885 25.343C37.2311 25.2218 36.8358 25.3121 36.5666 25.5766C36.2973 25.841 36.1999 26.2346 36.3147 26.5941C36.3232 26.6207 36.3305 26.648 36.3365 26.6761L36.8936 29.276C37.0837 30.1632 36.4074 30.9999 35.5 30.9999C34.5926 30.9999 33.9163 30.1632 34.1064 29.276L34.6635 26.6761C34.6695 26.648 34.6768 26.6207 34.6853 26.5941ZM38.8492 28.8569L38.7481 28.3853C39.5238 29.1941 40 30.2919 40 31.4999C40 33.2478 39.0036 34.7648 37.5433 35.5106C37.1962 35.6878 36.9837 36.0506 36.9988 36.44C36.9996 36.4598 37 36.4798 37 36.4999V39.9999H34V36.4999C34 36.4974 34 36.4949 34 36.4924C34.0001 36.4748 34.0005 36.4574 34.0012 36.44C34.0163 36.0506 33.8038 35.6878 33.4567 35.5106C31.9964 34.7648 31 33.2478 31 31.4999C31 30.2919 31.4762 29.1941 32.2519 28.3853L32.1508 28.857C31.6939 30.9892 33.3193 32.9999 35.5 32.9999C37.6807 32.9999 39.3061 30.9892 38.8492 28.8569Z" fill="#004AAD"/>
<path id="Vector_3" fill-rule="evenodd" clip-rule="evenodd" d="M18.3533 28.6082L23 32.2224V35.897C23.2046 35.9495 23.5251 36.0001 24 36.0001C24.4749 36.0001 24.7954 35.9495 25 35.897V32.0001L27 30.5001V42.0001H6V36.0001C6 32.339 12.52 29.7275 18.3533 28.6082ZM14.4748 36.2681L21 35.1806V40.0001H13V32.1807C14.048 31.7731 15.1853 31.4136 16.3506 31.1097L14.4748 36.2681ZM8 40.0001H11V33.079L10.9258 33.1181C9.86246 33.6817 9.08395 34.2566 8.59368 34.799C8.1146 35.3291 8 35.7219 8 36.0001V40.0001ZM24 38.0001C23.6217 38.0001 23.2903 37.9753 23 37.9329V40.0001H25V37.9329C24.7097 37.9753 24.3783 38.0001 24 38.0001ZM20.9497 33.1614L18.4419 31.2109L17.5251 33.7321L20.9497 33.1614Z" fill="#004AAD"/>
</g>
</svg>
