<svg width="32" height="45" viewBox="0 0 32 45" fill="none" xmlns="http://www.w3.org/2000/svg">
<path id="Vector" d="M4.75 27.2436V12.9289C4.75 11.0307 5.34263 9.21017 6.39752 7.86791C7.45242 6.52564 8.88316 5.77157 10.375 5.77157C11.8668 5.77157 13.2976 6.52564 14.3525 7.86791C15.4074 9.21017 16 11.0307 16 12.9289V32.0152C16 33.9134 16.5926 35.7339 17.6475 37.0762C18.7024 38.4185 20.1332 39.1725 21.625 39.1725C23.1168 39.1725 24.5476 38.4185 25.6025 37.0762C26.6574 35.7339 27.25 33.9134 27.25 32.0152V17.7005M4.75 27.2436C3.75544 27.2436 2.80161 27.7463 2.09835 28.6412C1.39509 29.536 1 30.7497 1 32.0152V39.1725C1 40.438 1.39509 41.6517 2.09835 42.5465C2.80161 43.4414 3.75544 43.9441 4.75 43.9441C5.74456 43.9441 6.69839 43.4414 7.40165 42.5465C8.10491 41.6517 8.5 40.438 8.5 39.1725V32.0152C8.5 30.7497 8.10491 29.536 7.40165 28.6412C6.69839 27.7463 5.74456 27.2436 4.75 27.2436ZM27.25 17.7005C28.2446 17.7005 29.1984 17.1978 29.9016 16.3029C30.6049 15.4081 31 14.1944 31 12.9289V5.77157C31 4.50607 30.6049 3.2924 29.9016 2.39756C29.1984 1.50272 28.2446 1 27.25 1C26.2554 1 25.3016 1.50272 24.5984 2.39756C23.8951 3.2924 23.5 4.50607 23.5 5.77157V12.9289C23.5 14.1944 23.8951 15.4081 24.5984 16.3029C25.3016 17.1978 26.2554 17.7005 27.25 17.7005Z" stroke="#004AAD" stroke-width="2" stroke-linecap="round" stroke-linejoin="round"/>
</svg>
