<svg width="40" height="40" viewBox="0 0 40 40" fill="none" xmlns="http://www.w3.org/2000/svg">
<path d="M15.6232 10.6796C14.1726 10.736 12.8627 11.2535 12.1619 11.9544C11.8365 12.2799 11.3089 12.2799 10.9834 11.9545C10.6579 11.6292 10.6579 11.1015 10.9833 10.776C12.0644 9.6947 13.8239 9.0817 15.5584 9.0142C17.3041 8.94628 19.21 9.42428 20.5448 10.7593C20.8701 11.0847 20.8701 11.6124 20.5446 11.9378C20.2192 12.2632 19.6915 12.2631 19.3661 11.9377C18.4569 11.0283 17.0624 10.6236 15.6232 10.6796Z" fill="white"/>
<path fill-rule="evenodd" clip-rule="evenodd" d="M22.8201 24.1129C20.9339 25.7062 18.4957 26.6667 15.8333 26.6667C9.85025 26.6667 5 21.8164 5 15.8333C5 9.85025 9.85025 5 15.8333 5C21.8164 5 26.6667 9.85025 26.6667 15.8333C26.6667 18.4957 25.7062 20.9339 24.1129 22.8201L25.9535 22.5L34.5232 31.0697C35.1589 31.7055 35.1589 32.7362 34.5232 33.372L33.372 34.5232C32.7362 35.1589 31.7055 35.1589 31.0697 34.5232L22.5 25.9535L22.8201 24.1129ZM25 15.8333C25 20.8959 20.8959 25 15.8333 25C10.7707 25 6.66667 20.8959 6.66667 15.8333C6.66667 10.7707 10.7707 6.66667 15.8333 6.66667C20.8959 6.66667 25 10.7707 25 15.8333ZM31.0406 29.9442L25.3867 24.2902L24.4527 24.4527L24.2902 25.3867L29.9608 31.0572L31.0406 29.9442ZM31.1395 32.2359L32.2208 33.3173L33.3173 32.2208L32.2193 31.1228L31.1395 32.2359Z" fill="white"/>
</svg>
