<svg width="82" height="82" viewBox="0 0 82 82" fill="none" xmlns="http://www.w3.org/2000/svg">
<g clip-path="url(#clip0_74_565)">
<path d="M34.6379 33C27.6551 33 23 39.1176 23 42.1765C23.6044 42.2187 24.5517 42.1765 24.5517 42.1765C24.5517 42.1765 26.8251 38.3529 32.3103 38.3529C35.4764 38.3529 38.2462 39.6361 39.4417 41.5627C40.0146 42.4857 38.9479 43.305 37.8834 43.04C35.1346 42.3557 30.2695 41.6528 26.1034 43.7059V46.7647C28.9906 45.1386 32.7547 45.4575 35.6476 46.113C38.4106 46.739 40.0689 49.3234 40.0689 52.1176V59H44.0745V44.7C44.0745 40.5888 45.6065 39.5991 48.4311 37.5284C48.9843 37.123 49.1565 36.3847 48.8482 35.777C48.3746 34.8432 47.0364 34.7061 46.1432 35.2669C45.2772 35.8104 44.1324 36.25 42.7032 36.25C40.8447 36.25 39.0219 33 34.6379 33Z" fill="#004AAD"/>
<path fill-rule="evenodd" clip-rule="evenodd" d="M35.2857 52.75C35.2857 51.2312 33.8786 50 32.1428 50H29C28.5058 50 28.2419 49.913 28.1132 49.8548C27.982 49.7957 27.8763 49.7143 27.7791 49.5963C27.6737 49.4683 27.5799 49.2966 27.5139 49.0942C27.4466 48.8879 27.4286 48.7125 27.4286 48.625V44.5C27.4286 43.1045 26.234 41.9303 24.6498 41.7686L24.2857 44.5V48.625C24.2857 50 25.2285 52.75 29 52.75H32.1428V61H54.1429V50.0897C54.1429 47.4426 55.7111 45.0398 57.6913 43.0387C59.258 41.4552 60.4746 39.6475 61.1813 37.7126C62.3584 34.4891 62.2642 31.0478 60.9116 27.8699C59.5591 24.6919 57.0157 21.936 53.6372 19.9871C50.2586 18.0383 46.2136 16.994 42.0672 17C37.7825 17.0268 33.6203 18.162 30.1867 20.2403C26.753 22.3185 24.2272 25.2313 22.9773 28.5544C22.5739 29.7897 22.1258 33.4232 22.1258 33.4232C21.4089 34.9856 20.647 36.5115 19.8852 38.0377L18.8097 40.254C18.4084 40.8543 18.1356 41.5054 18.0031 42.1797C17.974 42.6275 18.15 43.0681 18.4975 43.4169C18.8449 43.7658 19.3393 43.998 19.8852 44.0691C20.0645 44.0691 24.2857 44.5 24.2857 44.5C24.6498 41.7686 24.6499 41.7686 24.6498 41.7686L23.9849 41.7009C23.5855 41.6605 23.0504 41.6065 22.5093 41.5523C22.2123 41.5227 21.9124 41.4929 21.6314 41.4652C21.6565 41.4203 21.6803 41.3748 21.7026 41.3288L22.7718 39.1253L22.774 39.1212C23.53 37.6065 24.3077 36.0487 25.0423 34.4479C25.1495 34.2142 25.2196 33.9688 25.2506 33.7184L25.2507 33.7169L25.255 33.6825L25.2691 33.5711C25.2817 33.4735 25.3001 33.3316 25.3235 33.157C25.3705 32.8069 25.4371 32.3293 25.5155 31.8166C25.6792 30.7452 25.8589 29.7717 25.985 29.3547C27.019 26.651 29.0982 24.2428 31.9745 22.5019C34.8726 20.748 38.413 19.7745 42.0812 19.75C45.6238 19.7463 49.0593 20.6403 51.9073 22.2832C54.7552 23.9258 56.8573 26.2239 57.9663 28.8296C59.0738 31.4316 59.1499 34.2402 58.1876 36.8755C57.6256 38.4143 56.6388 39.901 55.3153 41.2386C53.1192 43.458 51 46.4856 51 50.0897V58.25H35.2857V52.75Z" fill="#004AAD"/>
</g>
<path d="M76 1H6C3.23858 1 1 3.23858 1 6V76C1 78.7614 3.23858 81 6 81H76C78.7614 81 81 78.7614 81 76V6C81 3.23858 78.7614 1 76 1Z" stroke="#004AAD" stroke-width="1.5" stroke-miterlimit="10"/>
<defs>
<clipPath id="clip0_74_565">
<rect width="44" height="44" fill="white" transform="translate(18 17)"/>
</clipPath>
</defs>
</svg>
