<svg width="42" height="42" viewBox="0 0 42 42" fill="none" xmlns="http://www.w3.org/2000/svg">
<path d="M5.25 21H7M21 5.25V7M35 21H36.75M21 35V36.75M9.8 9.8L11.025 11.025M32.2 9.8L30.975 11.025M30.975 30.975L32.2 32.2M11.025 30.975L9.8 32.2M14 21C14 22.8565 14.7375 24.637 16.0503 25.9497C17.363 27.2625 19.1435 28 21 28C22.8565 28 24.637 27.2625 25.9497 25.9497C27.2625 24.637 28 22.8565 28 21C28 19.1435 27.2625 17.363 25.9497 16.0503C24.637 14.7375 22.8565 14 21 14C19.1435 14 17.363 14.7375 16.0503 16.0503C14.7375 17.363 14 19.1435 14 21Z" stroke="#004AAD" stroke-width="2" stroke-linecap="round" stroke-linejoin="round"/>
</svg>
