<svg width="82" height="82" viewBox="0 0 82 82" fill="none" xmlns="http://www.w3.org/2000/svg">
<path d="M76 1H6C3.23858 1 1 3.23858 1 6V76C1 78.7614 3.23858 81 6 81H76C78.7614 81 81 78.7614 81 76V6C81 3.23858 78.7614 1 76 1Z" stroke="#004AAD" stroke-miterlimit="10"/>
<path d="M63.8595 43.8548C63.8595 43.7699 63.8344 43.6909 63.7913 43.6247C63.7731 43.5901 63.7413 43.5302 63.6964 43.447C63.0994 42.2908 62.228 40.0668 61.2192 37.492C58.4989 30.5492 54.7733 21.0409 51.2074 18.4529C50.1943 17.7178 49.1033 17 47.884 17C47.5399 17 47.1986 17.059 46.8692 17.1753C45.5717 17.5671 44.357 18.4175 43.182 19.2399C42.4902 19.7242 41.8335 20.184 41.1675 20.5531C40.4195 20.1683 39.8975 19.6767 39.3003 19.1144C38.8569 18.697 38.3986 18.2653 37.814 17.8479C37.1193 17.3269 36.3421 17.0628 35.5037 17.0628C34.5239 17.0628 33.4658 17.4235 32.3586 18.1349C28.0304 20.9164 22.9 32.8715 19.8347 40.0144C19.181 41.5378 18.6165 42.8532 18.178 43.8047C18.1779 43.8047 18.1779 43.8048 18.1779 43.805C18.1392 43.8891 18.1307 43.9847 18.1521 44.0765L18.1507 44.0787C18.2018 44.2942 19.4424 49.4179 22.8712 54.5985C24.8926 57.6527 27.2559 60.0786 29.8954 61.8088C33.1269 63.9271 36.7764 64.9999 40.748 64.9999C40.8437 64.9999 40.9396 64.9993 41.0356 64.998C45.1166 65.0514 48.8636 63.9711 52.1655 61.788C54.7988 60.0471 57.1535 57.6062 59.164 54.5332C62.5177 49.4072 63.7552 44.3372 63.843 43.965C63.8526 43.9298 63.8595 43.8932 63.8595 43.8548ZM32.7106 47.379C32.6769 47.3265 29.5268 42.3598 30.1881 38.5389C31.2436 39.2682 35.5159 42.5846 35.0309 48.1489C34.2605 47.873 33.4911 47.6341 32.735 47.4271C32.7273 47.4108 32.7205 47.3944 32.7106 47.379ZM39.1064 45.5528C39.5146 46.1613 40.198 46.5146 41.1375 46.6027C41.1638 46.6051 41.1901 46.6051 41.2162 46.6027C42.1521 46.515 42.8304 46.1638 43.2319 45.5592C44.1009 44.251 43.4377 42.1413 42.9048 40.4461C42.7285 39.8851 42.5619 39.3552 42.501 38.9895C42.3251 37.934 42.9297 36.1777 44.213 35.1807C45.4615 34.2108 47.091 34.1255 48.9251 34.9337C50.2846 35.5328 51.1942 36.456 51.6331 37.6797C51.4051 37.8213 50.0002 38.7288 48.6594 40.39C46.7523 42.7527 45.9008 45.5209 46.1968 48.3955C46.2086 48.511 46.2668 48.6097 46.35 48.6779C44.6233 49.3911 42.8693 50.2879 41.1947 51.4182C39.5625 50.1544 37.7158 49.1901 35.8447 48.454C35.8494 48.4348 35.8542 48.4157 35.8563 48.3955C36.1522 45.5209 35.3006 42.7527 33.3937 40.39C32.0365 38.7087 30.6144 37.7997 30.4127 37.6753C30.8522 36.4536 31.7614 35.532 33.1192 34.9336C35.4877 33.8899 37.0819 34.5229 38.0022 35.2378C39.3101 36.2539 39.9375 37.9763 39.7687 38.9894C39.7092 39.3464 39.5602 39.8357 39.3877 40.4023C38.868 42.1091 38.2213 44.2333 39.1064 45.5528ZM49.3339 47.379C49.285 47.4554 49.2644 47.5414 49.2682 47.6255C48.5378 47.8531 47.7905 48.1112 47.0349 48.4038C47.0387 48.3729 47.0399 48.3414 47.0366 48.3092C46.7612 45.633 47.522 43.1546 49.2981 40.9432C50.3135 39.6789 51.3895 38.8669 51.8573 38.544C52.5149 42.3641 49.3677 47.3264 49.3339 47.379ZM40.7548 52.1476V54.6856C40.7548 54.9187 40.9438 55.1077 41.1769 55.1077C41.41 55.1077 41.599 54.9187 41.599 54.6856V52.1656C46.0866 49.1153 51.1917 47.7866 54.7054 47.2098C57.4574 46.7581 59.6831 46.6845 60.7518 46.6801C59.9053 47.6399 58.8307 48.7345 57.5295 49.8243C54.177 52.6321 48.5934 55.9791 41.0324 55.9791C33.47 55.9791 27.8674 52.6653 24.4991 49.8855C23.2361 48.843 22.1836 47.7956 21.3455 46.8689C24.0654 46.8354 34.2801 47.0709 40.7548 52.1476ZM61.4622 45.8444C61.2249 45.8349 58.4518 45.7414 54.5901 46.3733C53.3461 46.5768 51.9069 46.8727 50.3657 47.3015C51.2553 45.7589 53.587 41.2207 52.5191 37.6711C52.0414 36.0829 50.9468 34.902 49.2656 34.1612C46.5674 32.9722 44.747 33.6969 43.6951 34.514C42.1455 35.7178 41.4477 37.8055 41.6682 39.1284C41.7388 39.5523 41.906 40.0838 42.0995 40.6992C42.5533 42.1428 43.1747 44.1197 42.5288 45.0921C42.2766 45.4718 41.8341 45.6899 41.1769 45.7582C40.5143 45.6893 40.0661 45.4681 39.8075 45.0824C39.1456 44.0958 39.7524 42.1032 40.1953 40.6483C40.3765 40.0534 40.5328 39.5397 40.6014 39.1283C40.8118 37.8663 40.1538 35.8402 38.5201 34.5712C36.9629 33.3615 34.9239 33.2159 32.7788 34.1611C31.0976 34.902 30.0031 36.0828 29.5253 37.671C28.4943 41.0984 30.6327 45.4473 31.582 47.1316C30.3386 46.8359 29.153 46.6236 28.0883 46.4712C23.9883 45.8842 20.8546 46.0313 20.6265 46.0432C20.0549 45.3618 19.6255 44.7867 19.341 44.384L21.5316 44.3295C21.7646 44.3236 21.9488 44.1301 21.943 43.897C21.9372 43.664 21.7462 43.4808 21.5106 43.4855L19.487 43.5359C19.6782 43.315 19.9129 43.049 20.1887 42.7454H27.2295C27.4626 42.7454 27.6516 42.5564 27.6516 42.3233C27.6516 42.0902 27.4626 41.9012 27.2295 41.9012H20.9735C22.149 40.6652 23.7708 39.0816 25.7063 37.5057C29.4646 34.4455 35.1995 30.7977 41.1769 30.7977C47.1476 30.7977 52.7798 34.4041 56.4532 37.4295C59.3831 39.8425 61.5661 42.279 62.54 43.4297L59.7446 43.4206C59.7441 43.4206 59.7437 43.4206 59.7432 43.4206C59.5108 43.4206 59.3219 43.6088 59.3212 43.8414C59.3204 44.0745 59.5088 44.2641 59.7419 44.2649L62.6525 44.2743C62.3835 44.6611 61.9867 45.203 61.4622 45.8444ZM54.354 31.7127C57.2236 34.8116 59.5758 38.2438 61.1071 40.6965C60.0354 39.5273 58.6486 38.1452 57.0039 36.7895C56.2039 36.1301 55.312 35.4441 54.3455 34.7719C54.351 34.7447 54.354 34.7165 54.354 34.6876V31.7127ZM53.5098 34.2075C51.8301 33.106 49.9534 32.0753 47.9491 31.3045V26.3093C49.9261 27.4942 51.7991 29.0838 53.5098 30.8267V34.2075ZM47.1049 30.9998C45.3416 30.3987 43.4913 30.012 41.599 29.9614V24.2136C43.4823 24.2921 45.3311 24.8892 47.1049 25.8316V30.9998ZM40.7548 29.9615C38.8321 30.0133 36.9433 30.4148 35.1394 31.0376V26.0057C35.1394 25.9717 35.1343 25.9391 35.1267 25.9074C36.9356 24.9319 38.8316 24.2962 40.7548 24.2141V29.9615ZM34.2952 31.3466C32.2992 32.1211 30.4216 33.1484 28.7346 34.246V30.869C30.4091 29.1899 32.2912 27.5927 34.2952 26.3827V31.3466ZM27.8903 34.8111C26.9039 35.4907 25.9922 36.1845 25.1733 36.8512C23.5945 38.1367 22.2197 39.429 21.1187 40.5407C22.2911 38.7205 23.8842 36.423 25.7738 34.1401C26.4234 33.3553 27.1319 32.5444 27.8903 31.7399V34.8111ZM32.815 18.8451C33.7836 18.2226 34.6883 17.907 35.5036 17.907C36.1552 17.907 36.7621 18.1143 37.3152 18.529C37.8611 18.919 38.2984 19.3308 38.7213 19.729C39.3913 20.3598 40.0241 20.9557 40.9982 21.4102C41.1178 21.466 41.2564 21.4627 41.3733 21.4013C42.1512 20.9919 42.9212 20.4528 43.6659 19.9315C44.7892 19.1452 45.9507 18.3322 47.1218 17.9809C47.1288 17.9788 47.1357 17.9765 47.1425 17.9741C47.3871 17.8867 47.6295 17.8442 47.8837 17.8442C48.8501 17.8442 49.8105 18.4824 50.7113 19.1362C51.5216 19.7244 52.3586 20.7377 53.1978 22.026H49.5185C49.2853 22.026 49.0964 22.215 49.0964 22.4481C49.0964 22.6812 49.2853 22.8702 49.5185 22.8702H53.725C56.1949 26.9845 58.6388 33.2214 60.4329 37.8C60.5322 38.0534 60.63 38.3032 60.7265 38.5491C59.5305 36.7484 58.0279 34.6635 56.3002 32.6368C51.0526 26.4811 45.9644 23.3598 41.1767 23.3598C41.1765 23.3598 41.1768 23.3598 41.1766 23.3598C38.3935 23.3598 35.4457 24.4479 32.4161 26.5936C30.0202 28.2904 27.5635 30.6519 25.1144 33.6125C23.6534 35.3786 22.3669 37.1536 21.312 38.715C24.3796 31.602 29.0073 21.2921 32.815 18.8451ZM41.0411 64.1539C41.0375 64.1539 41.0337 64.1539 41.03 64.1539C37.9085 64.1953 35.0274 63.5702 32.3997 62.2874H38.9384C39.1715 62.2874 39.3605 62.0984 39.3605 61.8653C39.3605 61.6322 39.1715 61.4432 38.9384 61.4432H30.8629C30.2428 61.0642 29.6384 60.645 29.0494 60.187H30.8781C31.1112 60.187 31.3003 59.998 31.3003 59.7649C31.3003 59.5318 31.1112 59.3428 30.8781 59.3428H28.0319C26.4249 57.9233 24.9418 56.1938 23.5887 54.1528C21.6433 51.2184 20.4053 48.2491 19.7064 46.2634C20.6598 47.434 22.0674 48.9699 23.9376 50.5167C26.1497 52.3462 28.5495 53.8043 31.0704 54.8505C34.2246 56.1596 37.5763 56.8234 41.0326 56.8234C44.4895 56.8234 47.8383 56.1528 50.9858 54.8301C53.5013 53.7729 55.8935 52.2997 58.0959 50.4514C59.9515 48.8941 61.3472 47.3478 62.294 46.1668C61.6276 48.0887 60.4673 50.9202 58.6614 53.7549H55.1434C54.9103 53.7549 54.7213 53.944 54.7213 54.1771C54.7213 54.4102 54.9103 54.5992 55.1434 54.5992H58.1031C57.1987 55.9227 56.2376 57.1097 55.221 58.1601H46.6269C46.3938 58.1601 46.2048 58.3491 46.2048 58.5822C46.2048 58.8153 46.3938 59.0043 46.6269 59.0043H54.3628C50.6114 62.4939 46.1525 64.223 41.0411 64.1539Z" fill="#004AAD"/>
</svg>
