<svg width="44" height="44" viewBox="0 0 44 44" fill="none" xmlns="http://www.w3.org/2000/svg">
<path fill-rule="evenodd" clip-rule="evenodd" d="M21.9997 33.0001C22.7388 33.0001 23.4267 33.2187 24.0025 33.5949L25.6677 3.66675L26.583 3.71767L27.4982 3.66675L29.1634 33.5949C29.7393 33.2187 30.4272 33.0001 31.1663 33.0001C33.1913 33.0001 34.833 34.6417 34.833 36.6667C34.833 38.6918 33.1913 40.3334 31.1663 40.3334C29.1505 40.3334 27.5146 38.7067 27.4998 36.6944L27.2948 33.0113H25.8711L25.6663 36.6944C25.6513 38.7067 24.0154 40.3334 21.9997 40.3334C19.9746 40.3334 18.333 38.6918 18.333 36.6667C18.333 34.6417 19.9746 33.0001 21.9997 33.0001ZM26.583 20.2179L27.1928 31.1779H25.9731L26.583 20.2179ZM26.583 17.4486C27.0893 17.4486 27.4997 17.0388 27.4997 16.5333C27.4997 16.0277 27.0893 15.6179 26.583 15.6179C26.0767 15.6179 25.6663 16.0277 25.6663 16.5333C25.6663 17.0388 26.0767 17.4486 26.583 17.4486ZM21.9997 34.8334C20.9871 34.8334 20.1663 35.6542 20.1663 36.6667C20.1663 37.6793 20.9871 38.5001 21.9997 38.5001C23.0122 38.5001 23.833 37.6793 23.833 36.6667C23.833 35.6542 23.0122 34.8334 21.9997 34.8334ZM29.333 36.6667C29.333 35.6542 30.1538 34.8334 31.1663 34.8334C32.1789 34.8334 32.9997 35.6542 32.9997 36.6667C32.9997 37.6793 32.1789 38.5001 31.1663 38.5001C30.1538 38.5001 29.333 37.6793 29.333 36.6667Z" fill="#004AAD"/>
<path fill-rule="evenodd" clip-rule="evenodd" d="M14.6668 3.8811L13.2785 4.71408L13.7502 5.50011C13.2785 4.71408 13.2772 4.71485 13.2772 4.71485L13.2759 4.71567L13.2729 4.71746L13.2662 4.7216L13.2493 4.73219C13.2365 4.74029 13.2209 4.75048 13.2024 4.76287C13.1657 4.78768 13.1179 4.8213 13.0606 4.86465C12.9461 4.95136 12.7939 5.07684 12.6158 5.24813C12.259 5.5912 11.8013 6.11553 11.3366 6.87553C10.405 8.39939 9.46492 10.8381 9.22521 14.6056C9.15217 15.7539 9.81637 16.7215 10.7641 17.1619C10.3439 17.5774 10.0835 18.1541 10.0835 18.7918V38.0418C10.0835 39.3074 11.1095 40.3334 12.3752 40.3334C13.6408 40.3334 14.6668 39.3074 14.6668 38.0418V18.7918C14.6668 17.9726 14.2371 17.254 13.5907 16.8487C14.2451 16.346 14.6668 15.5557 14.6668 14.6668V3.8811ZM11.0549 14.7221C11.2715 11.3176 12.0926 9.19859 12.8335 7.94386V14.6668C12.8335 15.1731 12.4231 15.5834 11.9168 15.5834C11.3956 15.5834 11.0266 15.1674 11.0549 14.7221ZM12.8335 18.8704V18.7918C12.8335 18.5387 12.6282 18.3334 12.3752 18.3334C12.122 18.3334 11.9168 18.5387 11.9168 18.7918V19.7871L12.8335 18.8704ZM12.8335 21.4631V22.5371L11.9168 23.4538V22.3798L12.8335 21.4631ZM12.8335 26.2038V25.1298L11.9168 26.0465V27.1204L12.8335 26.2038ZM12.8335 28.7965V38.0418C12.8335 38.2949 12.6282 38.5001 12.3752 38.5001C12.122 38.5001 11.9168 38.2949 11.9168 38.0418V29.7131L12.8335 28.7965Z" fill="#004AAD"/>
</svg>
