<svg width="82" height="82" viewBox="0 0 82 82" fill="none" xmlns="http://www.w3.org/2000/svg">
<path d="M76 1H6C3.23858 1 1 3.23858 1 6V76C1 78.7614 3.23858 81 6 81H76C78.7614 81 81 78.7614 81 76V6C81 3.23858 78.7614 1 76 1Z" stroke="#004AAD" stroke-width="1.5" stroke-miterlimit="10"/>
<path fill-rule="evenodd" clip-rule="evenodd" d="M44 57C44.8063 57 45.5568 57.2385 46.1849 57.6489L48.0015 25L49 25.0556L49.9984 25L51.815 57.6489C52.4432 57.2385 53.1937 57 54 57C56.2091 57 58 58.7909 58 61C58 63.2091 56.2091 65 54 65C51.8009 65 50.0163 63.2254 50.0001 61.0302L49.7765 57.0122H48.2234L47.9999 61.0302C47.9836 63.2254 46.199 65 44 65C41.7908 65 40 63.2091 40 61C40 58.7909 41.7908 57 44 57ZM49 43.0558L49.6652 55.0122H48.3347L49 43.0558ZM49 40.0348C49.5523 40.0348 50 39.5877 50 39.0362C50 38.4847 49.5523 38.0376 49 38.0376C48.4477 38.0376 48 38.4847 48 39.0362C48 39.5877 48.4477 40.0348 49 40.0348ZM44 59C42.8954 59 42 59.8954 42 61C42 62.1046 42.8954 63 44 63C45.1046 63 46 62.1046 46 61C46 59.8954 45.1046 59 44 59ZM52 61C52 59.8954 52.8954 59 54 59C55.1046 59 56 59.8954 56 61C56 62.1046 55.1046 63 54 63C52.8954 63 52 62.1046 52 61Z" fill="#004AAD"/>
<path fill-rule="evenodd" clip-rule="evenodd" d="M35.9999 25.2339L34.4854 26.1426L34.9999 27.0001C34.4854 26.1426 34.484 26.1434 34.484 26.1434L34.4825 26.1443L34.4793 26.1463L34.4719 26.1508L34.4535 26.1623C34.4396 26.1712 34.4225 26.1823 34.4024 26.1958C34.3623 26.2229 34.3102 26.2596 34.2477 26.3068C34.1228 26.4014 33.9567 26.5383 33.7624 26.7252C33.3732 27.0994 32.8739 27.6714 32.3669 28.5005C31.3506 30.1629 30.3251 32.8234 30.0636 36.9334C29.9839 38.186 30.7085 39.2416 31.7424 39.7221C31.284 40.1753 30.9999 40.8045 30.9999 41.5001V62.5001C30.9999 63.8808 32.1192 65.0001 33.4999 65.0001C34.8806 65.0001 35.9999 63.8808 35.9999 62.5001V41.5001C35.9999 40.6065 35.5311 39.8225 34.826 39.3804C35.5398 38.832 35.9999 37.9698 35.9999 37.0001V25.2339ZM32.0596 37.0604C32.2959 33.3464 33.1917 31.0348 33.9999 29.666V37.0001C33.9999 37.5524 33.5522 38.0001 32.9999 38.0001C32.4313 38.0001 32.0287 37.5462 32.0596 37.0604ZM33.9999 41.5859V41.5001C33.9999 41.224 33.776 41.0001 33.4999 41.0001C33.2237 41.0001 32.9999 41.224 32.9999 41.5001V42.5859L33.9999 41.5859ZM33.9999 44.4143V45.5859L32.9999 46.5859V45.4143L33.9999 44.4143ZM33.9999 49.5859V48.4143L32.9999 49.4143V50.5859L33.9999 49.5859ZM33.9999 52.4143V62.5001C33.9999 62.7762 33.776 63.0001 33.4999 63.0001C33.2237 63.0001 32.9999 62.7762 32.9999 62.5001V53.4143L33.9999 52.4143Z" fill="#004AAD"/>
</svg>
