<svg width="82" height="82" viewBox="0 0 82 82" fill="none" xmlns="http://www.w3.org/2000/svg">
<path d="M76 1H6C3.23858 1 1 3.23858 1 6V76C1 78.7614 3.23858 81 6 81H76C78.7614 81 81 78.7614 81 76V6C81 3.23858 78.7614 1 76 1Z" stroke="#004AAD" stroke-miterlimit="10"/>
<g clip-path="url(#clip0_658_306)">
<path d="M48.2128 53.729C47.9884 53.6701 47.758 53.8041 47.6989 54.0288C46.4836 58.6494 44.3611 60.8015 41.0193 60.8015C40.787 60.8015 40.5986 60.9899 40.5986 61.2222C40.5986 61.4546 40.787 61.643 41.0193 61.643C43.0005 61.643 44.6476 60.9479 45.915 59.5772C47.0384 58.3621 47.8882 56.6172 48.5127 54.2428C48.5717 54.0182 48.4375 53.7881 48.2128 53.729Z" fill="#004AAD"/>
<path d="M41.0008 54.0524C41.2331 54.0524 41.4215 53.864 41.4215 53.6317V50.3499C41.4215 50.1176 41.2331 49.9292 41.0008 49.9292C40.7685 49.9292 40.5801 50.1176 40.5801 50.3499V53.6317C40.5801 53.864 40.7685 54.0524 41.0008 54.0524Z" fill="#004AAD"/>
<path d="M53.6365 37.0463C53.4541 35.9298 52.9381 34.8727 52.1211 33.9789C50.8304 32.5668 48.9104 31.7237 46.985 31.7237C44.428 31.7237 42.1359 33.1517 41.0006 35.3656C39.8686 33.1517 37.5906 31.7237 35.0537 31.7237C33.1282 31.7237 31.2082 32.5668 29.9175 33.979C29.1071 34.8658 28.5924 35.9132 28.4062 37.0201C25.5429 35.7128 22.3679 33.7336 19.5186 31.9439C22.5663 32.3958 28.3637 32.8263 34.0612 30.9039C36.3757 30.123 38.7171 29.727 41.0201 29.727C43.3236 29.727 45.6651 30.123 47.9797 30.9039C51.2208 31.9975 54.4909 32.3297 57.2683 32.3296C59.3818 32.3296 61.2091 32.1371 62.5215 31.9416C59.6635 33.75 56.4178 35.709 53.6365 37.0463ZM61.8989 31.1748C60.7389 31.1075 59.4751 30.6761 58.3868 30.0045C54.5927 27.6628 51.7785 25.7007 48.9767 23.4438C47.4314 22.2296 45.6068 22.1278 44.2109 23.1746C43.8294 23.4471 43.4652 23.7333 43.113 24.0102C42.4161 24.558 41.7551 25.0778 40.9889 25.466C40.2228 25.0779 39.5616 24.5581 38.8647 24.0102C38.5125 23.7333 38.1483 23.447 37.7668 23.1746C36.3709 22.1277 34.5463 22.2296 33.0009 23.4438C30.1992 25.7007 27.3849 27.6628 23.5909 30.0045C22.5026 30.6761 21.2399 31.1358 20.0787 31.1748C18.5115 31.2274 17.5721 30.7293 17.5445 30.7222C17.4358 30.6889 17.3136 30.7015 17.208 30.7634C17.0075 30.881 16.9403 31.1388 17.0579 31.3392C18.7438 34.2138 20.9158 36.6698 23.0002 38.9436C24.1312 40.1411 26.4112 42.2744 29.1178 43.2932C30.0643 48.107 31.5084 53.787 31.621 54.2277C32.1269 56.8573 33.194 59.1132 34.7071 60.7522C36.3937 62.579 38.5764 63.5445 41.0196 63.5445C43.4996 63.5445 45.5608 62.6752 47.146 60.9608C48.5581 59.4335 49.6272 57.2361 50.4151 54.2401C50.4999 53.9084 51.9705 48.136 52.9271 43.2643C54.1118 42.8378 55.2938 42.1327 56.6327 41.0538C59.6294 38.6391 62.423 35.3741 64.9362 31.3492C65.0593 31.1521 64.9993 30.8925 64.8022 30.7695C64.7003 30.7059 64.5821 30.6921 64.4743 30.72L64.474 30.7191C63.2202 31.2839 62.5514 31.2127 61.8989 31.1748ZM59.4419 31.4167C56.3748 31.6002 52.2246 31.4481 48.2487 30.1066C45.8473 29.2964 43.4152 28.8856 41.0201 28.8856C38.6255 28.8856 36.1937 29.2964 33.7922 30.1066C29.7292 31.4775 25.6101 31.6154 22.5355 31.4185C23.0452 31.2412 23.5507 31.0179 24.0326 30.7206C27.8582 28.3594 30.6981 26.3793 33.5246 24.1023C33.9915 23.7353 35.6413 22.6326 37.2695 23.8536C37.6431 24.1205 37.9997 24.4007 38.3444 24.6718C39.1372 25.2951 39.8862 25.8839 40.8223 26.3208C40.9414 26.3763 41.0369 26.3793 41.1548 26.3208C42.0801 25.8617 42.8398 25.2951 43.6326 24.6718C43.9773 24.4007 44.3338 24.1205 44.7075 23.8536C46.3358 22.6326 47.9855 23.7353 48.4524 24.1023C51.279 26.3793 54.1189 28.3595 57.9445 30.7206C58.4267 31.0179 58.9322 31.2394 59.4419 31.4167ZM23.616 38.3704C21.9543 36.5577 20.2344 34.6255 18.7665 32.4652C18.7802 32.4737 18.7935 32.4821 18.8072 32.4907C21.834 34.3925 25.2543 36.5398 28.3282 37.9071C28.3266 38.093 28.3331 38.2796 28.35 38.4668C28.4423 39.4905 28.6546 40.8355 28.929 42.3087C26.5919 41.2896 24.6235 39.4372 23.616 38.3704ZM49.6004 54.0289C48.0439 59.9468 45.3173 62.703 41.0194 62.703C35.9191 62.703 33.2458 58.2365 32.4447 54.0567C32.4431 54.0483 32.4412 54.04 32.4391 54.0317C32.4362 54.0202 32.4026 53.8884 32.345 53.6592H34.195C34.4273 53.6592 34.6157 53.4709 34.6157 53.2385C34.6157 53.0062 34.4273 52.8178 34.195 52.8178H32.1354C31.5026 50.2577 30.0504 44.2167 29.4301 40.2633H34.0959C34.3282 40.2633 34.5166 40.0749 34.5166 39.8426C34.5166 39.6102 34.3282 39.4218 34.0959 39.4218H29.3067C29.2566 39.0501 29.2161 38.704 29.188 38.3912C29.0627 37.002 29.5423 35.6366 30.5386 34.5465C31.6726 33.3057 33.3604 32.565 35.0536 32.565C37.5538 32.565 39.7658 34.1535 40.5795 36.5239V45.7546C40.5795 45.987 40.7679 46.1754 41.0002 46.1754C41.2326 46.1754 41.421 45.987 41.421 45.7546V36.5241C42.2347 34.1536 44.462 32.565 46.9849 32.565C48.6781 32.565 50.366 33.3057 51.4999 34.5464C52.4962 35.6365 52.9759 37.002 52.8506 38.3911C52.7039 40.0188 52.2346 42.5285 51.6965 45.0643H47.0637C46.8314 45.0643 46.643 45.2527 46.643 45.485C46.643 45.7173 46.8314 45.9057 47.0637 45.9057H51.5157C51.3985 46.4449 51.2795 46.981 51.1611 47.5056H48.7894C48.5571 47.5056 48.3687 47.694 48.3687 47.9263C48.3687 48.1587 48.5571 48.347 48.7894 48.347H50.9694C50.2557 51.4574 49.6136 53.9774 49.6004 54.0289ZM56.1045 40.3987C55.0219 41.271 54.0564 41.8815 53.114 42.2865C53.3864 40.822 53.597 39.4854 53.6889 38.4668C53.7047 38.2917 53.7107 38.117 53.7103 37.9431C56.6523 36.5581 60.1356 34.4513 63.1576 32.5349C60.9798 35.7361 58.6131 38.3773 56.1045 40.3987Z" fill="#004AAD"/>
</g>
<defs>
<clipPath id="clip0_658_306">
<rect width="48" height="48" fill="white" transform="translate(17 19)"/>
</clipPath>
</defs>
</svg>
