<svg width="82" height="83" viewBox="0 0 82 83" fill="none" xmlns="http://www.w3.org/2000/svg">
<path d="M75.35 1H6C3.23858 1 1 3.23858 1 6.00001V76.2594C1 79.0208 3.23857 81.2594 5.99999 81.2594H75.35C78.1114 81.2594 80.35 79.0208 80.35 76.2594V6C80.35 3.23858 78.1114 1 75.35 1Z" stroke="#004AAD" stroke-width="1.5" stroke-miterlimit="10"/>
<path d="M51.2209 65.2076H30.1292C25.7196 65.2076 22.16 61.6227 22.16 57.1817V25.0779C22.16 20.6369 25.7196 17.052 30.1292 17.052H51.2209C55.6305 17.052 59.19 20.6369 59.19 25.0779V57.1817C59.19 61.6227 55.6305 65.2076 51.2209 65.2076Z" stroke="#004AAD" stroke-width="1.5" stroke-miterlimit="10" stroke-linecap="round" stroke-linejoin="round"/>
<path d="M40.5954 23.8473V36.7958" stroke="#004AAD" stroke-width="1.5" stroke-miterlimit="10" stroke-linecap="round" stroke-linejoin="round"/>
<path d="M28.8276 43.4301H52.5225" stroke="#004AAD" stroke-width="1.5" stroke-miterlimit="10" stroke-linecap="round" stroke-linejoin="round"/>
<path d="M28.8276 50.0654H52.5225" stroke="#004AAD" stroke-width="1.5" stroke-miterlimit="10" stroke-linecap="round" stroke-linejoin="round"/>
<path d="M28.8276 56.7004H41.6313" stroke="#004AAD" stroke-width="1.5" stroke-miterlimit="10" stroke-linecap="round" stroke-linejoin="round"/>
<path d="M35.0167 27.0843L46.1469 33.5586" stroke="#004AAD" stroke-width="1.5" stroke-miterlimit="10" stroke-linecap="round" stroke-linejoin="round"/>
<path d="M35.0167 33.5586L46.1469 27.0843" stroke="#004AAD" stroke-width="1.5" stroke-miterlimit="10" stroke-linecap="round" stroke-linejoin="round"/>
</svg>
