<svg width="58" height="58" viewBox="0 0 58 58" fill="none" xmlns="http://www.w3.org/2000/svg">
<path fill-rule="evenodd" clip-rule="evenodd" d="M32.0208 22C30.3525 22 29 23.3525 29 25.0208C29 26.6892 30.3525 28.0417 32.0208 28.0417C33.6892 28.0417 35.0417 26.6892 35.0417 25.0208C35.0417 23.3525 33.6892 22 32.0208 22ZM31.4167 25.0208C31.4167 24.6872 31.6872 24.4167 32.0208 24.4167C32.3545 24.4167 32.625 24.6872 32.625 25.0208C32.625 25.3545 32.3545 25.625 32.0208 25.625C31.6872 25.625 31.4167 25.3545 31.4167 25.0208Z" fill="#004AAD"/>
<path fill-rule="evenodd" clip-rule="evenodd" d="M18.125 24.7708C18.125 23.1025 19.4775 21.75 21.1458 21.75C22.8142 21.75 24.1667 23.1025 24.1667 24.7708C24.1667 26.4392 22.8142 27.7917 21.1458 27.7917C19.4775 27.7917 18.125 26.4392 18.125 24.7708ZM21.1458 24.1667C20.8122 24.1667 20.5417 24.4372 20.5417 24.7708C20.5417 25.1045 20.8122 25.375 21.1458 25.375C21.4795 25.375 21.75 25.1045 21.75 24.7708C21.75 24.4372 21.4795 24.1667 21.1458 24.1667Z" fill="#004AAD"/>
<path fill-rule="evenodd" clip-rule="evenodd" d="M33.6807 50.245C43.4432 48.104 50.75 39.4053 50.75 29C50.75 16.9878 41.0122 7.25 29 7.25C16.9878 7.25 7.25 16.9878 7.25 29C7.25 39.4053 14.5568 48.104 24.3193 50.245C25.5824 51.3139 27.2159 51.9583 29 51.9583C30.7841 51.9583 32.4177 51.3139 33.6807 50.245ZM35.8519 47.084C43.1473 44.3184 48.3333 37.2649 48.3333 29C48.3333 18.3224 39.6776 9.66667 29 9.66667C18.3224 9.66667 9.66667 18.3224 9.66667 29C9.66667 37.2649 14.8527 44.3184 22.1481 47.084C21.8902 46.3398 21.75 45.5404 21.75 44.7083V42.52C20.3848 42.0349 19.3835 41.4022 18.6533 40.697C16.9813 39.0826 16.9645 37.3139 16.9645 36.8542V36.8497L16.964 36.8363C16.9636 36.8242 16.9627 36.8082 16.9613 36.7875C16.9586 36.7465 16.9549 36.7003 16.95 36.6387L16.9489 36.6254C16.9387 36.4966 16.9248 36.3219 16.9192 36.1305C16.9083 35.7557 16.9251 35.2392 17.0982 34.7122C17.2793 34.1599 17.6326 33.5984 18.2612 33.1938C18.871 32.8012 19.6331 32.625 20.5191 32.625H37.5288C38.3254 32.625 39.0153 32.8273 39.5764 33.2187C40.1306 33.6051 40.4755 34.1173 40.6887 34.6045C41.0847 35.5092 41.0837 36.475 41.0833 36.8265V36.8542C41.0833 37.4663 40.8385 39.1895 39.0547 40.7398C38.3527 41.3499 37.4382 41.9107 36.25 42.3651V44.7083C36.25 45.5404 36.1098 46.3398 35.8519 47.084ZM20.332 38.9586C20.6544 39.27 21.1092 39.6017 21.75 39.9082V38.6667C21.75 37.9993 22.291 37.4583 22.9583 37.4583H35.0417C35.709 37.4583 36.25 37.9993 36.25 38.6667V39.7244C36.7635 39.4609 37.1616 39.1833 37.4693 38.9158C38.0513 38.4101 38.3463 37.9115 38.4988 37.5359C38.5763 37.3454 38.6187 37.1819 38.6417 37.0598C38.6531 36.9989 38.6594 36.9491 38.6629 36.9126C38.6633 36.9093 38.6635 36.906 38.6639 36.9029C38.665 36.8893 38.6657 36.8782 38.6662 36.8699L38.6665 36.8597L38.6667 36.8542C38.6667 36.5004 38.6545 35.984 38.4748 35.5732C38.3946 35.3901 38.2998 35.2746 38.194 35.2008C38.0954 35.132 37.9054 35.0417 37.5288 35.0417H20.5191C19.9386 35.0417 19.6743 35.1581 19.5693 35.2257C19.483 35.2813 19.433 35.3476 19.3942 35.4657C19.3474 35.6087 19.3274 35.8051 19.3349 36.0603C19.3385 36.1839 19.3476 36.3038 19.3579 36.4329L19.3602 36.4617C19.3689 36.5683 19.3812 36.7214 19.3812 36.8542V36.8653C19.3809 37.1044 19.3799 38.0392 20.332 38.9586ZM29 44.7083C28.3326 44.7083 27.7917 44.1674 27.7917 43.5V39.875H24.1667V44.7083C24.1667 47.3777 26.3307 49.5417 29 49.5417C31.6693 49.5417 33.8333 47.3777 33.8333 44.7083V39.875H30.2083V43.5C30.2083 44.1674 29.6674 44.7083 29 44.7083Z" fill="#004AAD"/>
</svg>
