<svg width="82" height="82" viewBox="0 0 82 82" fill="none" xmlns="http://www.w3.org/2000/svg">
<path d="M76 1H6C3.23858 1 1 3.23858 1 6V76C1 78.7614 3.23858 81 6 81H76C78.7614 81 81 78.7614 81 76V6C81 3.23858 78.7614 1 76 1Z" stroke="#004AAD" stroke-width="1.5" stroke-miterlimit="10"/>
<path d="M38.0817 48.0936V39.164" stroke="#004AAD" stroke-width="1.5" stroke-miterlimit="10" stroke-linecap="round"/>
<path d="M21.4509 56.944C23.909 56.944 25.9017 54.9687 25.9017 52.532C25.9017 50.0953 23.909 48.12 21.4509 48.12C18.9927 48.12 17 50.0953 17 52.532C17 54.9687 18.9927 56.944 21.4509 56.944Z" stroke="#004AAD" stroke-width="1.5" stroke-miterlimit="10" stroke-linecap="round"/>
<path d="M44.6911 28.4905C47.1492 28.4905 49.142 26.5152 49.142 24.0786C49.142 21.6419 47.1492 19.6666 44.6911 19.6666C42.233 19.6666 40.2402 21.6419 40.2402 24.0786C40.2402 26.5152 42.233 28.4905 44.6911 28.4905Z" stroke="#004AAD" stroke-width="1.5" stroke-miterlimit="10" stroke-linecap="round"/>
<path d="M17 62.3331V58.4495C17 57.6305 17.6929 56.9436 18.5192 56.9436H24.3026C24.7024 56.9436 25.0755 57.1021 25.3687 57.3663L26.7279 58.7137C27.0211 59.0043 27.3942 59.1364 27.794 59.1364H63.5075C64.3337 59.1364 65 59.7969 65 60.6158V62.3331" stroke="#004AAD" stroke-width="1.5" stroke-miterlimit="10" stroke-linecap="round"/>
<path d="M33.8174 54.9623H42.5859C43.7586 54.9623 44.6914 55.8869 44.6914 57.0494C44.6914 58.2118 43.7586 59.1365 42.5859 59.1365H31.7652C29.4998 59.1365 27.6875 57.3136 27.6875 55.0944C27.6875 52.8487 29.5265 51.0523 31.7652 51.0523H40.7736C41.3599 51.0523 41.9196 50.8145 42.346 50.4182L43.1722 49.5992" stroke="#004AAD" stroke-width="1.5" stroke-miterlimit="10" stroke-linecap="round"/>
<path d="M59.2702 59.1366H62.6283C63.9342 59.1366 64.9737 58.1062 64.9737 56.8117C64.9737 55.5172 63.9342 54.4868 62.6283 54.4868H48.0497C47.4634 54.4868 47.0903 53.8263 47.4101 53.3244L49.1425 50.5504" stroke="#004AAD" stroke-width="1.5" stroke-miterlimit="10" stroke-linecap="round"/>
<path d="M51.6208 48.1199H58.5503C59.643 48.1199 60.5225 47.2481 60.5225 46.1649C60.5225 45.0817 59.643 44.2099 58.5503 44.2099H45.7041" stroke="#004AAD" stroke-width="1.5" stroke-miterlimit="10" stroke-linecap="round"/>
<path d="M41.2266 37.3146L42.6125 41.8851C42.6658 42.0964 42.8257 42.2814 42.9856 42.4134L47.4099 45.4516C48.2894 46.0593 48.4226 47.3274 47.6497 48.0671C47.0634 48.6483 46.1572 48.7276 45.4643 48.2785L39.5476 44.3685C39.3343 44.2364 39.2011 44.025 39.1211 43.7608L37.0156 34.7784C36.6159 33.0611 37.9484 31.3967 39.7341 31.3967H47.703C48.9024 31.3967 50.0217 31.9515 50.768 32.8762L57.6442 41.6737" stroke="#004AAD" stroke-width="1.5" stroke-miterlimit="10" stroke-linecap="round"/>
<path d="M52.7399 41.621L50.4478 37.8167C50.3678 37.6846 50.1546 37.7374 50.1546 37.8959V41.7267" stroke="#004AAD" stroke-width="1.5" stroke-miterlimit="10" stroke-linecap="round"/>
</svg>
